/* XPM */
static char * grisbi_xpm[] = {
"32 32 354 2",
"  	c None",
". 	c #0E0E0E",
"+ 	c #010101",
"@ 	c #1D1413",
"# 	c #BD5957",
"$ 	c #1E0303",
"% 	c #A53332",
"& 	c #FEB2AD",
"* 	c #881C1C",
"= 	c #A80E0E",
"- 	c #AB0606",
"; 	c #F7918C",
"> 	c #982824",
", 	c #F7E122",
"' 	c #690000",
") 	c #B12725",
"! 	c #533B3F",
"~ 	c #416349",
"{ 	c #21993B",
"] 	c #999647",
"^ 	c #D09E0E",
"/ 	c #4F7033",
"( 	c #3F693C",
"_ 	c #009B60",
": 	c #03A365",
"< 	c #16B473",
"[ 	c #15121B",
"} 	c #2B132C",
"| 	c #295098",
"1 	c #2B6593",
"2 	c #57916D",
"3 	c #A59579",
"4 	c #B87E0E",
"5 	c #371A16",
"6 	c #1A8B59",
"7 	c #07AD71",
"8 	c #01A269",
"9 	c #00A26B",
"0 	c #00A069",
"a 	c #01A065",
"b 	c #0AA76B",
"c 	c #07BD73",
"d 	c #113964",
"e 	c #143A84",
"f 	c #04419D",
"g 	c #1744B7",
"h 	c #929BC9",
"i 	c #B09B7B",
"j 	c #E3D195",
"k 	c #14B873",
"l 	c #14B773",
"m 	c #02A062",
"n 	c #00A068",
"o 	c #009F65",
"p 	c #00A16A",
"q 	c #019F64",
"r 	c #05A166",
"s 	c #03AC69",
"t 	c #034080",
"u 	c #023C88",
"v 	c #013A88",
"w 	c #1D4C92",
"x 	c #FBFAF9",
"y 	c #FEFEFC",
"z 	c #FEFEFE",
"A 	c #01985A",
"B 	c #009E65",
"C 	c #01A56D",
"D 	c #00A36D",
"E 	c #01A166",
"F 	c #0F9F62",
"G 	c #01A66D",
"H 	c #0C3B81",
"I 	c #02367E",
"J 	c #03347F",
"K 	c #4A6CA0",
"L 	c #FDFCF7",
"M 	c #FCFCFA",
"N 	c #009D65",
"O 	c #00A46D",
"P 	c #0E9F66",
"Q 	c #04A46A",
"R 	c #00A16B",
"S 	c #07A167",
"T 	c #0C347F",
"U 	c #032C74",
"V 	c #08448C",
"W 	c #4F71A1",
"X 	c #FBFAF4",
"Y 	c #FBFBFA",
"Z 	c #009C61",
"` 	c #01A76C",
" .	c #019D63",
"..	c #02347E",
"+.	c #05579C",
"@.	c #3D5E92",
"#.	c #F9F8F2",
"$.	c #F4F4F4",
"%.	c #F8F8F7",
"&.	c #009D64",
"*.	c #01519B",
"=.	c #013578",
"-.	c #1C427B",
";.	c #F6F4EC",
">.	c #EAEAEA",
",.	c #EDEDED",
"'.	c #0556AA",
").	c #023B9C",
"!.	c #01479A",
"~.	c #013575",
"{.	c #022A64",
"].	c #052764",
"^.	c #EFEAE3",
"/.	c #DFE0E0",
"(.	c #E3E4E4",
"_.	c #E3E1E2",
":.	c #0CA367",
"<.	c #00A26C",
"[.	c #B2A08B",
"}.	c #062660",
"|.	c #022B63",
"1.	c #011C5A",
"2.	c #BDC3CB",
"3.	c #DEE1E7",
"4.	c #DDDFE4",
"5.	c #DFDCDE",
"6.	c #FFF2F9",
"7.	c #06A366",
"8.	c #009B62",
"9.	c #019B5D",
"0.	c #01A36C",
"a.	c #00985B",
"b.	c #349860",
"c.	c #249560",
"d.	c #018460",
"e.	c #022956",
"f.	c #03285D",
"g.	c #012157",
"h.	c #46535F",
"i.	c #836220",
"j.	c #CECABB",
"k.	c #CEC0C9",
"l.	c #2CA377",
"m.	c #00995F",
"n.	c #019451",
"o.	c #09A768",
"p.	c #00A56F",
"q.	c #00A46F",
"r.	c #00A46E",
"s.	c #179E6B",
"t.	c #249D6B",
"u.	c #00956B",
"v.	c #012C53",
"w.	c #022455",
"x.	c #272C3F",
"y.	c #5C3500",
"z.	c #CBB978",
"A.	c #9F9CA7",
"B.	c #03A367",
"C.	c #00A36C",
"D.	c #03A56D",
"E.	c #00833B",
"F.	c #008540",
"G.	c #00843F",
"H.	c #008D4E",
"I.	c #009C65",
"J.	c #009A60",
"K.	c #008948",
"L.	c #008642",
"M.	c #36864B",
"N.	c #009052",
"O.	c #012B42",
"P.	c #02214C",
"Q.	c #011F51",
"R.	c #262945",
"S.	c #6C4A07",
"T.	c #B69235",
"U.	c #4F8B77",
"V.	c #0A9566",
"W.	c #008C50",
"X.	c #009354",
"Y.	c #02985C",
"Z.	c #020A3D",
"`.	c #031540",
" +	c #00124B",
".+	c #8E7419",
"++	c #C78D00",
"@+	c #CC9604",
"#+	c #E5B30D",
"$+	c #FEEF73",
"%+	c #029D64",
"&+	c #0F975C",
"*+	c #14304B",
"=+	c #012345",
"-+	c #F9B700",
";+	c #EAA800",
">+	c #A37202",
",+	c #C68D01",
"'+	c #E0A305",
")+	c #02A264",
"!+	c #00975A",
"~+	c #009A61",
"{+	c #009F67",
"]+	c #009960",
"^+	c #0A975D",
"/+	c #2B964B",
"(+	c #148F4A",
"_+	c #2A984D",
":+	c #04975A",
"<+	c #3C9048",
"[+	c #1C9B54",
"}+	c #2FAC5B",
"|+	c #0DA66F",
"1+	c #DAB109",
"2+	c #C89504",
"3+	c #294823",
"4+	c #7A6C0F",
"5+	c #5E8221",
"6+	c #179656",
"7+	c #1F8D48",
"8+	c #18A86B",
"9+	c #08B074",
"0+	c #09AD72",
"a+	c #05A96F",
"b+	c #02A269",
"c+	c #039E6B",
"d+	c #51A241",
"e+	c #97A221",
"f+	c #3C9D45",
"g+	c #8C9C1E",
"h+	c #0E8F4D",
"i+	c #E6A405",
"j+	c #659536",
"k+	c #B9A510",
"l+	c #45A151",
"m+	c #619B32",
"n+	c #B0A611",
"o+	c #1FA268",
"p+	c #96A624",
"q+	c #38994A",
"r+	c #5E9422",
"s+	c #729422",
"t+	c #E9A800",
"u+	c #98900B",
"v+	c #DEAF00",
"w+	c #F6B100",
"x+	c #D9B50C",
"y+	c #2AA76B",
"z+	c #1AC680",
"A+	c #1FC57F",
"B+	c #12B872",
"C+	c #089F61",
"D+	c #01A068",
"E+	c #009A5F",
"F+	c #2B9449",
"G+	c #CBB60D",
"H+	c #4BAA53",
"I+	c #00B684",
"J+	c #2D8F2A",
"K+	c #0E8B51",
"L+	c #E5AE06",
"M+	c #66A55A",
"N+	c #B1AB1B",
"O+	c #7AA62D",
"P+	c #6FA540",
"Q+	c #C0AC0E",
"R+	c #659E48",
"S+	c #D2AD0A",
"T+	c #44A062",
"U+	c #508A29",
"V+	c #EDAE00",
"W+	c #E4BA07",
"X+	c #FEBC00",
"Y+	c #FAD127",
"Z+	c #02A36B",
"`+	c #00995E",
" @	c #F4BC00",
".@	c #F0AE02",
"+@	c #E5AE08",
"@@	c #E8B304",
"#@	c #F5BA00",
"$@	c #F5B606",
"%@	c #E7AB01",
"&@	c #D5AD0B",
"*@	c #FFD92A",
"=@	c #00985E",
"-@	c #F7BF00",
";@	c #E7B600",
">@	c #EBAD03",
",@	c #E9B108",
"'@	c #E3B307",
")@	c #EBB305",
"!@	c #E2AD03",
"~@	c #EAAF01",
"{@	c #F6BD02",
"]@	c #FCD328",
"^@	c #0A9A5B",
"/@	c #00A06A",
"(@	c #F2B806",
"_@	c #FEC300",
":@	c #EAAC03",
"<@	c #F6B306",
"[@	c #CFA201",
"}@	c #DFAC03",
"|@	c #BE9B00",
"1@	c #E5AE04",
"2@	c #EAAD01",
"3@	c #B49600",
"4@	c #F7BB04",
"5@	c #FDB700",
"6@	c #E8BB11",
"7@	c #04A56B",
"8@	c #009F6B",
"9@	c #7CA033",
"0@	c #07A669",
"a@	c #02A46C",
"b@	c #00A26D",
"c@	c #009D66",
"d@	c #019A5D",
"e@	c #029D63",
"f@	c #08A467",
"g@	c #03A46B",
"h@	c #059A59",
"i@	c #00A169",
"j@	c #07AA6B",
"k@	c #099E60",
"l@	c #01A36D",
"m@	c #039757",
"n@	c #029C5B",
"o@	c #01A169",
"p@	c #029B5F",
"q@	c #08A265",
"r@	c #00975D",
"s@	c #01975A",
"t@	c #13B572",
"u@	c #21C27D",
"v@	c #08AA67",
"w@	c #009657",
"x@	c #009E66",
"y@	c #02A066",
"z@	c #029859",
"A@	c #009E6B",
"B@	c #02A770",
"C@	c #04A872",
"D@	c #01A66F",
"E@	c #009E67",
"F@	c #019A5C",
"G@	c #189D65",
"H@	c #119C65",
"I@	c #049B5F",
"J@	c #009C63",
"K@	c #019C60",
"L@	c #0D9C63",
"M@	c #149D66",
"                            .                                   ",
"                          + @ #                                 ",
"                          $ % & *                               ",
"                          = - ; >       ,                       ",
"                            ' ) ! ~ { ] ^ / ( _ : <             ",
"                            [ } | 1 2 3 4 5 6 7 8 9 0 a         ",
"                        b c d e f g h i j   k l m n o p 0 q     ",
"                      r 0 s t u v w x y z           A B C D E F ",
"                    0 p G   H I J K L M z z               N O P ",
"                  Q R S     T U V W X Y z z                 Z   ",
"                ` O  .        ..+.@.#.$.%.%.                    ",
"                O &.          *.=.-.;.>.,.,.                    ",
"              G p       '.).!.~.{.].^./.(._.z                   ",
"            :.D <.      [.    }.|.1.2.3.4.5.6.                  ",
"    7.8.9.9.0.D p 8._ a.b.c.d.e.f.g.h.i.j.k.l.m.8.8.8.n.        ",
"  o.p.q.q.D D D D r.D q.s.t.u.v.w.w.x.y.z.A.B.<.C.r.D.          ",
"  E.F.G.H.I.D J.K.G.G.F.L.M.N.O.P.Q.R.S.T.U.V.W.G.G.X.          ",
"          9 D Y.              Z.`. +.+++@+#+$+                  ",
"          %+D &+                *+=+-+;+>+,+'+                  ",
"  )+!+!+~+p D {+]+^+/+(+_+:+<+[+}+|+1+2+3+4+5+6+7+              ",
"8+9+0+a+b+9 D n c+d+e+f+g+h+i+j+k+l+m+n+o+p+q+r+s+t+u+v+  w+x+  ",
"y+z+A+B+C+D+D E+F+G+H+I+J+K+L+M+N+O+P+Q+R+S+T+U+  V+  W+  X+Y+  ",
"          Z+D `+   @        .@  +@    @@  #@$@    %@  &@  X+*@  ",
"          &.D =@  -@    ;@  >@  ,@    '@    )@!@  ~@  {@  X+]@  ",
"          ^@D /@  (@    _@  :@  <@[@  }@  |@  1@  2@3@4@  5@6@  ",
"            7@D 8@                                    9@        ",
"            0@a@b@c@                                d@e@        ",
"              f@D R g@                          h@B i@j@        ",
"                k@i@l@l@m@                  n@B o@<.p@          ",
"                  q@{+D i@0.r@s@t@u@v@w@x@D C.C.y@              ",
"                      z@A@D <.D B@C@D@9 r.E@F@                  ",
"                          G@H@I@J@K@L@M@G@                      "};
