/* XPM */
static char * upp_xpm[] = {
"48 48 318 2",
"  	c None",
". 	c #000000",
"+ 	c #000101",
"@ 	c #010000",
"# 	c #010101",
"$ 	c #090909",
"% 	c #0C0C0C",
"& 	c #0B0B0B",
"* 	c #0B0C0C",
"= 	c #0D0303",
"- 	c #0F0000",
"; 	c #0E0000",
"> 	c #030000",
", 	c #7E7E7E",
"' 	c #B0B0B0",
") 	c #A2A2A2",
"! 	c #A3A1A1",
"~ 	c #A0A9A9",
"{ 	c #BC2727",
"] 	c #CD0000",
"^ 	c #C30000",
"/ 	c #300000",
"( 	c #F5F4F4",
"_ 	c #E1E2E2",
": 	c #E0E8E8",
"< 	c #DCF6F6",
"[ 	c #DFEAEA",
"} 	c #FD3939",
"| 	c #FF0000",
"1 	c #FB0000",
"2 	c #430000",
"3 	c #0F0F0F",
"4 	c #0D0D0D",
"5 	c #0E0E0E",
"6 	c #030303",
"7 	c #CECFCF",
"8 	c #CFCECE",
"9 	c #CCDADA",
"0 	c #CED1D1",
"a 	c #F33333",
"b 	c #F20000",
"c 	c #3D0000",
"d 	c #999999",
"e 	c #CFCFCF",
"f 	c #C2C2C2",
"g 	c #CACACA",
"h 	c #303030",
"i 	c #EB5353",
"j 	c #F52929",
"k 	c #FC0C0C",
"l 	c #F10000",
"m 	c #3E0000",
"n 	c #D1D1D1",
"o 	c #C3C3C3",
"p 	c #AAAAAA",
"q 	c #A6A6A6",
"r 	c #282828",
"s 	c #FFFFFF",
"t 	c #FBFBFE",
"u 	c #434346",
"v 	c #FF0001",
"w 	c #0F0F10",
"x 	c #CFCFD5",
"y 	c #EEEEF0",
"z 	c #EBEBEA",
"A 	c #E6E6E6",
"B 	c #373737",
"C 	c #FFFFFE",
"D 	c #FFFFF4",
"E 	c #FFFFF0",
"F 	c #FFFFF1",
"G 	c #FFFFF8",
"H 	c #F2F2F1",
"I 	c #3D3D3E",
"J 	c #FF0100",
"K 	c #FF0B00",
"L 	c #FF1000",
"M 	c #F10E00",
"N 	c #3E0300",
"O 	c #0D0D0E",
"P 	c #FFFFFC",
"Q 	c #FDFDF2",
"R 	c #D8D8DB",
"S 	c #D5D5D6",
"T 	c #323232",
"U 	c #FFFF66",
"V 	c #FFFF30",
"W 	c #FFFF3E",
"X 	c #FFFF40",
"Y 	c #F1F13E",
"Z 	c #3E3E0F",
"` 	c #FF9900",
" .	c #FFD500",
"..	c #F1C200",
"+.	c #3E3000",
"@.	c #0E0E03",
"#.	c #C2C231",
"$.	c #FFFF3F",
"%.	c #FAFA3C",
"&.	c #B2B286",
"*.	c #9C9CAD",
"=.	c #9F9F9F",
"-.	c #262626",
";.	c #FFFF00",
">.	c #F1F100",
",.	c #3E3E00",
"'.	c #000002",
").	c #C50000",
"!.	c #FF0900",
"~.	c #FFCD00",
"{.	c #F1FB00",
"].	c #3E4300",
"^.	c #000001",
"/.	c #0E0E00",
"(.	c #C2C200",
"_.	c #F8F801",
":.	c #A3A365",
"<.	c #86869E",
"[.	c #8B8B8B",
"}.	c #212121",
"|.	c #FFFF3D",
"1.	c #0D0000",
"2.	c #C20000",
"3.	c #FF0E00",
"4.	c #FFC100",
"5.	c #F1F200",
"6.	c #3E3D00",
"7.	c #0D0D00",
"8.	c #F9F907",
"9.	c #A7A770",
"0.	c #8C8CA3",
"a.	c #919190",
"b.	c #232323",
"c.	c #FF9A00",
"d.	c #FFF000",
"e.	c #A6A66F",
"f.	c #8B8BA2",
"g.	c #909090",
"h.	c #222222",
"i.	c #F8F800",
"j.	c #404000",
"k.	c #FEFF00",
"l.	c #F8F100",
"m.	c #403E00",
"n.	c #CACA00",
"o.	c #FDFD08",
"p.	c #AFAF75",
"q.	c #9393AB",
"r.	c #989897",
"s.	c #242424",
"t.	c #F0F000",
"u.	c #0E0100",
"v.	c #C20B00",
"w.	c #F4FF00",
"x.	c #F6FF00",
"y.	c #FEFE00",
"z.	c #F3F308",
"A.	c #A9A970",
"B.	c #8E8EA4",
"C.	c #919191",
"D.	c #0F0F00",
"E.	c #0E0B00",
"F.	c #C29A00",
"G.	c #65FF00",
"H.	c #33FF00",
"I.	c #3EF100",
"J.	c #0F3E00",
"K.	c #030300",
"L.	c #303000",
"M.	c #454500",
"N.	c #3E3E02",
"O.	c #28281B",
"P.	c #212127",
"Q.	c #080808",
"R.	c #0E0F00",
"S.	c #C2CF00",
"T.	c #FFFE00",
"U.	c #00FF00",
"V.	c #00F100",
"W.	c #003E00",
"X.	c #0E0D00",
"Y.	c #F1FF00",
"Z.	c #3EFF00",
"`.	c #A3A3A3",
" +	c #0FFF00",
".+	c #F5F5F5",
"++	c #E1E1E1",
"@+	c #E2E2E2",
"#+	c #ECECEC",
"$+	c #E3E3E3",
"%+	c #CAC200",
"&+	c #01FF00",
"*+	c #CECECE",
"=+	c #D9D9D9",
"-+	c #00FF01",
";+	c #00FF0B",
">+	c #00FF10",
",+	c #00F10E",
"'+	c #003E03",
")+	c #030E00",
"!+	c #30C200",
"~+	c #46FF00",
"{+	c #00FF99",
"]+	c #00FFD5",
"^+	c #00F1C2",
"/+	c #003E30",
"(+	c #000E00",
"_+	c #00C200",
":+	c #00FF09",
"<+	c #00FFCD",
"[+	c #00FFFF",
"}+	c #00F1FB",
"|+	c #003E43",
"1+	c #000D00",
"2+	c #00FF0E",
"3+	c #00FFC1",
"4+	c #00F1F2",
"5+	c #003E3D",
"6+	c #CDCDCD",
"7+	c #D8D8D8",
"8+	c #00FF9A",
"9+	c #00FFF0",
"0+	c #00F1F1",
"a+	c #003E3E",
"b+	c #E4E4E4",
"c+	c #DBDBDB",
"d+	c #343434",
"e+	c #00FEFF",
"f+	c #00F8F1",
"g+	c #00403E",
"h+	c #D2D2D2",
"i+	c #333333",
"j+	c #000D01",
"k+	c #00C20B",
"l+	c #00F4FF",
"m+	c #00F6FF",
"n+	c #000E0B",
"o+	c #00C29A",
"p+	c #0065FF",
"q+	c #0033FF",
"r+	c #003EF1",
"s+	c #000F3E",
"t+	c #020000",
"u+	c #000E0F",
"v+	c #00C2CF",
"w+	c #00FFFE",
"x+	c #0000FF",
"y+	c #0000F1",
"z+	c #00003E",
"A+	c #010300",
"B+	c #010100",
"C+	c #0D0D03",
"D+	c #000E0D",
"E+	c #00C2C2",
"F+	c #00F1FF",
"G+	c #003EFF",
"H+	c #000100",
"I+	c #0B0B00",
"J+	c #080806",
"K+	c #070709",
"L+	c #020202",
"M+	c #000D0E",
"N+	c #000FFF",
"O+	c #999900",
"P+	c #D3D300",
"Q+	c #C3C306",
"R+	c #838357",
"S+	c #6D6D7F",
"T+	c #707070",
"U+	c #1B1B1B",
"V+	c #000E0E",
"W+	c #00CAC2",
"X+	c #0000F3",
"Y+	c #FFFF05",
"Z+	c #B8B877",
"`+	c #9999B2",
" @	c #9D9D9C",
".@	c #0101FF",
"+@	c #0909FC",
"@@	c #0D0DFE",
"#@	c #0C0CF2",
"$@	c #03033E",
"%@	c #F8F808",
"&@	c #A7A76E",
"*@	c #8C8CA2",
"=@	c #00030E",
"-@	c #0030C2",
";@	c #0046FF",
">@	c #0909FD",
",@	c #7E7EE1",
"'@	c #B7B7E1",
")@	c #A2A2DC",
"!@	c #282834",
"~@	c #939387",
"{@	c #939398",
"]@	c #00000E",
"^@	c #0000C2",
"/@	c #0707FD",
"(@	c #ADADD6",
"_@	c #FCFCD0",
":@	c #E2E2CD",
"<@	c #373730",
"[@	c #9E9E9C",
"}@	c #0B0BFC",
"|@	c #9F9FD9",
"1@	c #EBEBD5",
"2@	c #D0D0D1",
"3@	c #717170",
"4@	c #00000D",
"5@	c #C4C4D0",
"6@	c #DDDDD7",
"7@	c #0000CA",
"8@	c #EAEAD5",
"9@	c #E3E3E4",
"0@	c #0000FC",
"a@	c #000003",
"b@	c #000030",
"c@	c #000044",
"                                                                                                ",
"                                                                                                ",
"                                                                                                ",
"                                    . . . . . . . . . . . . . . .                               ",
"                                    . . . . . . . . . . + . . @ .                               ",
"                                    . . # $ % & & * * = - ; > . .                               ",
"            . . . . . . . . . . . . . . $ , ' ) ! ~ ) { ] ^ / . . . . . . . . . . .             ",
"            . . . . . . . . . . . . . . % ' ( _ : < [ } | 1 2 . . . . . . . . . # .             ",
"            . . # & 3 4 4 4 4 4 5 5 6 . & ) _ 7 8 9 0 a | b c . # & 3 5 & & % 6 . .             ",
"            . . & d e f f f f f g f h . & ! : 8 i j a k | l m . & d n o p q ) r . .             ",
"            . . 3 e s s s s s s s t u . * ~ < 9 j | | | v l m . w x s s y z A B . .             ",
"            . . 4 f s C D E F F G H I . * ) [ 0 a | J K L M N . O f P Q R S n T . .             ",
"            . . 5 f s D U V W W X Y Z . = { } a k | K `  ...+.. @.#.$.%.&.*.=.-.. .             ",
"            . . 5 f s E V ;.;.;.;.>.,.'.; ).| | | v !.~.;.{.].^./.(.;._.:.<.[.}.. .             ",
"            . . 4 f s F |.;.;.;.;.>.,.. 1.2.| J K !.3.4.;.5.6.. 7.(.;.8.9.0.a.b.. .             ",
"            . . 4 f s F W ;.;.;.;.>.,.. 1.2.| K c.~.4.d.;.>.,.. 7.(.;.8.e.f.g.h.. .             ",
"            . . 5 g s G X ;.;.;.;.i.j.. ; 2.| !.~.k.;.;.;.l.m.. /.n.;.o.p.q.r.s.. .             ",
"            . . 5 f t H Y >.>.>.i.t.,.. u.v.!.3.4.;.k.w.x.>.,.. /.(.y.z.A.B.C.b.. .             ",
"      . . . . . 6 h u I Z ,.,.,.j.,.D.. E.F.~.4.d.;.w.G.H.I.J.. K.L.M.N.O.P.b.Q.. . . . .       ",
"      . . . . . . . . . . . . . . . . ^.R.S.;.;.;.T.x.H.U.V.W.> @ . . . . . . . . . . # .       ",
"      . . # $ % & & & & & & & & % % 6 . X.(.;.k.w.x.Y.Z.U.V.W.@ # $ % & & & & & % % 6 . .       ",
"      . . $ , ' ) ) ) ) ) ) ) ) p `.r . 7.(.;.w.G.H.Z. +U.V.W.. $ , ' ) ) ) ) ) p `.r . .       ",
"      . . % ' .+++@+@+@+@+@+@+++#+$+B . /.%+;.x.H.U.U.U.&+V.W.. % ' .+++@+@+@+++#+$+B . .       ",
"      . . & ) ++*+e e e e e e *+=+n T . /.(.k.Y.Z.U.-+;+>+,+'+. & ) ++*+e e e *+=+n T . .       ",
"      . . & ) @+e e e e e e e *+=+n T . )+!+~+Z. +U.;+{+]+^+/+. & ) @+e e e e *+=+n T . .       ",
"      . . & ) @+e e e e e e e *+=+n T . (+_+U.U.U.&+:+<+[+}+|+. & ) @+e e e e *+=+n T . .       ",
"      . . & ) @+e e e e e e e *+=+n T . 1+_+U.-+;+:+2+3+[+4+5+. & ) @+e e e e *+=+n T . .       ",
"      . . & ) ++*+*+*+*+*+*+*+6+7+n T . 1+_+U.;+8+<+3+9+[+0+a+. & ) ++*+*+*+*+6+7+n T . .       ",
"      . . % p #+=+=+=+=+=+=+=+7+b+c+d+. (+_+U.:+<+e+[+[+[+f+g+. % p #+=+=+=+=+7+b+c+d+. .       ",
"      . . % `.$+n n n n n n n n c+h+i+. j+k+:+2+3+[+e+l+m+0+a+. % `.$+n n n n n c+h+i+. .       ",
"      . . 6 r B T T T T T T T T d+i+% . n+o+<+3+9+[+l+p+q+r+s+. 6 r B T T T T T d+i+% . .       ",
"      . # . . . . . . . . . . . . . . t+u+v+[+[+[+w+m+q+x+y+z+A+B+. . . . . . . . . . # .       ",
"      . . . . . # & w O C+7.7.7././.K.@ D+E+[+e+l+m+F+G+x+y+z+H+B+I+D./.J+K+Q.L+. . . . .       ",
"            . . & d x f #.(.(.(.n.(.L.. M+E+[+l+p+q+G+N+x+y+z+. I+O+P+Q+R+S+T+U+. .             ",
"            . . 3 n s P $.;.;.;.;.y.M.. V+W+[+m+q+x+x+x+x+X+z+. D.P+;.Y+Z+`+ @-.. .             ",
"            . . 5 o s Q %._.8.8.o.z.N.. V+E+e+F+G+x+.@+@@@#@$@. /.Q+Y+%@&@*@g.h.. .             ",
"            . . & p y R &.:.9.e.p.A.O.. =@-@;@G+N+x+>@,@'@)@!@. J+R+Z+&@~@{@g.h.. .             ",
"            . . & q z S *.<.0.f.q.B.P.. ]@^@x+x+x+x+/@(@_@:@<@. K+S+`+*@{@[@r.s.. .             ",
"            . . % ) A n =.[.a.g.r.C.b.. ]@^@x+.@>@/@}@|@1@2@T . Q.3@ @g.g.r.C.b.. .             ",
"            . . 6 r B T -.}.b.h.s.b.Q.. 4@^@x++@,@(@|@5@6@n T . L+U+-.h.h.s.b.Q.. .             ",
"            . # . . . . . . . . . . . B+]@7@x+@@'@_@8@6@9@c+d+. . . . . . . . . # .             ",
"            . . . . . . . . . . . . . . ]@^@0@#@)@:@2@n c+h+i+. . . . . . . . . . .             ",
"                                    . . a@b@c@$@!@<@T T d+i+% . .                               ",
"                                    . ^.. . B+. . . . . . . . # .                               ",
"                                    . . . . . . . . . . . . . . .                               ",
"                                                                                                ",
"                                                                                                ",
"                                                                                                "};
