/* XPM */
static char * uget_xpm[] = {
"32 32 387 2",
"  	c None",
". 	c #58733C",
"+ 	c #6A844E",
"@ 	c #6E8853",
"# 	c #67834A",
"$ 	c #436420",
"% 	c #59723B",
"& 	c #658049",
"* 	c #829F67",
"= 	c #B8CAA5",
"- 	c #D1DDC3",
"; 	c #CCDABC",
"> 	c #CDDBBC",
", 	c #D4E0C6",
"' 	c #D1DEC2",
") 	c #BACDA4",
"! 	c #96B277",
"~ 	c #5A822F",
"{ 	c #2C5306",
"] 	c #315310",
"^ 	c #8AA66D",
"/ 	c #C0D1AD",
"( 	c #D3DFC5",
"_ 	c #D8E4CA",
": 	c #D8E3CB",
"< 	c #DAE5CD",
"[ 	c #D7E3C9",
"} 	c #CEDDBE",
"| 	c #C9D9B6",
"1 	c #C9D8B5",
"2 	c #C2D4AD",
"3 	c #ABC48F",
"4 	c #7A9F4E",
"5 	c #3C6C0A",
"6 	c #274C03",
"7 	c #577830",
"8 	c #A9C08F",
"9 	c #D1DEC1",
"0 	c #D9E4CC",
"a 	c #D5E1C6",
"b 	c #CCDBBA",
"c 	c #C8D8B5",
"d 	c #C4D5B0",
"e 	c #C0D2AA",
"f 	c #BDD0A6",
"g 	c #BACEA1",
"h 	c #B6CB9C",
"i 	c #B4CB9A",
"j 	c #A0BB7F",
"k 	c #5D8C26",
"l 	c #3E7305",
"m 	c #336003",
"n 	c #507426",
"o 	c #A7C08A",
"p 	c #CDDBBA",
"q 	c #CBDAB8",
"r 	c #C6D6B1",
"s 	c #BDD0A5",
"t 	c #B9CDA0",
"u 	c #B5CB9B",
"v 	c #B2C896",
"w 	c #ADC690",
"x 	c #A9C38C",
"y 	c #A6BF86",
"z 	c #A2BD81",
"A 	c #9EBA7B",
"B 	c #99B775",
"C 	c #729B40",
"D 	c #477D07",
"E 	c #447806",
"F 	c #356304",
"G 	c #365F07",
"H 	c #83A65B",
"I 	c #BDD1A7",
"J 	c #BED1A7",
"K 	c #B5CA9A",
"L 	c #B1C895",
"M 	c #ADC590",
"N 	c #A9C28B",
"O 	c #A5BF86",
"P 	c #A1BC80",
"Q 	c #9DBA7A",
"R 	c #98B674",
"S 	c #95B46F",
"T 	c #90B069",
"U 	c #8CAE64",
"V 	c #87AA5C",
"W 	c #679431",
"X 	c #497F09",
"Y 	c #467D06",
"Z 	c #447906",
"` 	c #325F03",
" .	c #284E03",
"..	c #437708",
"+.	c #A4BF84",
"@.	c #B3C997",
"#.	c #A8C28A",
"$.	c #A4BE84",
"%.	c #A0BC7F",
"&.	c #9CB979",
"*.	c #93B36D",
"=.	c #8FB068",
"-.	c #8BAD61",
";.	c #86AA5B",
">.	c #81A656",
",.	c #7DA450",
"'.	c #7AA14C",
").	c #709A3E",
"!.	c #57891C",
"~.	c #477D06",
"{.	c #407404",
"].	c #2E5602",
"^.	c #396B04",
"/.	c #4F8212",
"(.	c #9BB878",
"_.	c #A3BD83",
":.	c #9AB678",
"<.	c #90A279",
"[.	c #899A74",
"}.	c #86976F",
"|.	c #829568",
"1.	c #7B915F",
"2.	c #81A555",
"3.	c #7CA34E",
"4.	c #789F48",
"5.	c #729C41",
"6.	c #6A913B",
"7.	c #5E763B",
"8.	c #567036",
"9.	c #486126",
"0.	c #3A5514",
"a.	c #3D660B",
"b.	c #477C06",
"c.	c #3C6F04",
"d.	c #2E5702",
"e.	c #427605",
"f.	c #538617",
"g.	c #7EA552",
"h.	c #91B169",
"i.	c #83A060",
"j.	c #D1D3CE",
"k.	c #EEEEEE",
"l.	c #EDEEEE",
"m.	c #EDEDED",
"n.	c #A9ADA0",
"o.	c #6D9739",
"p.	c #62912B",
"q.	c #5D8C25",
"r.	c #46671C",
"s.	c #D6D8D5",
"t.	c #E7E8E8",
"u.	c #E6E7E7",
"v.	c #778167",
"w.	c #467C06",
"x.	c #467B05",
"y.	c #3A6D03",
"z.	c #5C8C23",
"A.	c #759D45",
"B.	c #6E8E46",
"C.	c #CACCC6",
"D.	c #EBEBEB",
"E.	c #EAEBEB",
"F.	c #E9EAEA",
"G.	c #9BA191",
"H.	c #58881D",
"I.	c #4D810F",
"J.	c #487E08",
"K.	c #325604",
"L.	c #D3D5D2",
"M.	c #767F67",
"N.	c #3F7104",
"O.	c #264903",
"P.	c #3E7205",
"Q.	c #548719",
"R.	c #527923",
"S.	c #C2C4BE",
"T.	c #E8E9E9",
"U.	c #8E9483",
"V.	c #325704",
"W.	c #2B5203",
"X.	c #2C5202",
"Y.	c #437806",
"Z.	c #3B6705",
"`.	c #B6B4AB",
" +	c #E2DBDA",
".+	c #8C8E7D",
"++	c #CEC9C5",
"@+	c #767D63",
"#+	c #457B06",
"$+	c #2F5902",
"%+	c #2F5C03",
"&+	c #396503",
"*+	c #CA0800",
"=+	c #FF0000",
"-+	c #9C1101",
";+	c #315804",
">+	c #EA0300",
",+	c #821C02",
"'+	c #3A6C03",
")+	c #3B6D04",
"!+	c #3A6503",
"~+	c #C40901",
"{+	c #315904",
"]+	c #831D02",
"^+	c #3B6E04",
"/+	c #BD0A01",
"(+	c #325904",
"_+	c #831E02",
":+	c #3B7304",
"<+	c #3B6904",
"[+	c #B60B01",
"}+	c #841F02",
"|+	c #3B7A03",
"1+	c #356404",
"2+	c #3F7005",
"3+	c #B00C01",
"4+	c #315504",
"5+	c #852001",
"6+	c #467F05",
"7+	c #468105",
"8+	c #468405",
"9+	c #3A7E03",
"0+	c #2E5603",
"a+	c #437605",
"b+	c #AA0D01",
"c+	c #AB0D01",
"d+	c #427405",
"e+	c #2C4602",
"f+	c #F60100",
"g+	c #772601",
"h+	c #468305",
"i+	c #468605",
"j+	c #458805",
"k+	c #458C04",
"l+	c #448C04",
"m+	c #2E7003",
"n+	c #284A02",
"o+	c #427705",
"p+	c #437906",
"q+	c #A11101",
"r+	c #E90400",
"s+	c #375C04",
"t+	c #572C02",
"u+	c #563202",
"v+	c #458D04",
"w+	c #458F04",
"x+	c #459204",
"y+	c #449504",
"z+	c #419403",
"A+	c #2B6B03",
"B+	c #376703",
"C+	c #652102",
"D+	c #562902",
"E+	c #417605",
"F+	c #458105",
"G+	c #386603",
"H+	c #981201",
"I+	c #F90100",
"J+	c #3C5A03",
"K+	c #439704",
"L+	c #449903",
"M+	c #449C03",
"N+	c #429E03",
"O+	c #3C9703",
"P+	c #264B03",
"Q+	c #375504",
"R+	c #F10200",
"S+	c #A20F01",
"T+	c #8E1301",
"U+	c #BA0B01",
"V+	c #991101",
"W+	c #409303",
"X+	c #43A003",
"Y+	c #43A303",
"Z+	c #42A402",
"`+	c #40A303",
" @	c #2D7902",
".@	c #386803",
"+@	c #467E05",
"@@	c #468005",
"#@	c #447E04",
"$@	c #622202",
"%@	c #FB0100",
"&@	c #3E6202",
"*@	c #43A702",
"=@	c #42AA02",
"-@	c #42AD02",
";@	c #41AD02",
">@	c #38A003",
",@	c #254502",
"'@	c #3E7204",
")@	c #468705",
"!@	c #458A04",
"~@	c #397303",
"{@	c #662502",
"]@	c #E00500",
"^@	c #B80C01",
"/@	c #3C5202",
"(@	c #41AE02",
"_@	c #42B102",
":@	c #42B401",
"<@	c #41B501",
"[@	c #3CAD02",
"}@	c #236604",
"|@	c #244703",
"1@	c #3D7A04",
"2@	c #448F04",
"3@	c #449304",
"4@	c #449604",
"5@	c #439A03",
"6@	c #347003",
"7@	c #523402",
"8@	c #961501",
"9@	c #A60E01",
"0@	c #AB0E01",
"a@	c #7F1B01",
"b@	c #524902",
"c@	c #3CA001",
"d@	c #41B601",
"e@	c #41B801",
"f@	c #41BB01",
"g@	c #41BD01",
"h@	c #3FB801",
"i@	c #277203",
"j@	c #274D03",
"k@	c #3C8003",
"l@	c #429803",
"m@	c #439F03",
"n@	c #43A502",
"o@	c #43A802",
"p@	c #42AB02",
"q@	c #3FA702",
"r@	c #40A801",
"s@	c #41BA01",
"t@	c #41BF00",
"u@	c #40C200",
"v@	c #3FC300",
"w@	c #3DBA02",
"x@	c #297C03",
"y@	c #234D02",
"z@	c #367C02",
"A@	c #3F9E03",
"B@	c #41AA02",
"C@	c #42AE02",
"D@	c #42B201",
"E@	c #41B701",
"F@	c #41B901",
"G@	c #41BC01",
"H@	c #40C100",
"I@	c #40C400",
"J@	c #40C600",
"K@	c #40C800",
"L@	c #40C700",
"M@	c #3BB402",
"N@	c #247303",
"O@	c #2A6502",
"P@	c #3A9402",
"Q@	c #3EA802",
"R@	c #40B801",
"S@	c #40C000",
"T@	c #40C500",
"U@	c #40CA00",
"V@	c #40C900",
"W@	c #3EC600",
"X@	c #3DBD02",
"Y@	c #2B8702",
"Z@	c #113902",
"`@	c #112D02",
" #	c #1F5502",
".#	c #2C7E03",
"+#	c #39A603",
"@#	c #3AAD02",
"##	c #3CB502",
"$#	c #3CB802",
"%#	c #3CBA02",
"&#	c #3BB702",
"*#	c #309602",
"=#	c #226A02",
"-#	c #143E01",
";#	c #0B1E01",
">#	c #0F2C01",
",#	c #113301",
"'#	c #133A01",
")#	c #133B01",
"!#	c #071800",
"~#	c #020300",
"{#	c #000000",
"                                                                ",
"                          . + @ # $ %                           ",
"                    & * = - ; > , ' ) ! ~ {                     ",
"                ] ^ / ( _ : < [ } | 1 2 3 4 5 6                 ",
"              7 8 9 0 a b c d e f g h h i j k l m               ",
"            n o p q r e s t u v w x y z A B C D E F             ",
"          G H I J t K L M N O P Q R S T U V W X Y Z `           ",
"         ...+.@.M #.$.%.&.R *.=.-.;.>.,.'.).!.~.~.~.{.].        ",
"        ^./.(._.:.<.[.}.|.1.2.3.4.5.6.7.8.9.0.a.~.~.b.c.        ",
"      d.e.f.g.h.i.j.k.l.m.n.o.W p.q.r.s.t.u.u.v.w.~.~.x.m       ",
"      y.b.X z.A.B.C.D.E.F.G.H.f.I.J.K.L.u.u.u.M.w.~.~.~.N.      ",
"    O.P.w.~.~.Q.R.S.T.t.u.U.b.~.~.w.V.L.u.u.u.M.w.~.~.b.e.W.    ",
"    X.Y.~.~.~.~.Z.`. + + +.+b.~.~.w.V.++ + + +@+w.~.~.~.#+$+    ",
"    %+w.~.~.~.~.&+*+=+=+=+-+b.~.~.w.;+>+=+=+=+,+w.~.~.~.~.'+    ",
"    )+b.~.~.~.~.!+~+=+=+=+-+b.~.~.w.{+>+=+=+=+]+b.~.~.~.b.^+    ",
"    c.~.~.~.~.~.!+/+=+=+=+-+b.~.~.w.(+>+=+=+=+_+~.~.~.~.b.:+    ",
"    )+w.~.~.~.~.<+[+=+=+=+-+b.~.~.w.(+>+=+=+=+}+~.~.~.~.~.|+    ",
"    1+b.~.~.~.b.2+3+=+=+=+-+b.~.~.w.4+>+=+=+=+5+~.~.6+7+8+9+    ",
"    0+Y ~.~.~.~.a+b+=+=+=+c+d+~.~.b.e+f+=+=+=+g+h+i+j+k+l+m+    ",
"    n+o+b.~.~.Y p+q+=+=+=+r+s+~.~.w.t+=+=+=+=+u+v+w+x+y+z+A+    ",
"      B+~.~.~.~.x.C+=+=+=+=+D+E+F+G+H+=+=+=+I+J+K+L+M+N+O+      ",
"      P+o+b.~.~.~.Q+R+=+=+=+f+S+T+U+=+=+=+=+V+W+X+Y+Z+`+ @      ",
"        .@w.~.+@@@#@$@%@=+=+=+=+=+=+=+=+=+>+&@*@=@-@;@>@        ",
"        ,@'@h+)@!@k+~@{@]@=+=+=+=+=+=+=+^@/@(@_@:@<@[@}@        ",
"          |@1@2@3@4@L+5@6@7@8@9@c+0@a@b@c@d@e@f@g@h@i@          ",
"            j@k@l@m@Y+n@o@p@-@q@r@:@e@s@g@t@u@v@w@x@            ",
"              y@z@A@B@C@D@:@E@F@G@t@H@I@J@K@L@M@N@              ",
"                  O@P@Q@R@G@S@u@T@J@U@V@W@X@Y@Z@                ",
"                    `@ #.#+#@###$#%#&#*#=#-#                    ",
"                          ;#>#,#'#)#!#~#{#{#                    ",
"                                                                ",
"                                                                "};
