/* XPM */
static char *umplayer[] = {
/* columns rows colors chars-per-pixel */
"32 32 231 2",
"   c #000000",
".  c #010408",
"X  c #0C0C0C",
"o  c #111111",
"O  c #1D1D1D",
"+  c #061229",
"@  c #091429",
"#  c #061A38",
"$  c #081634",
"%  c #091A3C",
"&  c #141421",
"*  c #232323",
"=  c #26292A",
"-  c #2A2A2A",
";  c #353535",
":  c #3A3A3A",
">  c #0E2C4C",
",  c #0D2450",
"<  c #0E2758",
"1  c #0E3471",
"2  c #0F3D7A",
"3  c #333E41",
"4  c #3B3C43",
"5  c #285368",
"6  c #395E6A",
"7  c #7D4F39",
"8  c #444444",
"9  c #4B4B4B",
"0  c #544C4A",
"q  c #525252",
"w  c #5B5B5B",
"e  c #444E63",
"r  c #4F5F63",
"t  c #636363",
"y  c #61646B",
"u  c #6A6A6B",
"i  c #666F73",
"p  c #6A6A74",
"a  c #6A6F79",
"s  c #64767B",
"d  c #706D6C",
"f  c #737374",
"g  c #70707B",
"h  c #7C7877",
"j  c #7A7A7B",
"k  c #153E8A",
"l  c #16408F",
"z  c #164294",
"x  c #14479A",
"c  c #154BA4",
"v  c #184CA2",
"b  c #1A51AA",
"n  c #1454B4",
"m  c #1456B8",
"M  c #165BBC",
"N  c #274A8F",
"B  c #285C80",
"V  c #28539E",
"C  c #2962B8",
"Z  c #3E68B0",
"A  c #1661C5",
"S  c #1A62C4",
"D  c #1C67C9",
"F  c #267AD2",
"G  c #475A83",
"H  c #5B5B92",
"J  c #526DA3",
"K  c #687C82",
"L  c #727287",
"P  c #7B7C82",
"I  c #407ACD",
"U  c #7979CA",
"Y  c #2F83D6",
"T  c #3883D5",
"R  c #3B97DA",
"E  c #3C98DE",
"W  c #4EA4BF",
"Q  c #798593",
"!  c #6F8CBF",
"~  c #7686A6",
"^  c #7C8FB5",
"/  c #7B9CA4",
"(  c #63A3B6",
")  c #76A9B8",
"_  c #5380C5",
"`  c #5887CD",
"'  c #518BD6",
"]  c #579BDE",
"[  c #5E9ADC",
"{  c #58B5D4",
"}  c #5ABADA",
"|  c #4FB6EA",
" . c #5CA8E2",
".. c #50B8EB",
"X. c #5FBAEB",
"o. c #648AC6",
"O. c #6888C0",
"+. c #6A97D7",
"@. c #6E98D4",
"#. c #689BDC",
"$. c #7899CE",
"%. c #7E9ED2",
"&. c #60AFE6",
"*. c #6BA8E2",
"=. c #7CA9E1",
"-. c #71B9E9",
";. c #7DB4E6",
":. c #69C4EE",
">. c #77C7E3",
",. c #7EC6EE",
"<. c #79CCF2",
"1. c #8E5328",
"2. c #AC5D3E",
"3. c #94765C",
"4. c #AA755C",
"5. c #DF6C3F",
"6. c #DA7E30",
"7. c #E57233",
"8. c #E57C3C",
"9. c #FC7E38",
"0. c #B8885A",
"q. c #A38A6C",
"w. c #D48333",
"e. c #E7983F",
"r. c #ED953C",
"t. c #F48A36",
"y. c #FD8B34",
"u. c #FC8838",
"i. c #D38549",
"p. c #EE9B42",
"a. c #F29549",
"s. c #F29846",
"d. c #838383",
"f. c #82848A",
"g. c #8B8B8C",
"h. c #829499",
"j. c #8F9094",
"k. c #8B929B",
"l. c #929293",
"z. c #959598",
"x. c #979898",
"c. c #9A9A9B",
"v. c #8B8BB6",
"b. c #8692A0",
"n. c #8793AA",
"m. c #8C97AA",
"M. c #8C99AB",
"N. c #8D9CB2",
"B. c #929DA9",
"V. c #9A9BA1",
"C. c #88B3BF",
"Z. c #93A1A6",
"A. c #9FA0A4",
"S. c #A2948C",
"D. c #A69D99",
"F. c #A3A3A4",
"G. c #A4A5AB",
"H. c #ABABAC",
"J. c #AAACB2",
"K. c #A4B7BC",
"L. c #AFB0B3",
"P. c #B2B3B3",
"I. c #B3B4BB",
"U. c #BBBBBB",
"Y. c #8989CA",
"T. c #829CC8",
"R. c #9696F6",
"E. c #89A1C7",
"W. c #81A6DA",
"Q. c #8CAED7",
"!. c #93ACC8",
"~. c #9DA8C0",
"^. c #9DB1D2",
"/. c #86B1E2",
"(. c #80B9E8",
"). c #8FBFEA",
"_. c #A2A2CC",
"`. c #A0B9DD",
"'. c #A8BADA",
"]. c #B7B8C0",
"[. c #B9BCC3",
"{. c #BCBCCC",
"}. c #B1BCD2",
"|. c #A8A8F5",
" X c #82C2EC",
".X c #88D3F4",
"XX c #92CBEF",
"oX c #9CC8E4",
"OX c #9CD0ED",
"+X c #98D8EF",
"@X c #96D9F4",
"#X c #BFC1C6",
"$X c #B8C6DC",
"%X c #A4DEF4",
"&X c #B0C3E2",
"*X c #BBCAE2",
"=X c #C9AE92",
"-X c #DAB389",
";X c #EBE5BC",
":X c #C2C2C2",
">X c #C3C4CB",
",X c #CBCBCB",
"<X c #C6C8D2",
"1X c #C4CEDF",
"2X c #C8C8D2",
"3X c #CCCCDB",
"4X c #D3D3D3",
"5X c #D4D4DC",
"6X c #DBDBDB",
"7X c #C9CAE6",
"8X c #C2C2FF",
"9X c #CACAFF",
"0X c #CDD6E5",
"qX c #CED8EA",
"wX c #D6D6E2",
"eX c #DBDDE2",
"rX c #D9DCEC",
"tX c #D6D6FF",
"yX c #DADAF0",
"uX c #DADAFF",
"iX c #E2E2E2",
"pX c #E6E7E9",
"aX c #EAEAEA",
"sX c #E4E4F1",
"dX c #E6E6FF",
"fX c #E4E9F2",
"gX c #EAEBF5",
"hX c #EBEBFA",
"jX c #F3F4FC",
"kX c #FCFCFE",
"lX c None",
/* pixels */
"lXlXlXlXlXlXlXlXlXlXlXlXlXlX: : : : : lXlXlXlXlXlXlXlXlXlXlXlXlX",
"lXlXlXlXlXlXlXlXlXlXlX: q f j g.l.g.g.g.h t lXlXlXlXlXlXlXlXlXlX",
"lXlXlXlXlXlXlXlXlXlXq f l.l.j x.P.U.U.U.U.F.x.H.lXlXlXlXlXlXlXlX",
"lXlXlXlXlXlXlXlXlXw g.g.q d.:X4X,X,X4X4X:XA.U.,X,XlXlXlXlXlXlXlX",
"lXlXlXlXlXlXlXlXw l.f 8 U.P.l.D.,X4X4Xz.: ; 8 c.4X4XU.lXlXlXlXlX",
"lXlXlXlXlX  = 8 g.j 0 ,Xg.; ; ; t ,X#X: ; ; ; : P.6X4X,XlXlXlXlX",
"lXlXlXlX  : H.t g.8 ,X:X: ; ; ; ; b.A.; ; ; ; ; z.6X6X6XlXlXlXlX",
"lXlXlX. 9 Z.K.l.: H.,XJ.; ; ; ; ; q.U.; ; ; ; : P.iX6X6X6XlXlXlX",
"lXlX. 0 Z.OX+Xs w q.$XU.: : ; ; : F.6Xf ; ; ; j iXiXiXiX6X6XlXlX",
"lXX q M./.;.,.>./ 8 d.,Xl.: ; : h 4X6X6XP.x.P.iX4XH.P.iXiXiXlXlX",
"o w M.%.+.]  .X.} r j Q :XU.F.U.6X6X6X6XpXpXaXP.8 ; ; t iX6XlXlX",
"t P.^ O.U F T E | { ; X : x.4X6XU.D.S.j aXaXpX9 ; ; ; ; :XiXlXlX",
"9 P.a J Z C S F R ..{ * * ; U.H.4.8.i.4XU.aX4X; ; : ; ; F.iXiXlX",
"lX; w e N v n A F R 5 6 ; * j 5.9.u.a.=Xh aXiXH.].J.f.: P.iXaXlX",
"lXo O ; @ k v m M > 5 :.( 3 w 2.u.y.s.e.4XpXgX2Xj.j g.G.iXiXlXlX",
"lXlX      % k x # 2 Y X.<.) u 0 7.t.r.s.-X[.5Xl.y w u j 5XiXlXlX",
"lXlXlX      $ + 1 m D ] -..XC.x.7 6.6.0.q.U.H.f t t w d A.iXlXlX",
"lXlXlXlX      % z v m ' *. X@X/ 9 1.3.P H.4Xc.Y.U p t t f.[.lXlX",
"lXlXlXlXlX      , z b ` #.;.XX%XK u t A.I.,X{.9X8Xv.u t j I.lXlX",
"lXlXlXlXlXlX    . < V o.@.=.).oXi J.y J.3X,XrXdXjX7Xf t j A.lXlX",
"lXlXlXlXlXlXlX    . G ! $.=.Q.h.Q [.f wXsX>XhXjXkXgXj t j V.lXlX",
"lXlXlXlXlXlXlXlX  X y ~ E.E.k.!.k.>Xj wXhX,XjXkXkXgXQ u j V.lXlX",
"lXlXlXlXlXlXlXlXlX= w f n.k.^.^.Q ].u >XwX,XsXhXkXrXh t j V.lXlX",
"lXlXlXlXlXlXlXlXlXlX; w f.~.&X&XN.V.w J.[.,X3XtXuX_.d t j J.  lX",
"lXlXlXlXlXlXlXlXlXlXlX: d.c.$X$X$XB.f g.G.,XG.|.R.L u t j {.  lX",
"lXlXlXlXlXlXlXlXlXlXlXlX0 Q L.1XqX0XJ.j z.,XA.g p t w u c.H.& lX",
"lXlXlXlXlXlXlXlXlXlXlXlXlXw F.:XrXfXfXeXH.J.>Xf.t w t f >X4 H lX",
"lXlXlXlXlXlXlXlXlXlXlXlXlX* t P.6XgXjXkXc.f gXJ.j d f H.[.lXlXlX",
"lXlXlXlXlXlXlXlXlXlXlXlXlXlX- g.>XsXjXx.o X I.pX<X[.>X[.  lXlXlX",
"lXlXlXlXlXlXlXlXlXlXlXlXlXlXlX* q.0Xd.. lX    9 P j.t X lXlXlXlX",
"lXlXlXlXlXlXlXlXlXlXlXlXlXlXlXlX; q . lXlXlXlXlXlXlXlXlXlXlXlXlX",
"lXlXlXlXlXlXlXlXlXlXlXlXlXlXlXlXlXlXlXlXlXlXlXlXlXlXlXlXlXlXlXlX"
};
