/* XPM */
static char *kchmviewer[] = {
/* columns rows colors chars-per-pixel */
"32 32 172 2",
"   c #315343",
".  c #35634D",
"X  c #327C5A",
"o  c #42755D",
"O  c #4A7561",
"+  c #497963",
"@  c #5D766A",
"#  c #32855E",
"$  c #358761",
"%  c #368962",
"&  c #3B8A65",
"*  c #3E8C68",
"=  c #448064",
"-  c #418D6B",
";  c #46916E",
":  c #48926F",
">  c #5B8E76",
",  c #4C9373",
"<  c #519776",
"1  c #589277",
"2  c #549877",
"3  c #54967E",
"4  c #5B9B7D",
"5  c #62987F",
"6  c #1A62AC",
"7  c #1C62B1",
"8  c #2665AF",
"9  c #2969B4",
"0  c #2769B9",
"q  c #4976B7",
"w  c #4474BA",
"e  c #447CBD",
"r  c #4C79BC",
"t  c #477DC1",
"y  c #5D9D82",
"u  c #639D81",
"i  c #6A9A84",
"p  c #639D8A",
"a  c #7A9387",
"s  c #63A284",
"d  c #69A387",
"f  c #67A589",
"g  c #6CA68B",
"h  c #6FA98E",
"j  c #73A48D",
"k  c #78A18E",
"l  c #70A88E",
"z  c #6AA091",
"x  c #75AB92",
"c  c #7BAC95",
"v  c #73A598",
"b  c #7BAC9D",
"n  c #7AB097",
"m  c #7EB299",
"M  c #5283C1",
"N  c #4793D7",
"B  c #5894D6",
"V  c #678BC4",
"C  c #7094C9",
"Z  c #729BCB",
"A  c #609AD7",
"S  c #59A0DD",
"D  c #78B1E5",
"F  c #7DB9EB",
"G  c #7CBCF0",
"H  c #81A192",
"J  c #89A799",
"K  c #84AC99",
"L  c #8BAD9E",
"P  c #83B39C",
"I  c #84AFA6",
"U  c #9EA7A3",
"Y  c #87B5A0",
"T  c #8AB7A2",
"R  c #8DBAA5",
"E  c #8CB4AB",
"W  c #8FBAA8",
"Q  c #9CB1A7",
"!  c #99B5A8",
"~  c #94BCAA",
"^  c #9BBBAC",
"/  c #8AAEB3",
"(  c #8CB2B0",
")  c #96B5B7",
"_  c #96BAB3",
"`  c #9FBEB0",
"'  c #A0B4AB",
"]  c #A2B9AE",
"[  c #AEB6B2",
"{  c #A2BCB0",
"}  c #B0BDB7",
"|  c #B7BFBC",
" . c #9AC2AE",
".. c #9DC3B1",
"X. c #A5C4B6",
"o. c #ACC1B7",
"O. c #A4C8B7",
"+. c #A7CABA",
"@. c #ABCBBC",
"#. c #B5C5BE",
"$. c #819CCC",
"%. c #80A6D0",
"&. c #8AB1D6",
"*. c #8FB2DB",
"=. c #99B7D7",
"-. c #A5BDC5",
";. c #A4BCCC",
":. c #AABFCE",
">. c #A2B4D5",
",. c #A2B9DA",
"<. c #97BDE9",
"1. c #A2C0C0",
"2. c #A9C4C6",
"3. c #AECFC0",
"4. c #BDC5C1",
"5. c #B2CEC1",
"6. c #BFCCC6",
"7. c #B4D1C4",
"8. c #BBD6C9",
"9. c #BED8CC",
"0. c #BBCFD9",
"q. c #8CC0ED",
"w. c #85C3F4",
"e. c #A7CAEF",
"r. c #BCCFE3",
"t. c #B5D3EF",
"y. c #A0CAF0",
"u. c #A1D2F7",
"i. c #A8D2F3",
"p. c #B3DAF8",
"a. c #C7CBC8",
"s. c #C9CBCA",
"d. c #C3D5CC",
"f. c #CBD2CE",
"g. c #C1DACE",
"h. c #CDD5D1",
"j. c #C5DBD1",
"k. c #CBDDD5",
"l. c #D3D3D3",
"z. c #D2DBD7",
"x. c #D3DED8",
"c. c #DCDDDC",
"v. c #E0DFDF",
"b. c #CBE0D7",
"n. c #CEE1D8",
"m. c #D4E4DD",
"M. c #C5DAED",
"N. c #C8DFF4",
"B. c #C0DEF8",
"V. c #D7E7E0",
"C. c #DDE3E0",
"Z. c #DCEAE4",
"A. c #C7E1F9",
"S. c #C8E5F9",
"D. c #D3E4F4",
"F. c #D9E9F7",
"G. c #E4E5E4",
"H. c #E2EAE7",
"J. c #E8E7E8",
"K. c #E4EDE9",
"L. c #EBECEC",
"P. c #E7F0EC",
"I. c #EBF1EE",
"U. c #F0EFF0",
"Y. c #EDF3F0",
"T. c #F3F4F3",
"R. c #F8F7F7",
"E. c #F6F9F7",
"W. c #F8F7F8",
"Q. c #F7F9F8",
"!. c #FDFCFD",
"~. c None",
/* pixels */
"~.~.~.~.~.~.~.~.~.~.~.~.~.~.~.~.~.~.~.~.~.~.~.~.~.~.~.~.~.~.~.~.",
"~.~.~.~.~.~.~.~.~.~.~.~.~.~.~.~.~.~.~.~.~.~.~.~.~.~.~.~.~.~.~.~.",
"~.~.~.~.~.~.~.~.~.~.~.~.~.~.~.~.~.~.~.~.~.~.~.~.~.~.~.~.~.~.~.~.",
"~.~.~.~.~.~.~.~.~.~.~.~.~.~.~.- - ; ~.~.~.~.~.~.~.~.~.~.~.~.~.~.",
"~.~.~.~.~.~.~.~.~.~.~.~.~.~.- $ % & % * * ~.~.~.~.~.~.~.~.~.~.~.",
"~.~.~.~.~.~.~.~.~.~.~.~.y & - z E _ v , % % : , ~.~.~.~.~.~.~.~.",
"~.~.~.~.~.~.~.~.~.~.~.; - , 2.D.A.B.N.0.z & % % * - , ~.~.~.~.~.",
"~.~.~.~.~.~.~.~.~.~.; & * 1.B.u.p.S.i.e.r.3 % % % % & & * ~.~.~.",
"~.~.~.~.~.~.~.~.~.* & % p M.w.G q.t.F.D q.( % % % % # # 1 J ~.~.",
"~.~.~.~.~.~.2 , * & % # I e.N S F q.D.A B ;.* % % # & u 4.l.~.~.",
"~.~.~.- , , < * % % % % I *.6 &.r.=.Z 7 t ;.* $ % : x h.v.a.~.~.",
"~.~.O X & * % % % % % % z ,.8 <.%.e t 8 V / $ ; 4 P z.U.l.@ ~.~.",
"~.~.U O X % % % & % % % * 2.C M t 0 9 q >.v y g ~ C.R.G.a   ~.~.",
"~.~.[ > & $ $ % % % % % % y :.Z r w V >.) x x ..H.Q.L.H . ~.~.~.",
"~.~.4 R @.W P m x h f f h f b 2.:.;.-.E c n O.L.!.I.K o ~.~.~.~.",
"~.5 l 8.K.Y.I.Z.m.b.j.8.7.3....._ W Y m m @.I.!.Y.H = ~.~.~.~.~.",
"g o.6.{ ~ +.n.P.Y.P.Z.m.n.g.8.7.@... .Y 7.Y.!.I.K u < ~.~.~.~.~.",
"s 5.J.c.6.! K P @.m.P.K.Z.m.b.j.8.@.W 7.T.!.Y.P K j.7.f ~.~.~.~.",
"~.7.Q.T.L.G.f.^ j l R 8.Z.P.K.m.9. .8.E.!.I.P T m.P.Y.g.4 u ~.~.",
"~.7.!.!.Q.T.T.L.c.#.J g P +.j.k.O.g.E.!.I.P ..I.K.n.@.~ ~ H ~.~.",
"~.Y @.Z.E.!.!.Q.T.T.J.h.] L ~ X.j.Q.!.I.P  .m.@.T J ' #.s.Q ~.~.",
"~.~.~.g W 9.I.!.!.!.W.T.L.G.f.k.Q.!.P.c h T j k Q | l.l.c.] ~.~.",
"~.~.~.~.~.~.x  .b.Y.!.!.!.T.U.U.!.K.l < i J } h.c.v.G.L.L.o.~.~.",
"~.~.~.~.~.~.~.~.y c +.Z.E.!.E.T.Z.x i Q f.c.G.J.U.U.T.H.d.P ~.~.",
"~.~.~.~.~.~.~.~.~.~.~.< P 7.z.d.l ^ c.J.L.T.T.W.T.m.@.P 5 ~.~.~.",
"~.~.~.~.~.~.~.~.~.~.~.~.2 X.X.j X.L.T.W.Q.E.K.7.L g ~.~.~.~.~.~.",
"~.~.~.~.~.~.~.~.~.~.~.~.~.l z.K.T.!.Q.I.k. .c 4 ~.~.~.~.~.~.~.~.",
"~.~.~.~.~.~.~.~.~.~.~.~.~.~.d d.H.z.O.P 4 ~.~.~.~.~.~.~.~.~.~.~.",
"~.~.~.~.~.~.~.~.~.~.~.~.~.~.~.4 c g ~.~.~.~.~.~.~.~.~.~.~.~.~.~.",
"~.~.~.~.~.~.~.~.~.~.~.~.~.~.~.~.~.~.~.~.~.~.~.~.~.~.~.~.~.~.~.~.",
"~.~.~.~.~.~.~.~.~.~.~.~.~.~.~.~.~.~.~.~.~.~.~.~.~.~.~.~.~.~.~.~.",
"~.~.~.~.~.~.~.~.~.~.~.~.~.~.~.~.~.~.~.~.~.~.~.~.~.~.~.~.~.~.~.~."
};
