/* XPM */
static char * wakeonplan_xpm[] = {
"64 64 51 1",
" 	c None",
".	c #DEDEDE",
"+	c #F5F5F5",
"@	c #F9F9F9",
"#	c #F0F0F0",
"$	c #FAFAFA",
"%	c #FFFFFF",
"&	c #EEEEEE",
"*	c #DFDFDF",
"=	c #F7F7F7",
"-	c #E2E2E2",
";	c #F8F8F8",
">	c #E7E7E7",
",	c #E8E8E8",
"'	c #E4E4E4",
")	c #D0D0D0",
"!	c #EDEDED",
"~	c #F2F2F2",
"{	c #F6F6F6",
"]	c #E9E9E9",
"^	c #EBEBEB",
"/	c #FDFDFD",
"(	c #D2D2D2",
"_	c #DADADA",
":	c #D1D1D1",
"<	c #F4F4F4",
"[	c #D7D7D7",
"}	c #FCFCFC",
"|	c #EFEFEF",
"1	c #DDDDDD",
"2	c #FBFBFB",
"3	c #FEFEFE",
"4	c #E5E5E5",
"5	c #EAEAEA",
"6	c #D9D9D9",
"7	c #E0E0E0",
"8	c #F3F3F3",
"9	c #D5D5D5",
"0	c #D8D8D8",
"a	c #E3E3E3",
"b	c #F1F1F1",
"c	c #E1E1E1",
"d	c #DCDCDC",
"e	c #ECECEC",
"f	c #DBDBDB",
"g	c #CFCFCF",
"h	c #D4D4D4",
"i	c #E6E6E6",
"j	c #D3D3D3",
"k	c #CECECE",
"l	c #CDCDCD",
"                                                                ",
"                                                                ",
"                              .+@#                              ",
"                              $%%%&                             ",
"                             *%%%%=                             ",
"                             -%%%%;                             ",
"                             -%%%%;                             ",
"                             -%%%%;                             ",
"                             -%%%%;                             ",
"                             -%%%%;                             ",
"                      >#,    -%%%%;     -'                      ",
"                   )!$%%%~   -%%%%;    {%%@]                    ",
"                  ^$%%%%%/(  -%%%%;   ^%%%%%@]                  ",
"                _{%%%%%%%/:  -%%%%;   &%%%%%%%<[                ",
"               >}%%%%%%%%|   -%%%%;   1/%%%%%%%2>               ",
"              ^3%%%%%%%;>    -%%%%;    -{%%%%%%%3^              ",
"             &3%%%%%%{4      -%%%%;      '{%%%%%%3!             ",
"            &%%%%%%}^        -%%%%;        5}%%%%%%!            ",
"           >3%%%%%=6         -%%%%;         1=%%%%%3>           ",
"          7}%%%%%<           -%%%%;           +%%%%%}.          ",
"          @%%%%%~            -%%%%;            8%%%%%;          ",
"         |%%%%%{             -%%%%;             {%%%%%&         ",
"        ./%%%%@9             -%%%%;             9$%%%%}0        ",
"        <%%%%3a              -%%%%;              a3%%%%~        ",
"       13%%%%8               -%%%%;               ~%%%%/0       ",
"       b%%%%}[               -%%%%;               0}%%%%&       ",
"       $%%%%b    1^c         -%%%%;                #%%%%@       ",
"      '%%%%3d   1/%%<6       -%%%%;                d3%%%%a      ",
"      b%%%%{    e%%%%}&      -%%%%;                 {%%%%b      ",
"      ;%%%%e    c3%%%%%@4    -%%%%;                 e%%%%;      ",
"     :/%%%%.     4@%%%%%%<f  -%%%%;                 .%%%%/g     ",
"     1%%%%2        !/%%%%%}&gh3%%%;                  }%%%%1     ",
"     i%%%%=         j~3%%%%%$>]{%%;                  =%%%%4     ",
"     e%%%%+           a@%%%%%%<>&};                  +%%%%5     ",
"     !%%%%8             e}%%%%%/|>~                  8%%%%!     ",
"     &%%%%~              [83%%%%%<i                  ~%%%%&     ",
"     e%%%%8                ';%%%%}-                  8%%%%e     ",
"     5%%%%+                  ^}%%{.                  +%%%%5     ",
"     4%%%%;                   0||*                   ;%%%%a     ",
"     6%%%%}                                         k}%%%%6     ",
"     l}%%%%.                                        7%%%%}      ",
"      {%%%%&                                        &%%%%{      ",
"      &%%%%=                                        ;%%%%&      ",
"      7%%%%3.                                      .%%%%%.      ",
"       ;%%%%8                                      8%%%%;       ",
"       &%%%%/_                                    _/%%%%&       ",
"       h}%%%%<                                    <%%%%}h       ",
"        |%%%%%,                                  ,%%%%%|        ",
"        92%%%%}_                                f}%%%%2h        ",
"         5%%%%%;9                              h;%%%%%]         ",
"          +%%%%%{:                            ){%%%%%<          ",
"          9$%%%%%;0                          0;%%%%%$9          ",
"           -/%%%%%$4                        '$%%%%%/-           ",
"            >3%%%%%3#:                    :#3%%%%%3>            ",
"             >/%%%%%%2e)                ge2%%%%%%/]             ",
"              4}%%%%%%%2b.            .b2%%%%%%%}4              ",
"               1;%%%%%%%%%$<#,-**-,#<$%%%%%%%%%;1               ",
"                 #/%%%%%%%%%%%%%%%%%%%%%%%%%%/#                 ",
"                  1+3%%%%%%%%%%%%%%%%%%%%%%3+1                  ",
"                    -<3%%%%%%%%%%%%%%%%%%3<-                    ",
"                      6&;3%%%%%%%%%%%%3;&_                      ",
"                         [i&8{;$$;{8|,[                         ",
"                                                                ",
"                                                                "};
