/* XPM */
static char * azureus_xpm[] = {
"32 32 294 2",
"  	c None",
". 	c #C2CFDD",
"+ 	c #B5CEE5",
"@ 	c #94BBDB",
"# 	c #72A8D3",
"$ 	c #6FA8D5",
"% 	c #A0C6E2",
"& 	c #6C99CA",
"* 	c #3E7DBD",
"= 	c #2571B7",
"- 	c #2274BB",
"; 	c #2379BF",
"> 	c #237CC1",
", 	c #2380C4",
"' 	c #84AFCE",
") 	c #ACC3DD",
"! 	c #3873B8",
"~ 	c #2A6CB4",
"{ 	c #2870B9",
"] 	c #2974BB",
"^ 	c #2A78BE",
"/ 	c #297CC0",
"( 	c #2980C3",
"_ 	c #2883C6",
": 	c #1D74BC",
"< 	c #D1D7DF",
"[ 	c #5282BE",
"} 	c #2766B1",
"| 	c #2B6DB5",
"1 	c #2871B9",
"2 	c #2A74BB",
"3 	c #2880C3",
"4 	c #2983C5",
"5 	c #2287CA",
"6 	c #637AA7",
"7 	c #B7CAE3",
"8 	c #1D5CAB",
"9 	c #2A69B3",
"0 	c #258ACD",
"a 	c #416587",
"b 	c #6990C5",
"c 	c #2561AE",
"d 	c #2B69B3",
"e 	c #2489CB",
"f 	c #587C9B",
"g 	c #2D64AE",
"h 	c #2964AF",
"i 	c #2286C9",
"j 	c #7998B2",
"k 	c #B9CAE0",
"l 	c #235CAA",
"m 	c #2A65B0",
"n 	c #2286CB",
"o 	c #798CA0",
"p 	c #6086BF",
"q 	c #2960AC",
"r 	c #2B65B0",
"s 	c #2983C6",
"t 	c #2180C2",
"u 	c #6C7485",
"v 	c #A5B7D4",
"w 	c #3162AD",
"x 	c #2B62AD",
"y 	c #2582C6",
"z 	c #3F80B1",
"A 	c #4793BF",
"B 	c #8EA1CC",
"C 	c #315FAB",
"D 	c #2B5EAB",
"E 	c #2A62AE",
"F 	c #2B81C1",
"G 	c #B9D1E2",
"H 	c #234990",
"I 	c #2851A1",
"J 	c #2752A4",
"K 	c #2C5AA8",
"L 	c #2C5EAB",
"M 	c #267EC0",
"N 	c #6199C3",
"O 	c #2B4EA0",
"P 	c #2D52A3",
"Q 	c #2B57A5",
"R 	c #2B5BA8",
"S 	c #267EC1",
"T 	c #669FC9",
"U 	c #1F2532",
"V 	c #242B3B",
"W 	c #2A4B98",
"X 	c #2C53A3",
"Y 	c #2C5BA8",
"Z 	c #5096C9",
"` 	c #E7EDF2",
" .	c #2C4089",
"..	c #213982",
"+.	c #133174",
"@.	c #294D9D",
"#.	c #2C52A3",
"$.	c #2A78BD",
"%.	c #287CC1",
"&.	c #287FC2",
"*.	c #2C78BA",
"=.	c #313438",
"-.	c #D3E9F3",
";.	c #293B8A",
">.	c #2D4398",
",.	c #2D489C",
"'.	c #2B4B9E",
").	c #2C4FA0",
"!.	c #2B5DAA",
"~.	c #2A74BA",
"{.	c #2879BF",
"].	c #256499",
"^.	c #287CBC",
"/.	c #277DC4",
"(.	c #5C78AC",
"_.	c #8DA4C4",
":.	c #1F93D1",
"<.	c #61B6E0",
"[.	c #2C3F94",
"}.	c #2E4498",
"|.	c #2D489B",
"1.	c #2D4C9E",
"2.	c #2D4FA0",
"3.	c #2B56A5",
"4.	c #2B5AA7",
"5.	c #2577BD",
"6.	c #212630",
"7.	c #1F3A4E",
"8.	c #2B86C7",
"9.	c #2253AB",
"0.	c #BDBECE",
"a.	c #447AB7",
"b.	c #3490C3",
"c.	c #283786",
"d.	c #2D4095",
"e.	c #2C4B9E",
"f.	c #2A76BE",
"g.	c #22629C",
"h.	c #1B1D22",
"i.	c #1B1C1C",
"j.	c #2C6790",
"k.	c #2885CF",
"l.	c #2B4098",
"m.	c #7C7A81",
"n.	c #74828A",
"o.	c #2E6F94",
"p.	c #738289",
"q.	c #BBB8B4",
"r.	c #C9C8BB",
"s.	c #B9AFA6",
"t.	c #2B3A8D",
"u.	c #2E4096",
"v.	c #2971B9",
"w.	c #2772B9",
"x.	c #244364",
"y.	c #181819",
"z.	c #171716",
"A.	c #1E3240",
"B.	c #277FB9",
"C.	c #237FC6",
"D.	c #165197",
"E.	c #287BAD",
"F.	c #2E4C62",
"G.	c #43403F",
"H.	c #484268",
"I.	c #202D9C",
"J.	c #3480BD",
"K.	c #2C368E",
"L.	c #2E3D93",
"M.	c #2D4096",
"N.	c #2C4799",
"O.	c #2870B8",
"P.	c #26629E",
"Q.	c #1E3144",
"R.	c #303B4E",
"S.	c #373F51",
"T.	c #2F4761",
"U.	c #287AB3",
"V.	c #278BCB",
"W.	c #2791CF",
"X.	c #248CC8",
"Y.	c #31678D",
"Z.	c #356685",
"`.	c #327BA8",
" +	c #3CA2CD",
".+	c #48AFDA",
"++	c #2E388F",
"@+	c #2D3D93",
"#+	c #2A6CB5",
"$+	c #286EB5",
"%+	c #243D59",
"&+	c #1E3143",
"*+	c #1D496B",
"=+	c #1E4B6C",
"-+	c #2D658C",
";+	c #4080AB",
">+	c #4791C0",
",+	c #4393C3",
"'+	c #4896C3",
")+	c #5EA3C9",
"!+	c #91B8CC",
"~+	c #B8B5B3",
"{+	c #2B368A",
"]+	c #2D4B9E",
"^+	c #2A6AB3",
"/+	c #2C6EB4",
"(+	c #223E5C",
"_+	c #191818",
":+	c #151413",
"<+	c #1B1816",
"[+	c #484644",
"}+	c #908D8B",
"|+	c #B0AEAD",
"1+	c #ECE9E7",
"2+	c #212F71",
"3+	c #273D89",
"4+	c #2C479B",
"5+	c #2C4B9D",
"6+	c #2B66B1",
"7+	c #245FAE",
"8+	c #15356A",
"9+	c #282930",
"0+	c #181717",
"a+	c #191919",
"b+	c #505050",
"c+	c #939393",
"d+	c #000000",
"e+	c #294494",
"f+	c #2961AD",
"g+	c #2A6BB4",
"h+	c #1B419F",
"i+	c #040C16",
"j+	c #212530",
"k+	c #2A2A2E",
"l+	c #6E6E6E",
"m+	c #27438D",
"n+	c #2B59A6",
"o+	c #2B5DA9",
"p+	c #2B70B7",
"q+	c #276EB5",
"r+	c #1B4E82",
"s+	c #1D3B68",
"t+	c #343949",
"u+	c #7A7978",
"v+	c #14244C",
"w+	c #294E9E",
"x+	c #2C52A2",
"y+	c #2A77BF",
"z+	c #2574BD",
"A+	c #184C8A",
"B+	c #39393E",
"C+	c #737372",
"D+	c #929190",
"E+	c #9E9D9D",
"F+	c #254489",
"G+	c #2D52A2",
"H+	c #2A79BE",
"I+	c #267CC2",
"J+	c #2A3B52",
"K+	c #25201E",
"L+	c #3D4252",
"M+	c #4B4D5A",
"N+	c #BCBBBB",
"O+	c #254F9B",
"P+	c #2D57A6",
"Q+	c #287EC4",
"R+	c #2F587F",
"S+	c #33658F",
"T+	c #2C87C5",
"U+	c #91AABA",
"V+	c #44639D",
"W+	c #2E5CA7",
"X+	c #2A65B1",
"Y+	c #2973B9",
"Z+	c #286DAA",
"`+	c #2D72AA",
" @	c #4C8FC2",
".@	c #81B2D4",
"+@	c #2C446A",
"@@	c #2B4E84",
"#@	c #2E5B98",
"$@	c #3165A7",
"%@	c #2B69B1",
"&@	c #296CAF",
"*@	c #2C4469",
"=@	c #1E395D",
"-@	c #35414F",
";@	c #A3A4A3",
">@	c #193C63",
",@	c #225E99",
"'@	c #27547F",
")@	c #1A2E45",
"!@	c #1F2C41",
"~@	c #47586C",
"                                                                ",
"                                  . + @ # $ %                   ",
"                                & * = - ; > , '                 ",
"                            ) ! ~ { ] ^ / ( _ :                 ",
"                          < [ } | 1 2 ^ / 3 4 5 6               ",
"                          7 8 9 | 1 2 ^ / ( 4 0 a               ",
"                          b c d | 1 2 ^ / ( 4 e f               ",
"                          g h d | 1 2 ^ / ( 4 i j               ",
"                        k l m d | 1 2 ^ / 3 4 n o               ",
"                        p q r 9 | 1 2 ^ / ( s t u               ",
"                      v w x r d | 1 2 ^ / ( y z                 ",
"                  A B C D E r d | 1 2 ^ / 3 F G                 ",
"                H I J K L E r d | 1 2 ^ / M N                   ",
"                O P Q R L E r d | 1 2 ^ / S T                   ",
"            U V W X Q Y L E r d | 1 2 ^ / 3 Z `                 ",
"           ...+.@.#.Q Y L E r d | 1 2 $.%.&.*.=.        -.      ",
"        ;.>.,.'.).X Q Y !.E r d | 1 ~.{.].^./.(.      _.:.<.    ",
"        [.}.|.1.2.X 3.4.!.E r d | 1 2 5.6.7.8.9.0.    a.b.      ",
"      c.d.}.|.e.2.X Q Y L E r d | 1 f.g.h.i.j.k.l.m.n.o.p.q.r.s.",
"      t.u.}.|.e.2.X Q Y L E r d | v.w.x.y.z.A.B.C.D.E.F.G.H.I.J.",
"    K.L.M.}.N.e.2.X Q Y L E m d | O.P.Q.R.S.T.U.V.W.X.Y.Z.`. +.+",
"    ++@+u.}.|.e.2.X Q Y L E r 9 #+$+%+&+*+=+-+;+>+,+'+)+!+  ~+  ",
"    {+@+M.}.|.]+).X Q Y L E r ^+/+(+_+:+<+[+}+|+      1+        ",
"        2+3+4+5+2.X Q Y L E 6+7+8+9+0+a+b+c+d+                  ",
"            e+5+2.X Q 4.!.f+m g+h+i+j+k+l+d+d+                  ",
"              m+).X Q n+o+E r 9 p+q+r+s+t+u+                    ",
"              v+w+x+Q Y !.E m d | v.y+z+A+B+C+D+E+              ",
"                F+G+3.Y L E r d | 1 ~.H+I+J+K+L+M+N+            ",
"                  O+P+R L E r 9 | 1 2 $.Q+R+S+T+U+              ",
"                    V+W+D E X+9 | 1 Y+Z+`+ @.@                  ",
"                      +@@@#@$@%@| &@*@=@-@;@                    ",
"                                >@,@'@)@!@~@                    "};
