/* XPM */
static char * eiffelstudio_xpm[] = {
"48 48 256 2",
"  	c #FFFFFF",
". 	c #5090DE",
"+ 	c #CAD4E0",
"@ 	c #020202",
"# 	c #F4F6F8",
"$ 	c #D5DDE6",
"% 	c #A8C8EF",
"& 	c #7CACE6",
"* 	c #D3E3F7",
"= 	c #DEEAF9",
"- 	c #E9F1FB",
"; 	c #070B10",
"> 	c #BDD5F3",
", 	c #F4F8FD",
"' 	c #D6DEE7",
") 	c #669EE2",
"! 	c #9DC1EC",
"~ 	c #4B87D0",
"{ 	c #71A5E4",
"] 	c #0C141E",
"^ 	c #C8DCF5",
"/ 	c #5B97E0",
"( 	c #3D6DA7",
"_ 	c #87B3E8",
": 	c #2E527E",
"< 	c #244062",
"[ 	c #EFEFEF",
"} 	c #335B8C",
"| 	c #DFE5EC",
"1 	c #FCFDFD",
"2 	c #F5F7FA",
"3 	c #B2CEF1",
"4 	c #294970",
"5 	c #F5F7F9",
"6 	c #467EC3",
"7 	c #4175B5",
"8 	c #818181",
"9 	c #386499",
"0 	c #1F3755",
"a 	c #DFDFDF",
"b 	c #B0B0B0",
"c 	c #92BAEA",
"d 	c #515151",
"e 	c #1A2E47",
"f 	c #111D2B",
"g 	c #222222",
"h 	c #395980",
"i 	c #5783B9",
"j 	c #C0C0C0",
"k 	c #616161",
"l 	c #000000",
"m 	c #000000",
"n 	c #000000",
"o 	c #000000",
"p 	c #000000",
"q 	c #000000",
"r 	c #000000",
"s 	c #000000",
"t 	c #000000",
"u 	c #000000",
"v 	c #000000",
"w 	c #000000",
"x 	c #000000",
"y 	c #000000",
"z 	c #000000",
"A 	c #000000",
"B 	c #000000",
"C 	c #000000",
"D 	c #000000",
"E 	c #000000",
"F 	c #000000",
"G 	c #000000",
"H 	c #000000",
"I 	c #000000",
"J 	c #000000",
"K 	c #000000",
"L 	c #000000",
"M 	c #000000",
"N 	c #000000",
"O 	c #000000",
"P 	c #000000",
"Q 	c #000000",
"R 	c #000000",
"S 	c #000000",
"T 	c #000000",
"U 	c #000000",
"V 	c #000000",
"W 	c #000000",
"X 	c #000000",
"Y 	c #000000",
"Z 	c #000000",
"` 	c #000000",
" .	c #000000",
"..	c #000000",
"+.	c #000000",
"@.	c #000000",
"#.	c #000000",
"$.	c #000000",
"%.	c #000000",
"&.	c #000000",
"*.	c #000000",
"=.	c #000000",
"-.	c #000000",
";.	c #000000",
">.	c #000000",
",.	c #000000",
"'.	c #000000",
").	c #000000",
"!.	c #000000",
"~.	c #000000",
"{.	c #000000",
"].	c #000000",
"^.	c #000000",
"/.	c #000000",
"(.	c #000000",
"_.	c #000000",
":.	c #000000",
"<.	c #000000",
"[.	c #000000",
"}.	c #000000",
"|.	c #000000",
"1.	c #000000",
"2.	c #000000",
"3.	c #000000",
"4.	c #000000",
"5.	c #000000",
"6.	c #000000",
"7.	c #000000",
"8.	c #000000",
"9.	c #000000",
"0.	c #000000",
"a.	c #000000",
"b.	c #000000",
"c.	c #000000",
"d.	c #000000",
"e.	c #000000",
"f.	c #000000",
"g.	c #000000",
"h.	c #000000",
"i.	c #000000",
"j.	c #000000",
"k.	c #000000",
"l.	c #000000",
"m.	c #000000",
"n.	c #000000",
"o.	c #000000",
"p.	c #000000",
"q.	c #000000",
"r.	c #000000",
"s.	c #000000",
"t.	c #000000",
"u.	c #000000",
"v.	c #000000",
"w.	c #000000",
"x.	c #000000",
"y.	c #000000",
"z.	c #000000",
"A.	c #000000",
"B.	c #000000",
"C.	c #000000",
"D.	c #000000",
"E.	c #000000",
"F.	c #000000",
"G.	c #000000",
"H.	c #000000",
"I.	c #000000",
"J.	c #000000",
"K.	c #000000",
"L.	c #000000",
"M.	c #000000",
"N.	c #000000",
"O.	c #000000",
"P.	c #000000",
"Q.	c #000000",
"R.	c #000000",
"S.	c #000000",
"T.	c #000000",
"U.	c #000000",
"V.	c #000000",
"W.	c #000000",
"X.	c #000000",
"Y.	c #000000",
"Z.	c #000000",
"`.	c #000000",
" +	c #000000",
".+	c #000000",
"++	c #000000",
"@+	c #000000",
"#+	c #000000",
"$+	c #000000",
"%+	c #000000",
"&+	c #000000",
"*+	c #000000",
"=+	c #000000",
"-+	c #000000",
";+	c #000000",
">+	c #000000",
",+	c #000000",
"'+	c #000000",
")+	c #000000",
"!+	c #000000",
"~+	c #000000",
"{+	c #000000",
"]+	c #000000",
"^+	c #000000",
"/+	c #000000",
"(+	c #000000",
"_+	c #000000",
":+	c #000000",
"<+	c #000000",
"[+	c #000000",
"}+	c #000000",
"|+	c #000000",
"1+	c #000000",
"2+	c #000000",
"3+	c #000000",
"4+	c #000000",
"5+	c #000000",
"6+	c #000000",
"7+	c #000000",
"8+	c #000000",
"9+	c #000000",
"0+	c #000000",
"a+	c #000000",
"b+	c #000000",
"c+	c #000000",
"d+	c #000000",
"e+	c #000000",
"f+	c #000000",
"g+	c #000000",
"h+	c #000000",
"i+	c #000000",
"j+	c #000000",
"k+	c #000000",
"l+	c #000000",
"m+	c #000000",
"n+	c #000000",
"o+	c #000000",
"p+	c #000000",
"q+	c #000000",
"r+	c #000000",
"s+	c #000000",
"t+	c #000000",
"u+	c #000000",
"v+	c #000000",
"w+	c #000000",
"x+	c #000000",
"y+	c #000000",
"z+	c #000000",
"A+	c #000000",
"B+	c #000000",
"C+	c #000000",
"D+	c #000000",
"E+	c #000000",
"F+	c #000000",
"G+	c #000000",
"                                                                                                ",
"                                                                                                ",
"                                                                                                ",
"                                                                                                ",
"          . . . . . . . . . *                 . . . . . . . . . . . . . . . . . .               ",
"          . . . . . . . . .                   . . . . . . . . . . . . . . . . . .               ",
"          . . . . . . . . .                   . . . . . . . . . . . . . . . . . . # # # 1       ",
"          . . . . . . . . .                   { . . . . . . . . . . . . . . . . . $ $ ' 2       ",
"          . . . . . . . . .                   & . . . . . . . . . . . . . . . . . + + + #       ",
"          . . . . . . . . .                   ! . . . . . . . . . . . . . . . . . + + + #       ",
"          . . . . . . . . &                   % . . . . . . . . . . . . . . . . . + + + #       ",
"          . . . . . . . . ^                   ^ . . . . . . . . . . . . . . . . . + + + #       ",
"          . . . . . . . . -                   * . . . . . . . . . . . . . . . . . + + + #       ",
"          . . . . . . . )                     * . . . . . . . . . . . . . . . . . + + + #       ",
"          . . . . . . . 3                       . . . . . . . . . . . . . . . . . + + + #       ",
"          . . . . . . . =             *         . . . . . . . . . . . . . . . . . + + + #       ",
"          . . . . . . /               %         & . . . . . . . . . . . . . . . . + + + #       ",
"          . . . . . . >               % *       _ . . . . . . . . . . . . . . . . + + + #       ",
"          . . . . . . -               & *       % . . . . . . . . . . . . . . . . + + + #       ",
"          . . . . . .                 & *       % . . . . . . . . . . . . . . . . + + + #       ",
"          . . . . . .                 & %       * . . . . . . . . . . . . . . . . + + + #       ",
"          . . . . . /                 . %       = . . . . . . . . . . . . . . . . + + + #       ",
"          . . . . . !                 . %         . . . . . . . . . . . . . . . . + + + #       ",
"          . . . . &                   % >         & . . . . . . . . . . . . . . . + + + #       ",
"          . . . . >                               & . . . . . . . . . . . . . . . + + + #       ",
"          . . . )                                 ! . . . . . . . . . . . . . . . + + + #       ",
"          . . . ,                                 * . . . . . . . . . . . . . . . + + + #       ",
"          . . .                                   - . . . . . . . . . . . . . . . + + + #       ",
"          . . /                                     . . . . . . . . . . . . . . . + + + #       ",
"          . )                                       . . . . . . . . . . . . . . . + + + #       ",
"          . ^                                       . . . . . . . . . . . . . . . + + + #       ",
"          . =                                       . . . . . . . . . . . . . . . + + + #       ",
"          ,             j d @ @ @ @ k a             & . . < @ @ } . . . . . . . . + + + #       ",
"                      d @ @ @ @ @ 0 ( i             % . . : @ @ @ ( . . . . . . . + + + #       ",
"                    a @ @ @ @ @ @ ~ . . !           * . . . : @ @ ; ~ . . . . . . + + + #       ",
"                , { f @ @ @ @ @ ; . . . . / ,         & . . . 6 @ @ @ . . . . . . + + + #       ",
"                ! 7 @ @ @ @ @ @ < . . . . . %         % . . . . @ @ @ ~ . . . . . + + + #       ",
"                . < @ @ @ @ @ @ 9 . . . . . /         * . . . . ; @ @ 0 . . . . . + + + #       ",
"              % 7 @ @ @ @ @ @ @ . . . . . . .           _ . . . . ] @ @ ] . . . . + + + #       ",
"            - . < @ @ @ @ @ @ @ . . . . . . .           > . . . . 4 @ @ @ : . . . + + + #       ",
"            & . ] @ @ @ @ @ @ @ . . . . . . . -         - . . . . ~ ; @ @ ; . . . + + + #       ",
"              # + + + + + + + + + + + + + + + + + + + + + + + + + + + + + + + + + + + + #       ",
"              # + + + + + + + + + + + + + + + + + + + + + + + + + + + + + + + + + + + + #       ",
"              2 ' $ $ $ $ $ $ $ $ $ $ $ $ $ $ $ $ $ $ $ $ $ $ $ $ $ $ $ $ $ $ $ $ $ $ ' 2       ",
"                                                                                                ",
"                                                                                                ",
"                                                                                                ",
"                                                                                                "};
