/* XPM */
static char *lyx[] = {
/* columns rows colors chars-per-pixel */
"32 32 77 1",
"  c #B2DA2D0B0000",
". c #B8B22E700000",
"X c #BD7F2F7C0000",
"o c #BF9930860000",
"O c #C09530550000",
"+ c #C185307E0000",
"@ c #C2DF30D00000",
"# c #C4A931960000",
"$ c #C5DC31A20000",
"% c #C62E31EE0000",
"& c #C70A31FE0000",
"* c #CB4831720000",
"= c #C885324D0000",
"- c #C98632910000",
"; c #CBAC32540000",
": c #CAE632FE0000",
"> c #CBC6332F0000",
", c #CC8833660000",
"< c #CC7335340000",
"1 c #CDFB3B680000",
"2 c #CC5045580000",
"3 c #D11C46030000",
"4 c #D6B453E00000",
"5 c #DC9E62B30000",
"6 c #E37076A40000",
"7 c #AE5D96E92C08",
"8 c #E8BC88450000",
"9 c #E6CB983B0000",
"0 c #F1A69EEE0000",
"q c #D3EAA739110B",
"w c #E6B8ACE30000",
"e c #E98CAED40000",
"r c #F783AC7C0000",
"t c #EE4EB2A20000",
"y c #EE80B2810000",
"u c #F2AFB5FC0000",
"i c #FC17B6460000",
"p c #FAE6B81E0000",
"a c #F62DB8690000",
"s c #F796B9A20000",
"d c #FAAFBBD80000",
"f c #F8F9BB6001EA",
"g c #FDA3BB720000",
"h c #FD45BDB40000",
"j c #FDBDBE060000",
"k c #FEF1BECC0000",
"l c #FF5FBF670000",
"z c #FFF3BFD50000",
"x c #FFFFC0B80000",
"c c #FFFFC2C30000",
"v c #32B96C228D1F",
"b c #11A46347AD6D",
"n c #000061CACBE1",
"m c #00006708D06A",
"M c #00006C6DDAE3",
"N c #00006F0EDE7F",
"B c #0000702CE048",
"V c #00007197E3D8",
"C c #000072B1E5FE",
"Z c #00007482E9B1",
"A c #0000761DED3B",
"S c #00007678EDEF",
"D c #00007756EF96",
"F c #000078A3F203",
"G c #00007AB6F632",
"H c #00007B3EF719",
"J c #00007B99F80E",
"K c #00007BF4F891",
"L c #00007C37F903",
"P c #00007CFFF9E3",
"I c #00007CE0FAB9",
"U c #00007E8DFDEA",
"Y c #00007F02FE70",
"T c #00007EFCFEEE",
"R c #00007F1DFF20",
"E c #00007F90FFF3",
"W c None",
/* pixels */
"WWWWWWWWWWWWWWWWWWWWWWWWWWWWWWWW",
"WWWWWWWWWWWWWWWWWWWWWWWWWWWWWWWW",
"WWWWWWWWWWWWWWWWWWWWWWWWWWWWWWWW",
"WWWWWWWWWWWWWWWWWWWWWWWWWWWWWWWW",
"WWWWWWWWWWWWWWWWWWWWWWWWWWWWWWWW",
"WWWWWWWWWWWWWWWWWWWWWWWWWWWWWWWW",
"WWWWWWWWWWWWWWWWWWWWWWWWWWWWWWWW",
"WWWWWWWWWWWWWWWWWWWWWoWWWWWWWWWW",
"WWWWWWWWWWWWWWWWWWWWW#>>:WWWWWWW",
"WWWWLEWWWWWWWWWWWWWWW+>>>WWW>>>W",
"WWCUREWWWWWWWWWWWWWWWW=>>@X->>WW",
"WWZEEEEWWWWWWWWWWWWWWW+>>:&>>>WW",
"WWWFEEEWWWWWezzlWWWWWWW=>>>>:WWW",
"WWWDEEEWWWWWWdzzjWWuac92;>>>WWWW",
"WWWWUEEEWWWWWkzzaWWsxl81;>>>WWWW",
"WWWWKEERWWWWW7zzjWtzx03;,>>>WWWW",
"WWWWVEEEHWZBmvfzzkzxr4*:O=>>>WWW",
"WWWWWJEEIGUFMbqxzzxi5;>$W&>>>WWW",
"WWWWWAEEEEEJNnWkzzg6<>:WW =>>>WW",
"WWWWWSUEERYPWWWhzzpWWWWWWW$-:>WW",
"WWWWWWTUTLWWWWWzzlWWWWWWWWW.%:WW",
"WWWWWWWWWWWWWWwzzzWWWWWWWWWWWWWW",
"WWWWWWWWWWWWWWyzzzWWWWWWWWWWWWWW",
"WWWWWWWWWWWWWWhzlzWWWWWWWWWWWWWW",
"WWWWWWWWWWWWWWWWdWWWWWWWWWWWWWWW",
"WWWWWWWWWWWWWWWWWWWWWWWWWWWWWWWW",
"WWWWWWWWWWWWWWWWWWWWWWWWWWWWWWWW",
"WWWWWWWWWWWWWWWWWWWWWWWWWWWWWWWW",
"WWWWWWWWWWWWWWWWWWWWWWWWWWWWWWWW",
"WWWWWWWWWWWWWWWWWWWWWWWWWWWWWWWW",
"WWWWWWWWWWWWWWWWWWWWWWWWWWWWWWWW",
"WWWWWWWWWWWWWWWWWWWWWWWWWWWWWWWW"
};
