<?xml version="1.0" encoding="UTF-8" standalone="no"?>
<!-- Created with Inkscape (http://www.inkscape.org/) -->

<svg
   xmlns:dc="http://purl.org/dc/elements/1.1/"
   xmlns:cc="http://creativecommons.org/ns#"
   xmlns:rdf="http://www.w3.org/1999/02/22-rdf-syntax-ns#"
   xmlns:svg="http://www.w3.org/2000/svg"
   xmlns="http://www.w3.org/2000/svg"
   xmlns:xlink="http://www.w3.org/1999/xlink"
   xmlns:sodipodi="http://sodipodi.sourceforge.net/DTD/sodipodi-0.dtd"
   xmlns:inkscape="http://www.inkscape.org/namespaces/inkscape"
   width="45"
   height="48"
   id="svg3023"
   version="1.1"
   inkscape:version="0.48.4 r9939"
   sodipodi:docname="wagodict_icon.svg"
   inkscape:export-filename="/home/bosco/Projekte/wago-popup-dict/data/wago.png"
   inkscape:export-xdpi="90"
   inkscape:export-ydpi="90">
  <defs
     id="defs3025">
    <linearGradient
       id="linearGradient3807">
      <stop
         style="stop-color:#ffffff;stop-opacity:1;"
         offset="0"
         id="stop3809" />
      <stop
         style="stop-color:#b4b4b4;stop-opacity:1;"
         offset="1"
         id="stop3811" />
    </linearGradient>
    <linearGradient
       inkscape:collect="always"
       xlink:href="#linearGradient3807-5"
       id="linearGradient3813"
       x1="6.751483"
       y1="8.0781631"
       x2="99.601097"
       y2="36.551327"
       gradientUnits="userSpaceOnUse" />
    <linearGradient
       inkscape:collect="always"
       xlink:href="#linearGradient3807"
       id="linearGradient3833"
       gradientUnits="userSpaceOnUse"
       x1="4.40625"
       y1="30.944197"
       x2="38.625"
       y2="29.515625" />
    <linearGradient
       inkscape:collect="always"
       xlink:href="#linearGradient3807"
       id="linearGradient3837"
       gradientUnits="userSpaceOnUse"
       x1="4.40625"
       y1="30.944197"
       x2="38.625"
       y2="29.515625" />
    <linearGradient
       inkscape:collect="always"
       xlink:href="#linearGradient3807"
       id="linearGradient3839"
       gradientUnits="userSpaceOnUse"
       x1="4.40625"
       y1="30.944197"
       x2="38.625"
       y2="29.515625" />
    <linearGradient
       inkscape:collect="always"
       xlink:href="#linearGradient3807"
       id="linearGradient3841"
       gradientUnits="userSpaceOnUse"
       x1="4.40625"
       y1="30.944197"
       x2="38.625"
       y2="29.515625" />
    <linearGradient
       inkscape:collect="always"
       xlink:href="#linearGradient3807"
       id="linearGradient3843"
       gradientUnits="userSpaceOnUse"
       x1="4.40625"
       y1="30.944197"
       x2="38.625"
       y2="29.515625" />
    <linearGradient
       inkscape:collect="always"
       xlink:href="#linearGradient3807"
       id="linearGradient3845"
       gradientUnits="userSpaceOnUse"
       x1="4.40625"
       y1="30.944197"
       x2="38.625"
       y2="29.515625" />
    <linearGradient
       inkscape:collect="always"
       xlink:href="#linearGradient3807"
       id="linearGradient3847"
       gradientUnits="userSpaceOnUse"
       x1="4.40625"
       y1="30.944197"
       x2="38.625"
       y2="29.515625" />
    <linearGradient
       inkscape:collect="always"
       xlink:href="#linearGradient3807-5"
       id="linearGradient3813-9"
       x1="4.40625"
       y1="30.944197"
       x2="38.625"
       y2="29.515625"
       gradientUnits="userSpaceOnUse" />
    <linearGradient
       id="linearGradient3807-5">
      <stop
         style="stop-color:#ffffff;stop-opacity:1;"
         offset="0"
         id="stop3809-6" />
      <stop
         style="stop-color:#bebebe;stop-opacity:1;"
         offset="1"
         id="stop3811-1" />
    </linearGradient>
    <linearGradient
       id="linearGradient3868">
      <stop
         style="stop-color:#ffffff;stop-opacity:1;"
         offset="0"
         id="stop3870" />
      <stop
         style="stop-color:#000000;stop-opacity:0.2361809;"
         offset="1"
         id="stop3872" />
    </linearGradient>
    <linearGradient
       id="linearGradient3875">
      <stop
         style="stop-color:#ffffff;stop-opacity:1;"
         offset="0"
         id="stop3877" />
      <stop
         style="stop-color:#000000;stop-opacity:0.2361809;"
         offset="1"
         id="stop3879" />
    </linearGradient>
    <linearGradient
       id="linearGradient3882">
      <stop
         style="stop-color:#ffffff;stop-opacity:1;"
         offset="0"
         id="stop3884" />
      <stop
         style="stop-color:#000000;stop-opacity:0.2361809;"
         offset="1"
         id="stop3886" />
    </linearGradient>
    <linearGradient
       inkscape:collect="always"
       xlink:href="#linearGradient3807-5"
       id="linearGradient3835-1"
       gradientUnits="userSpaceOnUse"
       x1="4.40625"
       y1="30.944197"
       x2="38.625"
       y2="29.515625" />
    <linearGradient
       id="linearGradient3889">
      <stop
         style="stop-color:#ffffff;stop-opacity:1;"
         offset="0"
         id="stop3891" />
      <stop
         style="stop-color:#000000;stop-opacity:0.2361809;"
         offset="1"
         id="stop3893" />
    </linearGradient>
    <linearGradient
       id="linearGradient3896">
      <stop
         style="stop-color:#ffffff;stop-opacity:1;"
         offset="0"
         id="stop3898" />
      <stop
         style="stop-color:#000000;stop-opacity:0.2361809;"
         offset="1"
         id="stop3900" />
    </linearGradient>
    <linearGradient
       id="linearGradient3903">
      <stop
         style="stop-color:#ffffff;stop-opacity:1;"
         offset="0"
         id="stop3905" />
      <stop
         style="stop-color:#000000;stop-opacity:0.2361809;"
         offset="1"
         id="stop3907" />
    </linearGradient>
    <linearGradient
       id="linearGradient3910">
      <stop
         style="stop-color:#ffffff;stop-opacity:1;"
         offset="0"
         id="stop3912" />
      <stop
         style="stop-color:#000000;stop-opacity:0.2361809;"
         offset="1"
         id="stop3914" />
    </linearGradient>
    <linearGradient
       id="linearGradient3917">
      <stop
         style="stop-color:#ffffff;stop-opacity:1;"
         offset="0"
         id="stop3919" />
      <stop
         style="stop-color:#000000;stop-opacity:0.2361809;"
         offset="1"
         id="stop3921" />
    </linearGradient>
    <linearGradient
       id="linearGradient3924">
      <stop
         style="stop-color:#ffffff;stop-opacity:1;"
         offset="0"
         id="stop3926" />
      <stop
         style="stop-color:#000000;stop-opacity:0.2361809;"
         offset="1"
         id="stop3928" />
    </linearGradient>
    <linearGradient
       id="linearGradient3931">
      <stop
         style="stop-color:#ffffff;stop-opacity:1;"
         offset="0"
         id="stop3933" />
      <stop
         style="stop-color:#000000;stop-opacity:0.2361809;"
         offset="1"
         id="stop3935" />
    </linearGradient>
    <linearGradient
       y2="29.515625"
       x2="38.625"
       y1="30.944197"
       x1="4.40625"
       gradientUnits="userSpaceOnUse"
       id="linearGradient3948"
       xlink:href="#linearGradient3807-5"
       inkscape:collect="always"
       spreadMethod="pad" />
    <linearGradient
       inkscape:collect="always"
       xlink:href="#linearGradient3807"
       id="linearGradient4073"
       gradientUnits="userSpaceOnUse"
       x1="4.40625"
       y1="30.944197"
       x2="38.625"
       y2="29.515625" />
    <linearGradient
       inkscape:collect="always"
       xlink:href="#linearGradient3807"
       id="linearGradient3065"
       gradientUnits="userSpaceOnUse"
       x1="4.40625"
       y1="30.944197"
       x2="38.625"
       y2="29.515625" />
    <linearGradient
       y2="29.515625"
       x2="38.625"
       y1="30.944197"
       x1="4.40625"
       gradientUnits="userSpaceOnUse"
       id="linearGradient3948-2"
       xlink:href="#linearGradient3807-5-6"
       inkscape:collect="always"
       spreadMethod="pad" />
    <linearGradient
       id="linearGradient3807-5-6">
      <stop
         style="stop-color:#ffffff;stop-opacity:1;"
         offset="0"
         id="stop3809-6-3" />
      <stop
         style="stop-color:#bebebe;stop-opacity:1;"
         offset="1"
         id="stop3811-1-1" />
    </linearGradient>
    <linearGradient
       id="linearGradient3856">
      <stop
         style="stop-color:#ffffff;stop-opacity:1;"
         offset="0"
         id="stop3858" />
      <stop
         style="stop-color:#bebebe;stop-opacity:1;"
         offset="1"
         id="stop3860" />
    </linearGradient>
    <linearGradient
       id="linearGradient3863">
      <stop
         style="stop-color:#ffffff;stop-opacity:1;"
         offset="0"
         id="stop3865" />
      <stop
         style="stop-color:#bebebe;stop-opacity:1;"
         offset="1"
         id="stop3867" />
    </linearGradient>
    <linearGradient
       inkscape:collect="always"
       xlink:href="#linearGradient3807-5-6"
       id="linearGradient3835-1-3"
       gradientUnits="userSpaceOnUse"
       x1="4.40625"
       y1="30.944197"
       x2="38.625"
       y2="29.515625" />
    <linearGradient
       id="linearGradient3870">
      <stop
         style="stop-color:#ffffff;stop-opacity:1;"
         offset="0"
         id="stop3872-3" />
      <stop
         style="stop-color:#bebebe;stop-opacity:1;"
         offset="1"
         id="stop3874" />
    </linearGradient>
    <linearGradient
       id="linearGradient3877">
      <stop
         style="stop-color:#ffffff;stop-opacity:1;"
         offset="0"
         id="stop3879-0" />
      <stop
         style="stop-color:#bebebe;stop-opacity:1;"
         offset="1"
         id="stop3881" />
    </linearGradient>
    <linearGradient
       id="linearGradient3884">
      <stop
         style="stop-color:#ffffff;stop-opacity:1;"
         offset="0"
         id="stop3886-1" />
      <stop
         style="stop-color:#bebebe;stop-opacity:1;"
         offset="1"
         id="stop3888" />
    </linearGradient>
    <linearGradient
       id="linearGradient3891">
      <stop
         style="stop-color:#ffffff;stop-opacity:1;"
         offset="0"
         id="stop3893-3" />
      <stop
         style="stop-color:#bebebe;stop-opacity:1;"
         offset="1"
         id="stop3895" />
    </linearGradient>
    <linearGradient
       id="linearGradient3898">
      <stop
         style="stop-color:#ffffff;stop-opacity:1;"
         offset="0"
         id="stop3900-4" />
      <stop
         style="stop-color:#bebebe;stop-opacity:1;"
         offset="1"
         id="stop3902" />
    </linearGradient>
    <linearGradient
       id="linearGradient3905">
      <stop
         style="stop-color:#ffffff;stop-opacity:1;"
         offset="0"
         id="stop3907-2" />
      <stop
         style="stop-color:#bebebe;stop-opacity:1;"
         offset="1"
         id="stop3909" />
    </linearGradient>
    <linearGradient
       id="linearGradient3912">
      <stop
         style="stop-color:#ffffff;stop-opacity:1;"
         offset="0"
         id="stop3914-9" />
      <stop
         style="stop-color:#bebebe;stop-opacity:1;"
         offset="1"
         id="stop3916" />
    </linearGradient>
    <linearGradient
       y2="17.678612"
       x2="64.817528"
       y1="18.36698"
       x1="67.571007"
       spreadMethod="pad"
       gradientUnits="userSpaceOnUse"
       id="linearGradient3928"
       xlink:href="#linearGradient3807-5-6"
       inkscape:collect="always" />
  </defs>
  <sodipodi:namedview
     id="base"
     pagecolor="#ffffff"
     bordercolor="#666666"
     borderopacity="1.0"
     inkscape:pageopacity="0.0"
     inkscape:pageshadow="2"
     inkscape:zoom="2.8284271"
     inkscape:cx="-0.15611451"
     inkscape:cy="21.039771"
     inkscape:document-units="px"
     inkscape:current-layer="layer1"
     showgrid="false"
     inkscape:window-width="1366"
     inkscape:window-height="703"
     inkscape:window-x="0"
     inkscape:window-y="27"
     inkscape:window-maximized="1"
     inkscape:snap-page="false" />
  <metadata
     id="metadata3028">
    <rdf:RDF>
      <cc:Work
         rdf:about="">
        <dc:format>image/svg+xml</dc:format>
        <dc:type
           rdf:resource="http://purl.org/dc/dcmitype/StillImage" />
        <dc:title></dc:title>
      </cc:Work>
    </rdf:RDF>
  </metadata>
  <g
     inkscape:label="Ebene 1"
     inkscape:groupmode="layer"
     id="layer1"
     transform="translate(0,-1004.3622)">
    <g
       transform="matrix(0.60301592,0,0,0.60301592,1.5487976,1003.2939)"
       style="font-size:40px;font-style:normal;font-weight:bold;line-height:125%;letter-spacing:0px;word-spacing:0px;fill:url(#linearGradient3813);fill-opacity:1;fill-rule:nonzero;stroke:#000000;stroke-width:0.9999736;stroke-miterlimit:4;stroke-opacity:1;font-family:Meiryo;-inkscape-font-specification:Meiryo"
       id="flowRoot3031">
      <path
         d="M 9.8991992,23.506259 C 7.9990216,26.166505 6.2473031,28.179497 4.6440386,29.54524 L 1.7225257,26.588099 C 3.0051395,25.448004 4.3649481,23.89224 5.8019554,21.920803 7.25083,19.937513 8.3849934,18.037344 9.2044491,16.22029 l -6.0567952,0 0,-4.043801 6.7515453,0 0,-3.4024939 C 7.4764751,9.1778053 5.5822439,9.4331406 4.2165001,9.5400015 L 3.3792373,5.6387129 C 5.7188186,5.4130952 8.3077991,5.0271234 11.146186,4.4807961 13.99643,3.92265 16.211315,3.3347852 17.790847,2.7171999 l 1.99518,3.7587758 c -1.377641,0.4750689 -3.093732,0.9382351 -5.148276,1.3895001 l 0,4.3110132 4.756365,0 0,4.043801 -4.756365,0 0,0.445353 c 0.950071,1.116366 2.737418,2.731509 5.362045,4.845436 L 17.63052,25.412368 C 16.704171,24.67606 15.706583,23.767542 14.637751,22.68681 l 0,12.398616 -4.7385518,0 0,-11.579167 m 20.6109178,8.693282 -5.219532,0 0,1.906109 -4.952321,0 0,-28.5738218 15.141988,0 0,28.5738218 -4.970135,0 0,-1.906109 m -5.219532,-3.86566 5.219532,0 0,-18.9363923 -5.219532,0 0,18.9363923"
         style="font-size:36.483284px;fill:url(#linearGradient3065);stroke:#000000;font-family:Meiryo;-inkscape-font-specification:Meiryo"
         id="path3478" />
    </g>
    <g
       transform="matrix(0.51361015,0,0,0.51361015,1.5371948,1030.0222)"
       style="font-size:40px;font-style:normal;font-weight:normal;line-height:125%;letter-spacing:0px;word-spacing:0px;fill:url(#linearGradient3948);fill-opacity:1;stroke:#000000;stroke-opacity:1;font-family:Sans;-inkscape-font-specification:Sans"
       id="flowRoot3031-7">
      <path
         d="m 24.953125,36.179036 -5.996094,0 0,-2.96875 c -1.95314,1.588544 -3.424493,2.584636 -4.414062,2.988282 -0.989596,0.403645 -2.050793,0.605468 -3.183594,0.605468 -2.5911532,0 -4.6549532,-1.048176 -6.1914063,-3.144531 -1.5364605,-2.10937 -2.3046889,-4.973951 -2.3046874,-8.59375 -1.5e-6,-3.593735 0.9309872,-6.510399 2.7929687,-8.75 1.8619731,-2.252582 4.1731687,-3.378883 6.933594,-3.378906 0.989571,2.3e-5 1.894518,0.1107 2.714844,0.332031 0.820297,0.221377 2.037744,0.755231 3.652343,1.601563 l 0,-9.433594 5.996094,0 0,30.742187 m -5.996094,-5.800781 0,-12.246094 c -1.302099,-0.559877 -2.513036,-0.839824 -3.632812,-0.839843 -4.166677,1.9e-5 -6.2500079,2.539079 -6.2500002,7.617187 -7.7e-6,2.565113 0.4296794,4.42058 1.2890622,5.566406 0.859365,1.132818 2.20702,1.699223 4.042969,1.699219 1.380194,4e-6 2.89712,-0.598954 4.550781,-1.796875"
         style="font-weight:bold;fill:url(#linearGradient3835-1);stroke:#000000;font-family:Meiryo;-inkscape-font-specification:Meiryo Bold"
         id="path3469" />
      <path
         d="m 37.394531,10.729818 -6.425781,0 0,-5.292969 6.425781,0 0,5.292969 m -0.214844,25.449218 -5.996093,0 0,-22.617187 5.996093,0 0,22.617187"
         style="font-weight:bold;fill:url(#linearGradient3835-1);stroke:#000000;font-family:Meiryo;-inkscape-font-specification:Meiryo Bold"
         id="path3471" />
      <path
         d="m 61.085937,35.065755 c -2.526059,1.145834 -4.811213,1.71875 -6.855468,1.71875 -3.958344,0 -7.044278,-1.022135 -9.257813,-3.066406 -2.213544,-2.044266 -3.320314,-4.96093 -3.320312,-8.75 -2e-6,-3.815089 1.119789,-6.770815 3.359375,-8.867188 2.239576,-2.109352 5.234365,-3.164039 8.984375,-3.164062 2.4479,2.3e-5 4.811179,0.57945 7.089843,1.738281 l 0,5.507813 -0.3125,0 c -2.213559,-1.979149 -4.394547,-2.968731 -6.542968,-2.96875 -1.9922,1.9e-5 -3.541677,0.683612 -4.648438,2.050781 -1.106779,1.367203 -1.660164,3.268243 -1.660156,5.703125 -8e-6,2.434905 0.553377,4.303392 1.660156,5.605469 1.119781,1.289067 2.701811,1.933597 4.746094,1.933593 2.174463,4e-6 4.322898,-0.989578 6.445312,-2.96875 l 0.3125,0 0,5.527344"
         style="font-weight:bold;fill:url(#linearGradient3835-1);stroke:#000000;font-family:Meiryo;-inkscape-font-specification:Meiryo Bold"
         id="path3473" />
      <path
         d="m 78.585937,36.042318 c -1.601577,0.390624 -3.313815,0.585937 -5.136718,0.585937 -2.695321,0 -4.667976,-0.572916 -5.917969,-1.71875 -1.250004,-1.158852 -1.875004,-3.027339 -1.875,-5.605469 l 0,-11.777343 -2.96875,0 0,-3.964844 2.988281,0 0,-6.3476563 5.976563,0 0,6.3476563 6.933593,0 0,3.964844 -6.933593,0 0,9.316406 c -1e-5,2.39584 0.30598,3.958339 0.917968,4.6875 0.611969,0.729171 1.640613,1.093754 3.085938,1.09375 0.924465,4e-6 1.842433,-0.227861 2.753906,-0.683594 l 0.175781,0 0,4.101563"
         style="font-weight:bold;fill:url(#linearGradient3835-1);stroke:#000000;font-family:Meiryo;-inkscape-font-specification:Meiryo Bold"
         id="path3475" />
    </g>
    <text
       xml:space="preserve"
       style="font-size:40px;font-style:normal;font-weight:normal;line-height:125%;letter-spacing:0px;word-spacing:0px;fill:#000000;fill-opacity:1;stroke:none;font-family:Sans"
       x="-30.759146"
       y="-26.95332"
       id="text3067"
       sodipodi:linespacing="125%"
       transform="translate(0,1004.3622)"><tspan
         sodipodi:role="line"
         id="tspan3069"
         x="-30.759146"
         y="-26.95332" /><tspan
         sodipodi:role="line"
         id="tspan3071"
         x="-30.759146"
         y="23.04668" /></text>
    <g
       transform="matrix(0.51361015,0,0,0.51361015,21.863388,1012.2805)"
       style="font-size:40px;font-style:normal;font-weight:normal;line-height:125%;letter-spacing:0px;word-spacing:0px;fill:url(#linearGradient3928);fill-opacity:1;stroke:#000000;stroke-opacity:1;font-family:Sans;-inkscape-font-specification:Sans"
       id="flowRoot3031-7-4">
      <path
         d="m 40.207031,22.233724 -22.773437,0 0,-4.199219 4.335937,0 0.722656,-3.242187 -3.886718,0 0,-4.082032 4.804687,0 0.664063,-2.929687 -6.035157,0 0,-4.0429688 20.878907,0 0,4.0429688 -9.53125,0 -0.683594,2.929687 8.769531,0 0,7.324219 2.734375,0 0,4.199219 m -13.183594,-4.199219 5.527344,0 0,-3.242187 -4.785156,0 -0.742188,3.242187 M 16.632812,7.2727865 l -12.1093745,0 0,-3.4765625 12.1093745,0 0,3.4765625 m 0.957032,5.5468745 -14.433594,0 0,-3.9062495 14.433594,0 0,3.9062495 m -1.152344,5.136719 -11.875,0 0,-3.417969 11.875,0 0,3.417969 m 0,5.234375 -11.875,0 0,-3.4375 11.875,0 0,3.4375 m 16.757812,13.632813 -9.082031,0 0,1.210937 -4.921875,0 0,-13.652344 19.003906,0 0,13.652344 -5,0 0,-1.210937 m -9.082031,-3.964844 9.082031,0 0,-4.511719 -9.082031,0 0,4.511719 m -7.441406,3.808594 -7.9882812,0 0,1.445312 -4.6875,0 0,-13.125 12.6757812,0 0,11.679688 m -4.628906,-3.4375 0,-4.765625 -3.2031252,0 0,4.765625 3.2031252,0"
         style="font-weight:bold;fill:url(#linearGradient3835-1-3);stroke:#000000;font-family:Meiryo;-inkscape-font-specification:Meiryo Bold"
         id="path3466" />
    </g>
    <flowRoot
       xml:space="preserve"
       id="flowRoot3433"
       style="fill:black;stroke:none;stroke-opacity:1;stroke-width:1px;stroke-linejoin:miter;stroke-linecap:butt;fill-opacity:1;font-family:Sans;font-style:normal;font-weight:normal;font-size:40px;line-height:125%;letter-spacing:0px;word-spacing:0px"><flowRegion
         id="flowRegion3435"><rect
           id="rect3437"
           width="195.51503"
           height="229.80971"
           x="-85.913475"
           y="-140.09041" /></flowRegion><flowPara
         id="flowPara3439"></flowPara></flowRoot>  </g>
</svg>
