/* XPM */
static char * xvst_xpm[] = {
"48 48 892 2",
"  	c None",
". 	c #767676",
"+ 	c #A8A8A8",
"@ 	c #CACACA",
"# 	c #ECECEC",
"$ 	c #F8F8F8",
"% 	c #D2D2D2",
"& 	c #ADADAD",
"* 	c #919191",
"= 	c #D6D6D6",
"- 	c #F5F5F5",
"; 	c #FDFDFD",
"> 	c #FEFEFE",
", 	c #CBCBCB",
"' 	c #989898",
") 	c #787878",
"! 	c #979797",
"~ 	c #E2E2E2",
"{ 	c #FFFFFF",
"] 	c #FCFCFC",
"^ 	c #E9E9E9",
"/ 	c #C3C3C3",
"( 	c #ACACAC",
"_ 	c #ABABAB",
": 	c #A4A4A4",
"< 	c #828282",
"[ 	c #B5B5B5",
"} 	c #9C9C9C",
"| 	c #969696",
"1 	c #C9C9C9",
"2 	c #F9F9F9",
"3 	c #E0E0E0",
"4 	c #D3D3D3",
"5 	c #E1E1E1",
"6 	c #C2C2C2",
"7 	c #C6C6C6",
"8 	c #A5A5A5",
"9 	c #A0A0A0",
"0 	c #A6A6A6",
"a 	c #A3A3A3",
"b 	c #AEAEAE",
"c 	c #A2A2A2",
"d 	c #B4B4B4",
"e 	c #E8E8E8",
"f 	c #FAFAFA",
"g 	c #909090",
"h 	c #DADADA",
"i 	c #D1D1D1",
"j 	c #A1A1A1",
"k 	c #E5E5E5",
"l 	c #B8B8B8",
"m 	c #9B9B9B",
"n 	c #E3E3E3",
"o 	c #959595",
"p 	c #F6F6F6",
"q 	c #DCDCDC",
"r 	c #9F9F9F",
"s 	c #9A9A9A",
"t 	c #929292",
"u 	c #9D9D9D",
"v 	c #949494",
"w 	c #8C8C8C",
"x 	c #D5D5D5",
"y 	c #BBBBBB",
"z 	c #E7E7E7",
"A 	c #FBFBFB",
"B 	c #CECECE",
"C 	c #BCBCBC",
"D 	c #E4E4E4",
"E 	c #DBDBDB",
"F 	c #9E9E9E",
"G 	c #8D8D8D",
"H 	c #8E8E8E",
"I 	c #8F8F8F",
"J 	c #DEDEDE",
"K 	c #CDCDCD",
"L 	c #737373",
"M 	c #F3F3F3",
"N 	c #C7C7C7",
"O 	c #D8D8D8",
"P 	c #E6E6E6",
"Q 	c #D9D9D9",
"R 	c #BFBFBF",
"S 	c #999999",
"T 	c #8B8B8B",
"U 	c #CCCCCC",
"V 	c #F0F0F0",
"W 	c #EDEDED",
"X 	c #B1B1B1",
"Y 	c #656565",
"Z 	c #EBEBEB",
"` 	c #F4F4F4",
" .	c #939393",
"..	c #6D6D6D",
"+.	c #3E3E3E",
"@.	c #343435",
"#.	c #494949",
"$.	c #7B7B7B",
"%.	c #F1F1F1",
"&.	c #DFDFDF",
"*.	c #C0C0C0",
"=.	c #4D4D4D",
"-.	c #BEBEBE",
";.	c #B7B7B7",
">.	c #D7D7D7",
",.	c #C5C5C5",
"'.	c #707070",
").	c #454545",
"!.	c #383839",
"~.	c #423F49",
"{.	c #423D4C",
"].	c #3C3A40",
"^.	c #383838",
"/.	c #4F4F4F",
"(.	c #AAAAAA",
"_.	c #B0B0B0",
":.	c #EFEFEF",
"<.	c #D4D4D4",
"[.	c #292929",
"}.	c #878787",
"|.	c #414140",
"1.	c #393938",
"2.	c #545359",
"3.	c #777283",
"4.	c #868092",
"5.	c #767082",
"6.	c #757183",
"7.	c #5A5866",
"8.	c #424044",
"9.	c #373836",
"0.	c #575757",
"a.	c #B9B9B9",
"b.	c #C1C1C1",
"c.	c #C8C8C8",
"d.	c #8A8A8A",
"e.	c #A9A9A9",
"f.	c #B6B6B6",
"g.	c #868686",
"h.	c #383738",
"i.	c #47464A",
"j.	c #6A6879",
"k.	c #9C9AAD",
"l.	c #A4A5B3",
"m.	c #B7B6C3",
"n.	c #BFBECB",
"o.	c #ABAAB8",
"p.	c #9290A1",
"q.	c #817F95",
"r.	c #676473",
"s.	c #434346",
"t.	c #2F2F30",
"u.	c #565656",
"v.	c #DDDDDD",
"w.	c #C4C4C4",
"x.	c #AFAFAF",
"y.	c #7D7D7D",
"z.	c #5B5B5B",
"A.	c #363636",
"B.	c #47454B",
"C.	c #666372",
"D.	c #858295",
"E.	c #828599",
"F.	c #9DA0B1",
"G.	c #B4B5C4",
"H.	c #C0C1CE",
"I.	c #C0C3CF",
"J.	c #BFC0CD",
"K.	c #BFBCC8",
"L.	c #BAB7C3",
"M.	c #AFABB9",
"N.	c #898595",
"O.	c #5B5764",
"P.	c #37353B",
"Q.	c #323233",
"R.	c #696969",
"S.	c #6B6B6B",
"T.	c #424242",
"U.	c #39383F",
"V.	c #5B5973",
"W.	c #72718B",
"X.	c #8587A1",
"Y.	c #A3A7B8",
"Z.	c #A0A6B8",
"`.	c #A9AFC0",
" +	c #B3B8C8",
".+	c #B4B9C8",
"++	c #AFB4C5",
"@+	c #D3D3DF",
"#+	c #DFDEE8",
"$+	c #CAC8D5",
"%+	c #B1AFBE",
"&+	c #868396",
"*+	c #504A60",
"=+	c #2A2731",
"-+	c #414141",
";+	c #BABABA",
">+	c #525252",
",+	c #606060",
"'+	c #898989",
")+	c #888888",
"!+	c #464645",
"~+	c #31313C",
"{+	c #383D5B",
"]+	c #565D77",
"^+	c #69718A",
"/+	c #7F879F",
"(+	c #A6ADBF",
"_+	c #9FA7BB",
":+	c #9BA4B8",
"<+	c #BFC1CF",
"[+	c #DFE0EC",
"}+	c #B7B8CD",
"|+	c #A6A9C1",
"1+	c #9194AF",
"2+	c #8789A2",
"3+	c #726E82",
"4+	c #393640",
"5+	c #4A4B4A",
"6+	c #CFCFCF",
"7+	c #343434",
"8+	c #535353",
"9+	c #262830",
"0+	c #212A48",
"a+	c #4E5773",
"b+	c #5D6683",
"c+	c #6B7590",
"d+	c #737E99",
"e+	c #8690A7",
"f+	c #9099B0",
"g+	c #8791A9",
"h+	c #B9BDCD",
"i+	c #EEEEF4",
"j+	c #E8EAF3",
"k+	c #CFCEDA",
"l+	c #C1C2D0",
"m+	c #AAA9BA",
"n+	c #78778F",
"o+	c #414047",
"p+	c #595958",
"q+	c #474747",
"r+	c #777777",
"s+	c #7C7C7C",
"t+	c #505050",
"u+	c #3E3E46",
"v+	c #4D5170",
"w+	c #343E5F",
"x+	c #4C5777",
"y+	c #576280",
"z+	c #606B88",
"A+	c #65708D",
"B+	c #65728F",
"C+	c #7A829C",
"D+	c #E9EBF4",
"E+	c #EAEFF8",
"F+	c #F0F4F9",
"G+	c #F5F6FA",
"H+	c #D5D7E3",
"I+	c #BBBBCA",
"J+	c #72738E",
"K+	c #3D3D46",
"L+	c #3A3A3A",
"M+	c #747474",
"N+	c #595959",
"O+	c #404147",
"P+	c #525675",
"Q+	c #202B4F",
"R+	c #202D52",
"S+	c #3C496C",
"T+	c #465274",
"U+	c #4C5878",
"V+	c #4B5778",
"W+	c #C1C5D4",
"X+	c #F5F7FD",
"Y+	c #EFF1F9",
"Z+	c #ECEEF6",
"`+	c #E9ECF4",
" @	c #D4D6E2",
".@	c #B8B8C9",
"+@	c #9392A5",
"@@	c #434348",
"#@	c #818181",
"$@	c #838383",
"%@	c #353535",
"&@	c #7A7A7A",
"*@	c #6A6A6A",
"=@	c #5D5D5D",
"-@	c #565558",
";@	c #B4B3C3",
">@	c #72768F",
",@	c #202A4E",
"'@	c #101D45",
")@	c #1F2C53",
"!@	c #27345A",
"~@	c #2F3C61",
"{@	c #8F98B0",
"]@	c #E7EDFA",
"^@	c #D9DFEE",
"/@	c #D6DAE9",
"(@	c #D2D5E4",
"_@	c #CACEDE",
":@	c #BABCCD",
"<@	c #9696A9",
"[@	c #4B4B4E",
"}@	c #B2B2B2",
"|@	c #2B2B2B",
"1@	c #5A5A5D",
"2@	c #BABACC",
"3@	c #C2C4D4",
"4@	c #9EA1B5",
"5@	c #1B264C",
"6@	c #15234A",
"7@	c #233156",
"8@	c #1C2850",
"9@	c #142148",
"0@	c #364267",
"a@	c #222E54",
"b@	c #5D6788",
"c@	c #DADCEA",
"d@	c #C3C5D6",
"e@	c #AFB2C7",
"f@	c #7D7F96",
"g@	c #444448",
"h@	c #404040",
"i@	c #212121",
"j@	c #5F5F5F",
"k@	c #717171",
"l@	c #5F5F62",
"m@	c #BABACA",
"n@	c #C6C8D7",
"o@	c #CDCFDE",
"p@	c #B7B9CB",
"q@	c #576080",
"r@	c #14214A",
"s@	c #16234B",
"t@	c #17244C",
"u@	c #132149",
"v@	c #122147",
"w@	c #1D2A51",
"x@	c #B9BDD2",
"y@	c #BEBFD1",
"z@	c #ABACC1",
"A@	c #75798D",
"B@	c #4E4E50",
"C@	c #636363",
"D@	c #5D5D60",
"E@	c #A1A2B3",
"F@	c #CECFDD",
"G@	c #BBBFD2",
"H@	c #CACDDF",
"I@	c #757E9D",
"J@	c #19274E",
"K@	c #1C2A51",
"L@	c #1C2951",
"M@	c #232F56",
"N@	c #B1B6CB",
"O@	c #B3B5C9",
"P@	c #9FA2B7",
"Q@	c #444960",
"R@	c #525353",
"S@	c #858585",
"T@	c #D9D9D8",
"U@	c #E4E8EB",
"V@	c #DBE3EB",
"W@	c #DFEDF5",
"X@	c #545454",
"Y@	c #646464",
"Z@	c #D0D0D0",
"`@	c #7F8082",
" #	c #7A7C92",
".#	c #AEB0C3",
"+#	c #B5B7CB",
"@#	c #BAC2D7",
"##	c #364368",
"$#	c #222E55",
"%#	c #222E56",
"&#	c #212E54",
"*#	c #202D53",
"=#	c #1E2A51",
"-#	c #9DA5BE",
";#	c #A8AABF",
">#	c #727995",
",#	c #54596B",
"'#	c #A4A4A3",
")#	c #F2F2F2",
"!#	c #F7F7F7",
"~#	c #FBFBFA",
"{#	c #F9FAFB",
"]#	c #E4EDF5",
"^#	c #E7F2F9",
"/#	c #EDF7FC",
"(#	c #E3F2FA",
"_#	c #515151",
":#	c #616161",
"<#	c #CECDD0",
"[#	c #9D9DB0",
"}#	c #A5ABBF",
"|#	c #3E496B",
"1#	c #232E52",
"2#	c #263257",
"3#	c #263258",
"4#	c #263256",
"5#	c #242F54",
"6#	c #202C50",
"7#	c #485373",
"8#	c #979DB5",
"9#	c #A2A4B0",
"0#	c #E6E6E5",
"a#	c #E9F1F8",
"b#	c #DDEDF7",
"c#	c #EBF7FE",
"d#	c #EBF8FF",
"e#	c #EAF6FC",
"f#	c #DEF0F9",
"g#	c #191919",
"h#	c #5A5A5A",
"i#	c #222222",
"j#	c #BDBDBD",
"k#	c #B3B3B3",
"l#	c #686868",
"m#	c #4A4A4A",
"n#	c #C9C9C8",
"o#	c #ADB0BD",
"p#	c #565B76",
"q#	c #242D50",
"r#	c #273254",
"s#	c #283356",
"t#	c #283355",
"u#	c #242E50",
"v#	c #1E284A",
"w#	c #565C74",
"x#	c #C5C5CC",
"y#	c #D0D0CF",
"z#	c #F9FAFA",
"A#	c #D2E4F3",
"B#	c #E9FAFF",
"C#	c #E7F6FF",
"D#	c #E6F5FD",
"E#	c #E5F3FC",
"F#	c #DAEEF9",
"G#	c #161616",
"H#	c #6C6C6C",
"I#	c #D6D5D9",
"J#	c #696D83",
"K#	c #2A3150",
"L#	c #2B3353",
"M#	c #2B3252",
"N#	c #2F3653",
"O#	c #9294A3",
"P#	c #E1E2E3",
"Q#	c #797979",
"R#	c #C6D7E5",
"S#	c #C8D8E2",
"T#	c #C4D3DD",
"U#	c #DFEEF7",
"V#	c #E1F1FA",
"W#	c #D5EBF9",
"X#	c #242424",
"Y#	c #3B3B3B",
"Z#	c #272727",
"`#	c #3D3D3D",
" $	c #6E6E6E",
".$	c #FBFAFB",
"+$	c #9F9EAB",
"@$	c #4E5067",
"#$	c #42445E",
"$$	c #57596F",
"%$	c #C3C2CA",
"&$	c #F8F8F7",
"*$	c #E2ECF4",
"=$	c #C2D0D8",
"-$	c #A6B5BF",
";$	c #BBCBD6",
">$	c #D7E9F4",
",$	c #D0E9F8",
"'$	c #141414",
")$	c #666666",
"!$	c #151515",
"~$	c #5C5C5C",
"{$	c #808080",
"]$	c #C7C5CC",
"^$	c #7F7E8C",
"/$	c #E5E4E7",
"($	c #F4F4F3",
"_$	c #1A1A1A",
":$	c #0C0C0D",
"<$	c #A6B1B9",
"[$	c #EBFCFF",
"}$	c #C2D3DE",
"|$	c #B0C2CF",
"1$	c #CCDFED",
"2$	c #CCE6F8",
"3$	c #2A2A2A",
"4$	c #202020",
"5$	c #313131",
"6$	c #393939",
"7$	c #323232",
"8$	c #2E2E2E",
"9$	c #3F3F3F",
"0$	c #484848",
"a$	c #555555",
"b$	c #FEFDFE",
"c$	c #767576",
"d$	c #555455",
"e$	c #4E4E4E",
"f$	c #0C0C0C",
"g$	c #111112",
"h$	c #C0CDD3",
"i$	c #D1E2ED",
"j$	c #A2B5C2",
"k$	c #C2D6E3",
"l$	c #D2E7F7",
"m$	c #C8E3F6",
"n$	c #1E1E1E",
"o$	c #1C1C1C",
"p$	c #171818",
"q$	c #151618",
"r$	c #131415",
"s$	c #121213",
"t$	c #373737",
"u$	c #4C4C4C",
"v$	c #595C59",
"w$	c #365436",
"x$	c #4B514B",
"y$	c #EEEEEE",
"z$	c #0B0B0B",
"A$	c #929393",
"B$	c #D2DEE6",
"C$	c #9AADBA",
"D$	c #9DB0BE",
"E$	c #B2C7D5",
"F$	c #BFD6E6",
"G$	c #C4E1F4",
"H$	c #1B1A1A",
"I$	c #22282E",
"J$	c #384552",
"K$	c #4D5D6D",
"L$	c #4A5969",
"M$	c #2F3C48",
"N$	c #13171C",
"O$	c #201F1E",
"P$	c #333333",
"Q$	c #2F2F2F",
"R$	c #4B4B4B",
"S$	c #4B4E4B",
"T$	c #5A8E55",
"U$	c #4E804A",
"V$	c #414442",
"W$	c #4B4A4B",
"X$	c #101010",
"Y$	c #212222",
"Z$	c #6C7882",
"`$	c #869AA7",
" %	c #93A7B6",
".%	c #9FB5C5",
"+%	c #BBD2E4",
"@%	c #B9DAF3",
"#%	c #2D2D2D",
"$%	c #1E1D1D",
"%%	c #2C3844",
"&%	c #77889A",
"*%	c #B4BECA",
"=%	c #C7CED7",
"-%	c #CAD2D9",
";%	c #A8B3BE",
">%	c #68798B",
",%	c #192129",
"'%	c #161615",
")%	c #565556",
"!%	c #4E4D4E",
"~%	c #525152",
"{%	c #535253",
"]%	c #575657",
"^%	c #585858",
"/%	c #4E514E",
"(%	c #719A6B",
"_%	c #B6E1AC",
":%	c #508A4B",
"<%	c #434343",
"[%	c #181818",
"}%	c #0D0D0D",
"|%	c #090909",
"1%	c #030303",
"2%	c #6A7782",
"3%	c #8499A8",
"4%	c #8EA3B4",
"5%	c #9DB4C6",
"6%	c #B6CFE1",
"7%	c #A6D0EF",
"8%	c #282E34",
"9%	c #8090A1",
"0%	c #D1D7DF",
"a%	c #E7E9EC",
"b%	c #F3F4F5",
"c%	c #A0ADB7",
"d%	c #244E69",
"e%	c #64869C",
"f%	c #778496",
"g%	c #14181C",
"h%	c #111111",
"i%	c #1E1F1E",
"j%	c #505D50",
"k%	c #495948",
"l%	c #485947",
"m%	c #4A5A49",
"n%	c #4B5C4A",
"o%	c #4F5E4E",
"p%	c #4C5D4C",
"q%	c #495D48",
"r%	c #75A26F",
"s%	c #BBE3B1",
"t%	c #50804B",
"u%	c #424642",
"v%	c #A7A7A7",
"w%	c #171717",
"x%	c #121212",
"y%	c #050505",
"z%	c #697781",
"A%	c #8095A5",
"B%	c #8BA1B2",
"C%	c #99B1C4",
"D%	c #ABC8DF",
"E%	c #9AC8EC",
"F%	c #222223",
"G%	c #525E6B",
"H%	c #C2CAD4",
"I%	c #EAECEF",
"J%	c #FEFEFF",
"K%	c #D8DCDF",
"L%	c #254F6A",
"M%	c #7291A6",
"N%	c #C3CBD4",
"O%	c #C1C7D1",
"P%	c #3A4551",
"Q%	c #181E17",
"R%	c #76AA6E",
"S%	c #8DC881",
"T%	c #8CC880",
"U%	c #8EC883",
"V%	c #90C985",
"W%	c #92CA87",
"X%	c #93CB88",
"Y%	c #93CA88",
"Z%	c #9ED292",
"`%	c #A5D798",
" &	c #A5D898",
".&	c #92CE85",
"+&	c #386E33",
"@&	c #9A9D9A",
"#&	c #AFAEAF",
"$&	c #131313",
"%&	c #66747E",
"&&	c #7B92A2",
"*&	c #889FB1",
"=&	c #96AEC3",
"-&	c #9ABEDB",
";&	c #95C4E9",
">&	c #303030",
",&	c #262729",
"'&	c #76828F",
")&	c #D8DCE2",
"!&	c #F6F7F9",
"~&	c #6A8090",
"{&	c #0C4062",
"]&	c #435F78",
"^&	c #CFD1D8",
"/&	c #D3D5DD",
"(&	c #606C78",
"_&	c #151617",
":&	c #192019",
"<&	c #68A75C",
"[&	c #78C265",
"}&	c #79C266",
"|&	c #7FC56C",
"1&	c #85C771",
"2&	c #89CA75",
"3&	c #8BCB78",
"4&	c #8CCC78",
"5&	c #8ACB76",
"6&	c #86C873",
"7&	c #80C66E",
"8&	c #7AC268",
"9&	c #76C164",
"0&	c #6CBB5A",
"a&	c #60A758",
"b&	c #989998",
"c&	c #1B1A1B",
"d&	c #0E0E0E",
"e&	c #CCCCCD",
"f&	c #9CAAB6",
"g&	c #7E95A8",
"h&	c #859CB0",
"i&	c #8DA9C1",
"j&	c #8AB5D7",
"k&	c #92C0E7",
"l&	c #27292B",
"m&	c #7F8996",
"n&	c #DADBE2",
"o&	c #F3F3F5",
"p&	c #E5E7E8",
"q&	c #163B57",
"r&	c #1B4666",
"s&	c #31526E",
"t&	c #CBCED6",
"u&	c #D6D8DF",
"v&	c #697380",
"w&	c #171819",
"x&	c #192118",
"y&	c #4A983A",
"z&	c #4FAE37",
"A&	c #5AB23F",
"B&	c #64B848",
"C&	c #6CBC50",
"D&	c #71BF54",
"E&	c #75C057",
"F&	c #75C158",
"G&	c #73BF56",
"H&	c #6EBD51",
"I&	c #67BA4B",
"J&	c #5EB443",
"K&	c #52AE39",
"L&	c #48A82F",
"M&	c #44AB2B",
"N&	c #2B7522",
"O&	c #181C18",
"P&	c #161516",
"Q&	c #EEF2F5",
"R&	c #A0B5C8",
"S&	c #7B97AE",
"T&	c #769CBB",
"U&	c #85B0D4",
"V&	c #8EBCE3",
"W&	c #262728",
"X&	c #6B7683",
"Y&	c #D5D6DE",
"Z&	c #CDCFD5",
"`&	c #677889",
" *	c #083051",
".*	c #C0C6CF",
"+*	c #E2E1E6",
"@*	c #DCDCE2",
"#*	c #D0D2DA",
"$*	c #525D68",
"%*	c #192219",
"&*	c #338D1F",
"**	c #35A113",
"=*	c #42A71E",
"-*	c #4FAE2A",
";*	c #5AB433",
">*	c #62B83A",
",*	c #66BA3E",
"'*	c #67BB3E",
")*	c #63B93C",
"!*	c #5DB635",
"~*	c #53B02D",
"{*	c #47A922",
"]*	c #36A114",
"^*	c #249807",
"/*	c #169300",
"(*	c #118F00",
"_*	c #122411",
":*	c #909292",
"<*	c #647B8F",
"[*	c #6B8DA9",
"}*	c #7499B9",
"|*	c #83AED2",
"1*	c #8CB9E0",
"2*	c #3E474F",
"3*	c #BEC5D0",
"4*	c #6A7A8B",
"5*	c #002142",
"6*	c #8D9BAA",
"7*	c #DFDFE4",
"8*	c #DEDDE3",
"9*	c #A7B1BF",
"0*	c #262D33",
"a*	c #1B241A",
"b*	c #3B9222",
"c*	c #40A71A",
"d*	c #4EAE26",
"e*	c #5DB532",
"f*	c #69BC3E",
"g*	c #72C044",
"h*	c #76C349",
"i*	c #77C44A",
"j*	c #73C146",
"k*	c #6CBD40",
"l*	c #61B836",
"m*	c #54B12A",
"n*	c #43A71B",
"o*	c #32A00D",
"p*	c #31AA10",
"q*	c #457242",
"r*	c #1D1D1D",
"s*	c #686969",
"t*	c #1A1A1C",
"u*	c #5B7388",
"v*	c #698AA8",
"w*	c #7296B8",
"x*	c #80ABD0",
"y*	c #88B6DF",
"z*	c #282828",
"A*	c #5E6B77",
"B*	c #A0ABB9",
"C*	c #BAC0CB",
"D*	c #E2E2E7",
"E*	c #DCDCE3",
"F*	c #BBC3CE",
"G*	c #3F4B57",
"H*	c #181717",
"I*	c #1B1B1B",
"J*	c #1D251C",
"K*	c #499A2E",
"L*	c #58B52E",
"M*	c #68BD3C",
"N*	c #78C54B",
"O*	c #86CC58",
"P*	c #8FD060",
"Q*	c #95D366",
"R*	c #96D466",
"S*	c #91D263",
"T*	c #87CC59",
"U*	c #68BC3C",
"V*	c #5AB530",
"W*	c #5BBC30",
"X*	c #85B281",
"Y*	c #9F9BA0",
"Z*	c #191A1B",
"`*	c #6788A6",
" =	c #6F94B5",
".=	c #7DA7CD",
"+=	c #86B2DB",
"@=	c #464D56",
"#=	c #8A929B",
"$=	c #ADB3B9",
"%=	c #ACB1B8",
"&=	c #828A93",
"*=	c #363E45",
"==	c #191818",
"-=	c #1F1F1F",
";=	c #1F251D",
">=	c #599540",
",=	c #68A540",
"'=	c #71A44B",
")=	c #78A85A",
"!=	c #7EAB66",
"~=	c #81AD6C",
"{=	c #81AB6C",
"]=	c #81AA6B",
"^=	c #81AC6D",
"/=	c #96C977",
"(=	c #8DCF5C",
"_=	c #84CB54",
":=	c #7CBC50",
"<=	c #99B992",
"[=	c #F5F1F5",
"}=	c #1A1B1D",
"|=	c #6F94B4",
"1=	c #77A2CA",
"2=	c #72A5D6",
"3=	c #272829",
"4=	c #292B2C",
"5=	c #28292B",
"6=	c #222324",
"7=	c #222121",
"8=	c #79A960",
"9=	c #A7DC77",
"0=	c #ABD590",
"a=	c #28481F",
"b=	c #1C1C1E",
"c=	c #556D83",
"d=	c #4E7498",
"e=	c #3F6F9E",
"f=	c #3476B4",
"g=	c #2C2C2C",
"h=	c #262626",
"i=	c #252525",
"j=	c #232323",
"k=	c #8CB279",
"l=	c #B8D9AA",
"m=	c #1D451E",
"n=	c #D9DADA",
"o=	c #18191B",
"p=	c #274765",
"q=	c #184B7D",
"r=	c #1B558F",
"s=	c #528151",
"t=	c #CDCCCC",
"u=	c #2F3031",
"v=	c #305A82",
"w=	c #1E61A6",
"x=	c #444444",
"y=	c #2B67A1",
"                                              .                                                 ",
"                                        + @ # $ % &                                             ",
"                                    * = - ; > > ; , + '                                         ",
"                                ) ! ~ { ; > ; ] ^ / ( _ : <                                     ",
"                            [ / } | 1 { 2 3 4 5 6 7 = 8 9 0 a b c                               ",
"                        d e f ] 7 : g h i j c : & k l g m d 0 7 n % o                           ",
"                    8 e { ; # p q r ( s t s u u } v w a x y r z ; { A B !                       ",
"              o C D > { { 2 q & E F o 9 F o G H I s : + J k K > ; > > { 2 4 l                   ",
"          L 4 M > > > { N 0 O P Q R t o o s S T 9 ' t U V f ] > ; A > { > > f W X               ",
"          Y V Z z p ` W w I o ' !  . . .g ..+.@.#.$.g ' b - ] 2 $ Q %.&.- ] ; f *.              ",
"          =.-.' ;.>.,.! w I H I g o g '.).!.~.{.].^./.L (.$ >.@ O i -.R _.:.z <.|               ",
"          [.Q u } 9 B 0 }.G G G S . |.1.2.3.4.5.6.7.8.9.0.(.[ a.9 t b.D n K 1 c.d.              ",
"            e.%.e u ( f.*.o I g.).h.i.j.k.l.m.n.o.p.q.r.s.t.u.6 z v.W % w.x.b.N y.              ",
"            L * 1 b a _ S e.z.A.B.C.D.E.F.G.H.I.J.K.L.M.N.O.P.Q.R.= @ N 1 b.(.-.L               ",
"            S.y.e.@ }.+ 6 H T.U.V.W.X.Y.Z.`. +.+++@+#+$+%+&+*+=+-+7 1 c.1 1 ;+G >+              ",
"            ,+y.'+-.o )+I | !+~+{+]+^+/+(+(+_+:+<+[+}+|+1+2+3+4+5+6+c.c.c.c.@ b 7+              ",
"            8+$.) T ;.w._ G !+9+0+a+b+c+d+e+f+g+h+i+j+k+l+m+n+o+p+B c.c.c.c.1 f.                ",
"            q+r+r+s+d 1 c.-.t+u+v+w+x+y+z+A+B+C+D+E+F+G+H+I+J+K+..K c.c.c.c.1 b                 ",
"            L+M+L )+c.c.1 c.N+O+P+Q+R+S+T+U+V+W+X+Y+Z+`+ @.@+@@@#@U c.c.c.c.c.$@                ",
"            %@&@*@'+1 c.1 7 =@-@;@>@,@'@)@!@~@{@]@^@/@(@_@:@<@[@ .U c.c.@ -.}@=@                ",
"            |@$@'+S.;+1 1 7 *@1@2@3@4@5@6@7@8@9@0@a@b@c@d@e@f@g@9 @ c.U }@w.: h@                ",
"            i@j@r+I F / 1 7 k@l@m@n@o@p@q@r@s@t@u@v@w@x@y@z@A@B@_ @ w._ 7 i x.[.                ",
"              N+C@*@d.f._.w.M+D@E@F@G@H@I@J@K@w@L@J@M@N@O@P@Q@R@;.l X @ U B b.S@T@W U@V@W@      ",
"              X@C@Y@Y@t Z@: y.`@ #.#+#@###$#%#$#&#*#=#-#;#>#,#'#Z@= Z )#!#f f ~#{#]#^#/#(#      ",
"              _#:#S.k@Y@& ,.X x <#[#}#|#1#2#2#3#4#5#6#7#8#9#0#{ { { { > > > > a#b#c#d#e#f#      ",
"    =@g#h#, ,.=@i#Y j#k#l#m#T v.n#O o#p#q#r#s#t#r#u#v#w#x#y#% { ; ; ; ; > > z#A#B#C#D#E#F#      ",
"    ,.S@G#m#Z@6+H#i@0., &.&@^.$.w.x ~ I#J#K#L#M#K#N#O#P#Z@Q#f.{ > > { ; { ` q R#S#T#U#V#W#      ",
"    U 8 X#Y#,.= S@Z##.w.k I `# $b.c.= V .$+$@$#$$$%$&$K R.X@d > e v.&.= ..`#}@*$=$-$;$>$,$      ",
"    *@'$u.Q 3 )$!$~$*.b.'.h@{$&.b.,.}@| 6 { ]$^$/$($9 0.X@>+X Q ^._$w W C +.:$<$[$}$|$1$2$      ",
"    3$4$5$6$7$g#G#8$L+^.Y#9$0$,+/ r u.X@a$g :.b$J c$d$8+8+e$x.3 l 9$f$F f . g$h$i$j$k$l$m$      ",
"    3$n$o$_$g#p$q$r$s$4$t$A.3$-+' h#e$e$/.u$) }@v$w$x$/./.m#_ n N %@0$y$a z$A$B$C$D$E$F$G$      ",
"    |@4$n$H$I$J$K$L$M$N$O$P$Z#Q$>+R$R$u$=.e$X@X@S$T$U$V$W$).e.4 A.4$g }.X$!$Y$Z$`$ %.%+%@%      ",
"    #%i@$%%%&%*%=%-%;%>%,%'%g#i#)%e$!%t+~%{%]%^%/%(%_%:%V$<%+ x.[%'$!$}%f$|%1%2%3%4%5%6%7%      ",
"    8$i@8%9%0%a%b%c%d%e%f%g%h%i%j%k%l%m%n%n%o%p%q%r%s%_%t%u%v%& w%x%X$'$!$f$y%z%A%B%C%D%E%      ",
"    8$F%G%H%I%J%K%L%M%N%O%P%s$Q%R%S%T%U%V%W%X%Y%X%Z%`% &.&+&@&#&g#$&}%*@8 u.w%%&&&*&=&-&;&      ",
"    >&,&'&)&!&{ ~&{&]&^&/&(&_&:&<&[&}&|&1&2&3&4&5&6&7&8&9&0&a&b&c&!$d&o { ` e&f&g&h&i&j&k&      ",
"    5$l&m&n&o&p&q&r&s&t&u&v&w&x&y&z&A&B&C&D&E&F&G&H&I&J&K&L&M&N&O&P&X$| { ; { Q&R&S&T&U&V&      ",
"    7$W&X&Y&Z&`& *.*+*@*#*$*p$%*&***=*-*;*>*,*'*)*!*~*{*]*^*/*(*_*w%X$' { { p :*<*[*}*|*1*      ",
"    P$Z#2*3*4*5*6*7*@*8*9*0*g#a*b*c*d*e*f*g*h*i*j*k*l*m*n*o*p*q*r*[%x%S { V s*t*u*v*w*x*y*      ",
"    %@z*i#A*B*C*D*7*E*F*G*H*I*J*K*L*M*N*O*P*Q*R*S*T*i*U*V*W*X*Y*n$g#$&u y$:#x%Z*u*`* =.=+=      ",
"    %@3$[.i@@=#=$=%=&=*===-=r*;=>=,='=)=!=~={=]=^=/=(=_=:=<=[=} -=I*w%*@8+h%G#}=u*`*|=1=2=      ",
"    A.|@3$[.Z#3=4=5=6=7=i@4$-=i#                  8=9=0=a=Q )#s 4$o$I*o$g#[%w%b=c=d=e=f=        ",
"    6$Q$Q$#%g=g=|@[.z*Z#h=i=j=i=                  k=l=m=  n=)#' i@r*o$I*I*g#[%o=p=q=r=          ",
"                                                  s=      0 t=u i#n$n$o$g#_$i=u=v=w=            ",
"                                                              X@i#r*r*|@x=      y=              ",
"                                                                >&).                            ",
"                                                                                                ",
"                                                                                                "};
