/* XPM */
static char * synergy_xpm[] = {
"48 48 359 2",
"  	c None",
". 	c #A8C6C1",
"+ 	c #AFC4F0",
"@ 	c #B4C9F4",
"# 	c #CCDBF7",
"$ 	c #D7E4FB",
"% 	c #DAE5F9",
"& 	c #E1EAF5",
"* 	c #D4E0E2",
"= 	c #C5DAD7",
"- 	c #B4CFCB",
"; 	c #85ADA6",
"> 	c #7AA095",
", 	c #9FBDF4",
"' 	c #AFC9FC",
") 	c #BDD3FC",
"! 	c #BCD4FA",
"~ 	c #BFD6FA",
"{ 	c #C4DBFB",
"] 	c #D3E1F4",
"^ 	c #B2D6D6",
"/ 	c #A1C7C5",
"( 	c #9FC3C5",
"_ 	c #A4C5C6",
": 	c #90B9B6",
"< 	c #62968D",
"[ 	c #7FA69C",
"} 	c #96B8F5",
"| 	c #8EAFF9",
"1 	c #94B9FB",
"2 	c #8FB7FA",
"3 	c #8BB8FB",
"4 	c #8DBEFC",
"5 	c #8CC6FC",
"6 	c #9AC9FB",
"7 	c #BAD3ED",
"8 	c #63BCBF",
"9 	c #30A3A0",
"0 	c #3A9F9B",
"a 	c #479997",
"b 	c #589695",
"c 	c #669D9A",
"d 	c #548E8B",
"e 	c #5D8D85",
"f 	c #99B7F2",
"g 	c #78A0FA",
"h 	c #709EF8",
"i 	c #699BFD",
"j 	c #74ADFD",
"k 	c #84BFFC",
"l 	c #93CCFD",
"m 	c #A3D5FF",
"n 	c #BBDDFF",
"o 	c #D6E4F7",
"p 	c #8CD7D7",
"q 	c #42BEBA",
"r 	c #2AAEAB",
"s 	c #259E9B",
"t 	c #258E8A",
"u 	c #237A77",
"v 	c #2B7674",
"w 	c #3B7B78",
"x 	c #437F72",
"y 	c #A0BCF3",
"z 	c #6293FE",
"A 	c #5D91FD",
"B 	c #5F97FD",
"C 	c #77ADFC",
"D 	c #8CC4FD",
"E 	c #A2CBF7",
"F 	c #B6C6E2",
"G 	c #9BA5B3",
"H 	c #898C93",
"I 	c #838387",
"J 	c #848582",
"K 	c #85938C",
"L 	c #8AB2AB",
"M 	c #57BAB2",
"N 	c #31A8A3",
"O 	c #20928C",
"P 	c #1C7675",
"Q 	c #1A6665",
"R 	c #236866",
"S 	c #568A83",
"T 	c #6696FA",
"U 	c #558BFE",
"V 	c #5D91FC",
"W 	c #6DA8FE",
"X 	c #8CC0FE",
"Y 	c #A4BCDD",
"Z 	c #A1A9B4",
"` 	c #8B8C8B",
" .	c #9B9C9C",
"..	c #78A6A4",
"+.	c #47ADA6",
"@.	c #1F8B87",
"#.	c #1C706F",
"$.	c #17615E",
"%.	c #21665F",
"&.	c #79A29A",
"*.	c #84A8F8",
"=.	c #568AFE",
"-.	c #588DFC",
";.	c #659DFC",
">.	c #81B4FD",
",.	c #A7BDE2",
"'.	c #9D9FA5",
").	c #829A96",
"!.	c #44A39B",
"~.	c #217C7B",
"{.	c #186963",
"].	c #175D5F",
"^.	c #317368",
"/.	c #6697F8",
"(.	c #5587FE",
"_.	c #5892FD",
":.	c #6BA5FC",
"<.	c #9EBAF1",
"[.	c #9A9996",
"}.	c #7FA29C",
"|.	c #2B8A87",
"1.	c #1A6F6D",
"2.	c #17615F",
"3.	c #185D59",
"4.	c #67948C",
"5.	c #99B4EF",
"6.	c #5389FC",
"7.	c #5489FE",
"8.	c #5C94FC",
"9.	c #7EA9FC",
"0.	c #A1ACB7",
"a.	c #ACADA9",
"b.	c #589990",
"c.	c #1A706E",
"d.	c #186260",
"e.	c #175D5A",
"f.	c #36736B",
"g.	c #7FA2F3",
"h.	c #5186FC",
"i.	c #558AFE",
"j.	c #5F94FE",
"k.	c #89A9DF",
"l.	c #8AA49E",
"m.	c #1F7370",
"n.	c #176260",
"o.	c #175F5D",
"p.	c #256964",
"q.	c #86A59E",
"r.	c #6896FB",
"s.	c #5286FC",
"t.	c #568AFD",
"u.	c #5C94F9",
"v.	c #A1B2DC",
"w.	c #AFB1B2",
"x.	c #347B72",
"y.	c #18605E",
"z.	c #185F5C",
"A.	c #1D6461",
"B.	c #6B9990",
"C.	c #BDC6DD",
"D.	c #6D9DFD",
"E.	c #6392FA",
"F.	c #6393FA",
"G.	c #6D98F7",
"H.	c #A7B8DB",
"I.	c #548C83",
"J.	c #276C6A",
"K.	c #296C6B",
"L.	c #2D706E",
"M.	c #739D94",
"N.	c #C5C6C4",
"O.	c #98C1B1",
"P.	c #91B8AB",
"Q.	c #91B7AB",
"R.	c #96BBAE",
"S.	c #B9C8C0",
"T.	c #85ADAF",
"U.	c #5D96A4",
"V.	c #6198A8",
"W.	c #689CA9",
"X.	c #95B6B6",
"Y.	c #BCC6AE",
"Z.	c #96C336",
"`.	c #84B72D",
" +	c #80B52A",
".+	c #86B833",
"++	c #B3C680",
"@+	c #6B9FBA",
"#+	c #4388AD",
"$+	c #478CB1",
"%+	c #4F93B8",
"&+	c #91B2C3",
"*+	c #BCC5AC",
"=+	c #97C22C",
"-+	c #7DB313",
";+	c #74AF13",
">+	c #77AF1A",
",+	c #A3C45D",
"'+	c #4C8CAD",
")+	c #327DA7",
"!+	c #3683AC",
"~+	c #4191B5",
"{+	c #8EB3BF",
"]+	c #A7C749",
"^+	c #87B718",
"/+	c #79B016",
"(+	c #75AD16",
"_+	c #99C052",
":+	c #9BB6C0",
"<+	c #3382A9",
"[+	c #367EA9",
"}+	c #3A89B0",
"|+	c #4E9CBC",
"1+	c #9FBAC1",
"2+	c #AFC079",
"3+	c #96C21A",
"4+	c #80B51B",
"5+	c #76AF11",
"6+	c #84B62E",
"7+	c #5D96B1",
"8+	c #327DA9",
"9+	c #3885AC",
"0+	c #4095B6",
"a+	c #6AA9C3",
"b+	c #B2BCBF",
"c+	c #B1BC93",
"d+	c #A8CB36",
"e+	c #90BF19",
"f+	c #7DB118",
"g+	c #73AF12",
"h+	c #99C14A",
"i+	c #7BADBF",
"j+	c #3D82AD",
"k+	c #3682A8",
"l+	c #3E8FB4",
"m+	c #4BA3C0",
"n+	c #8DB8C5",
"o+	c #B1C55F",
"p+	c #A3CA22",
"q+	c #8BBC1C",
"r+	c #7DB113",
"s+	c #76B015",
"t+	c #A2C255",
"u+	c #9BBAC2",
"v+	c #478AAE",
"w+	c #3583A5",
"x+	c #3C8DB5",
"y+	c #44A2BF",
"z+	c #72B8D0",
"A+	c #A7ADB0",
"B+	c #B2BB8D",
"C+	c #B5D339",
"D+	c #A5CA1C",
"E+	c #8DBC1D",
"F+	c #7CB318",
"G+	c #78B118",
"H+	c #A1C555",
"I+	c #8BB4C7",
"J+	c #468AAB",
"K+	c #3582AA",
"L+	c #3E8DB2",
"M+	c #47A2BD",
"N+	c #5BB6CF",
"O+	c #95B3B9",
"P+	c #AEBB73",
"Q+	c #BDDC33",
"R+	c #A8CE1C",
"S+	c #93C01D",
"T+	c #81B617",
"U+	c #78B315",
"V+	c #8EBB39",
"W+	c #A2C751",
"X+	c #AFD26A",
"Y+	c #74A3BD",
"Z+	c #609AB5",
"`+	c #458AAF",
" @	c #3B88B0",
".@	c #4193B7",
"+@	c #48A8C4",
"@@	c #55BAD1",
"#@	c #8BB9C4",
"$@	c #A8ACAE",
"%@	c #B8B9B4",
"&@	c #A8B36C",
"*@	c #C3DE35",
"=@	c #B3D421",
"-@	c #9FC81C",
";@	c #8FBD19",
">@	c #8ABA25",
",@	c #92C037",
"'@	c #90BD39",
")@	c #8FBF3A",
"!@	c #99C682",
"~@	c #6CA5B4",
"{@	c #589AB7",
"]@	c #639CBF",
"^@	c #589DBD",
"/@	c #4695B6",
"(@	c #45A1BE",
"_@	c #50B3CD",
":@	c #59BFD4",
"<@	c #8FC5D7",
"[@	c #9EA8A8",
"}@	c #AAAAA9",
"|@	c #AFB971",
"1@	c #C6DB3D",
"2@	c #C1DC28",
"3@	c #B3D420",
"4@	c #A3C920",
"5@	c #9AC525",
"6@	c #A5CC42",
"7@	c #BAD86B",
"8@	c #CFE0C1",
"9@	c #ADD1DD",
"0@	c #7EBAD1",
"a@	c #5AA8C6",
"b@	c #4AA5C1",
"c@	c #4FB3CB",
"d@	c #58C1D5",
"e@	c #67C7D9",
"f@	c #97C3CD",
"g@	c #929697",
"h@	c #A8AF81",
"i@	c #B7C857",
"j@	c #CCE439",
"k@	c #C6E126",
"l@	c #BFDA1F",
"m@	c #B8D41E",
"n@	c #B5D42D",
"o@	c #BFD89F",
"p@	c #82C4D2",
"q@	c #4EBBD0",
"r@	c #55BFD6",
"s@	c #59C9DB",
"t@	c #6ED0E2",
"u@	c #84C8D6",
"v@	c #93AEB5",
"w@	c #9C9A9B",
"x@	c #A5A7A0",
"y@	c #959B76",
"z@	c #B7C660",
"A@	c #D3EB4D",
"B@	c #CFE639",
"C@	c #CEE73C",
"D@	c #D6E9BB",
"E@	c #A0DAE6",
"F@	c #6FD6E0",
"G@	c #85D5E4",
"H@	c #95CAD6",
"I@	c #8B9EA3",
"J@	c #929798",
"K@	c #98989B",
"L@	c #878882",
"M@	c #A7AD82",
"N@	c #B0B5A4",
"O@	c #A4ADAD",
"P@	c #929B9F",
"Q@	c #8B8F8E",
"R@	c #8C8D8B",
"                                                                                                ",
"                                                                                                ",
"                                                                                                ",
"                                                                                                ",
"                                                                                                ",
"                                                                                                ",
"                                                                                                ",
"                                                                                                ",
"                                                                                                ",
"                                                                                                ",
"                                                  .                                             ",
"                                      + @ # $ % & * = - ; >                                     ",
"                                    , ' ) ! ~ { ] ^ / ( _ : < [                                 ",
"                                } | 1 2 3 4 5 6 7 8 9 0 a b c d e                               ",
"                              f g h i j k l m n o p q r s t u v w x                             ",
"                            y z A B C D E F G H I J K L M N O P Q R S                           ",
"                            T U V W X Y Z `              ...+.@.#.$.%.&.                        ",
"                          *.=.-.;.>.,.'.                    ).!.~.{.].^.                        ",
"                          /.(._.:.<.[.                        }.|.1.2.3.4.                      ",
"                        5.6.7.8.9.0.                          a.b.c.d.e.f.                      ",
"                        g.h.i.j.k.                              l.m.n.o.p.q.                    ",
"                        r.s.t.u.v.                              w.x.y.z.A.B.                    ",
"                      C.D.E.F.G.H.                                I.J.K.L.M.                    ",
"                      N.O.P.Q.R.S.                                T.U.V.W.X.                    ",
"                      Y.Z.`. +.+++                                @+#+$+%+&+                    ",
"                      *+=+-+;+>+,+                                '+)+!+~+{+                    ",
"                        ]+^+/+(+_+                              :+<+[+}+|+1+                    ",
"                        2+3+4+5+6+                              7+8+9+0+a+b+                    ",
"                        c+d+e+f+g+h+                          i+j+k+l+m+n+                      ",
"                          o+p+q+r+s+t+                      u+v+w+x+y+z+A+                      ",
"                          B+C+D+E+F+G+H+                  I+J+K+L+M+N+O+                        ",
"                            P+Q+R+S+T+U+V+W+X+        Y+Z+`+ @.@+@@@#@$@                        ",
"                            %@&@*@=@-@;@>@,@'@)@!@~@{@]@^@/@(@_@:@<@[@                          ",
"                              }@|@1@2@3@4@5@6@7@8@9@0@a@b@c@d@e@f@g@                            ",
"                                  h@i@j@k@l@m@n@o@p@q@r@s@t@u@v@w@                              ",
"                                    x@y@z@A@B@C@D@E@F@G@H@I@J@                                  ",
"                                        K@L@y@M@N@O@P@Q@R@                                      ",
"                                                                                                ",
"                                                                                                ",
"                                                                                                ",
"                                                                                                ",
"                                                                                                ",
"                                                                                                ",
"                                                                                                ",
"                                                                                                ",
"                                                                                                ",
"                                                                                                ",
"                                                                                                "};
