/* XPM */
static char * main_ico_xpm[] = {
"48 48 129 2",
"  	c None",
". 	c #000000",
"+ 	c #FFFFFF",
"@ 	c #A4A4A4",
"# 	c #A2A2A2",
"$ 	c #A1A1A1",
"% 	c #A0A0A0",
"& 	c #9F9F9F",
"* 	c #9E9E9E",
"= 	c #9D9D9D",
"- 	c #9C9C9C",
"; 	c #9B9B9B",
"> 	c #9A9A9A",
", 	c #999999",
"' 	c #989898",
") 	c #979797",
"! 	c #969696",
"~ 	c #959595",
"{ 	c #949494",
"] 	c #939393",
"^ 	c #929292",
"/ 	c #919191",
"( 	c #909090",
"_ 	c #8F8F8F",
": 	c #8E8E8E",
"< 	c #8D8D8D",
"[ 	c #8C8C8C",
"} 	c #8B8B8B",
"| 	c #8A8A8A",
"1 	c #898989",
"2 	c #888888",
"3 	c #878787",
"4 	c #868686",
"5 	c #858585",
"6 	c #848484",
"7 	c #838383",
"8 	c #828282",
"9 	c #818181",
"0 	c #808080",
"a 	c #7F7F7F",
"b 	c #7E7E7E",
"c 	c #7D7D7D",
"d 	c #7C7C7C",
"e 	c #7B7B7B",
"f 	c #7A7A7A",
"g 	c #797979",
"h 	c #787878",
"i 	c #777777",
"j 	c #767676",
"k 	c #757575",
"l 	c #747474",
"m 	c #737373",
"n 	c #727272",
"o 	c #717171",
"p 	c #707070",
"q 	c #6F6F6F",
"r 	c #6E6E6E",
"s 	c #6D6D6D",
"t 	c #6C6C6C",
"u 	c #6B6B6B",
"v 	c #6A6A6A",
"w 	c #696969",
"x 	c #686868",
"y 	c #676767",
"z 	c #666666",
"A 	c #656565",
"B 	c #646464",
"C 	c #636363",
"D 	c #626262",
"E 	c #616161",
"F 	c #606060",
"G 	c #5F5F5F",
"H 	c #5E5E5E",
"I 	c #5D5D5D",
"J 	c #5C5C5C",
"K 	c #5B5B5B",
"L 	c #5A5A5A",
"M 	c #595959",
"N 	c #585858",
"O 	c #575757",
"P 	c #565656",
"Q 	c #555555",
"R 	c #545454",
"S 	c #535353",
"T 	c #525252",
"U 	c #515151",
"V 	c #505050",
"W 	c #4F4F4F",
"X 	c #4E4E4E",
"Y 	c #4D4D4D",
"Z 	c #4C4C4C",
"` 	c #4B4B4B",
" .	c #4A4A4A",
"..	c #494949",
"+.	c #484848",
"@.	c #474747",
"#.	c #464646",
"$.	c #454545",
"%.	c #444444",
"&.	c #434343",
"*.	c #424242",
"=.	c #414141",
"-.	c #404040",
";.	c #3F3F3F",
">.	c #3E3E3E",
",.	c #3D3D3D",
"'.	c #3C3C3C",
").	c #3B3B3B",
"!.	c #3A3A3A",
"~.	c #393939",
"{.	c #383838",
"].	c #373737",
"^.	c #363636",
"/.	c #353535",
"(.	c #343434",
"_.	c #333333",
":.	c #323232",
"<.	c #313131",
"[.	c #303030",
"}.	c #2F2F2F",
"|.	c #2E2E2E",
"1.	c #2D2D2D",
"2.	c #2C2C2C",
"3.	c #2B2B2B",
"4.	c #2A2A2A",
"5.	c #292929",
"6.	c #282828",
"7.	c #272727",
"8.	c #262626",
", , , , , , , , , , , , , , , , , , , , , , , , , , , , , , , , , , , , , , , , , , , , , , , , ",
", , , , , , , , , , , , , , , , , , , , , , , , , , , , , , , , , , , , , , , , , , , , , , , , ",
", , , , , , , , , , , , , , , , , , , , , , , , , , , , , , , , , , , , , , , , , , , , , , , , ",
", , , , , , , , , , , , , , , , , , , , , , , , , , , , , , , , , , , , , , , , , , , , , , , , ",
", , , , , , , , , , , , , , , , , , , , , , , , , , , , , , , , , , , , , , , , , , , , , , , , ",
", , , , , , , , , , , , , , , , , , , , , , , , , , , , , , , , , , , , , , , , , , , , , , , , ",
", , , , , , , , , , , , , , , , , , , , , , , , , , , , , , , , , , , , , , , , , , , , , , , , ",
", , , , , , , , , , , , , , , , , , , , , , , , , , , , , , , , , , , , , , , , , , , , , , , , ",
", , , , , , , , , , , , , , , , , , , , , , , , , , , , , , , , , , , , , , , , , , , , , , , , ",
", , , , , , , , , , , , , , , , , , , , , , , , , , , , , , , , , , , , , , , , , , , , , , , , ",
", , , , , , , , , , , , , , , , , , , , ! _._._._.F , _._._._._., , , , , , , , , , , , , , , , ",
", , , , , , , , , , , , , , , , , , % _._._._._._.F , _._._._._., , , , , , , , , , , , , , , , ",
", , , , , , , , , , , , , , , , , <._._._._._._._.F , _._._._._., , , , , , , , , , , , , , , , ",
", , , , , , , , , , , , , , , , :._._._._._._._._.F , _._._._._., , , , , , , , , , , , , , , , ",
", , , , , , , , , , , , , , , -._._._._._._._._._.F , _._._._._., , , , , , , , , , , , , , , , ",
", , , , , , , , , , , , , , ' _._._._._._._._._.T - , _._._._._., , , , , , , , , , , , , , , , ",
", , , , , , , , , , , , , , _._._._._._._.:., , , , , _._._._._., , , , , , , , , , , , , , , , ",
", , , , , , , , , , , , , , _._._._._._., , , , , , , _._._._._., , , , , , , , , , , , , , , , ",
", , , , , , , , , , , , , :._._._._._.* , , , , , , , _._._._._., , , , , , , , , , , , , , , , ",
", , , , , , , , , , , , , _._._._._._., , , , , , , , _._._._._., , , , , , , , , , , , , , , , ",
", , , , , , , , , , , , 1._._._._._., , , , , , , , , _._._._._., , , , , , , , , , , , , , , , ",
", , , , , , , , , , , , _._._._._._.:.:.:.:.:.:.:.:.:._._._._._., , , , , , , , , , , , , , , , ",
", , , , , , , , , , , 7 _._._._._._._._._._._._._._._._._._._._., , , , , , , , , , , , , , , , ",
", , , , , , , , , , , _._._._._._._._._._._._._._._._._._._._._., , , , , , , , , , , , , , , , ",
", , , , , , , , , , , _._._._._._._._._._._._._._._._._._._._._., , , , , , , , , , , , , , , , ",
", , , , , , , , , , (._._._._._._._._._._._._._._._._._._._._._., , , , , , , , , , , , , , , , ",
", , , , , , , , , , _._._._._._._._._._._._._._._._._._._._._._., , , , , , , , , , , , , , , , ",
", , , , , , , , , B C C C C C C , , , , , , , , , , , _._._._._., , , , , , , , , , , , , , , , ",
", , , , , , , , , A z z z z z * , , , , , , , , , , , _._._._._., , , , , , , , , , , , , , , , ",
", , , , , , , , z z z z z z z , , , , , , , , , , , , _._._._._., , , , , , , , , , , , , , , , ",
", , , , , , , 0 z z z z z z - , , , , , , , , , , , , _._._._._., , , , , , , , , , , , , , , , ",
", , , , , , B z z z z z z z , , , , , , , , , , , , , _._._._._., , , , , , , , , , , , , , , , ",
", , e t z z z z z z z z z , , , , , , , , , , , , , , _._._._._., , , , , , , , , , , , , , , , ",
", , z z z z z z z z z z A , , , , , , , , , , , , , , _._._._._._._._._._._._._._._._._._._., , ",
", , z z z z z z z z z E , , , , , , , , , , , , , , , _._._._._._._._._._._._._._._._._._._., , ",
", , z z z z z z z z y , , , , , , , , , , , , , , , , _._._._._._._._._._._._._._._._._._._., , ",
", , z z z z z z z > , , , , , , , , , , , , , , , , , _._._._._._._._._._._._._._._._._._._., , ",
", , z z z z z ; , , , , , , , , , , , , , , , , , , , _._._._._._._._._._._._._._._._._._._., , ",
", , , , , , , , , , , , , , , , , , , , , , , , , , , , , , , , , , , , , , , , , , , , , , , , ",
", , , , , , , , , , , , , , , , , , , , , , , , , , , , , , , , , , , , , , , , , , , , , , , , ",
", , , , , , , , , , , , , , , , , , , , , , , , , , , , , , , , , , , , , , , , , , , , , , , , ",
", , , , , , , , , , , , , , , , , , , , , , , , , , , , , , , , , , , , , , , , , , , , , , , , ",
", , , , , , , , , , , , , , , , , , , , , , , , , , , , , , , , , , , , , , , , , , , , , , , , ",
", , , , , , , , , , , , , , , , , , , , , , , , , , , , , , , , , , , , , , , , , , , , , , , , ",
", , , , , , , , , , , , , , , , , , , , , , , , , , , , , , , , , , , , , , , , , , , , , , , , ",
", , , , , , , , , , , , , , , , , , , , , , , , , , , , , , , , , , , , , , , , , , , , , , , , ",
", , , , , , , , , , , , , , , , , , , , , , , , , , , , , , , , , , , _., _., , , , , _., , , , ",
", , , , , , , , , , , , , , , , , , , , , , , , , , , , , , , , ;., , , ~., , , , , , , , , , , "};
