/* XPM */
static char * icon_money_xpm[] = {
"48 48 386 2",
"  	c None",
". 	c #3A9E3C",
"+ 	c #3CA23E",
"@ 	c #49AA4B",
"# 	c #56AF58",
"$ 	c #5EB260",
"% 	c #3CA03E",
"& 	c #4AAB4D",
"* 	c #74C276",
"= 	c #9CD89E",
"- 	c #BCE6BD",
"; 	c #C9ECCA",
"> 	c #CFEED0",
", 	c #D3F0D4",
"' 	c #C8ECCA",
") 	c #9CD89D",
"! 	c #4BAB4D",
"~ 	c #3A9F3C",
"{ 	c #60B861",
"] 	c #9FD9A0",
"^ 	c #C7EBC8",
"/ 	c #D1EFD2",
"( 	c #D2EFD3",
"_ 	c #D3EFD4",
": 	c #D0EED1",
"< 	c #9ED9A0",
"[ 	c #5FB861",
"} 	c #5AB55C",
"| 	c #A6DDA7",
"1 	c #CCEDCD",
"2 	c #CDEDCE",
"3 	c #CEEECF",
"4 	c #CEEDCF",
"5 	c #A5DDA6",
"6 	c #40A442",
"7 	c #87CD88",
"8 	c #C1E9C2",
"9 	c #CAEDCB",
"0 	c #CBEDCC",
"a 	c #86CD88",
"b 	c #40A443",
"c 	c #A0DCA2",
"d 	c #C4EAC5",
"e 	c #C6EBC7",
"f 	c #C8ECC9",
"g 	c #CAECCB",
"h 	c #CBECCC",
"i 	c #C5EBC6",
"j 	c #A0DBA1",
"k 	c #4BAA4C",
"l 	c #52B054",
"m 	c #ADE1AE",
"n 	c #BFE9C0",
"o 	c #C3EAC4",
"p 	c #C4EBC5",
"q 	c #C2EAC3",
"r 	c #D0EFD0",
"s 	c #ADE0AE",
"t 	c #52AF54",
"u 	c #A9DFAA",
"v 	c #BBE7BC",
"w 	c #BDE8BE",
"x 	c #BFE8C0",
"y 	c #C0E9C1",
"z 	c #E1F4E1",
"A 	c #DCF3DC",
"B 	c #FEFFFE",
"C 	c #FFFFFF",
"D 	c #F9FDF9",
"E 	c #E6F6E6",
"F 	c #C2E9C3",
"G 	c #BEE8BF",
"H 	c #BDE7BE",
"I 	c #A8DFAA",
"J 	c #95D796",
"K 	c #B6E5B7",
"L 	c #B8E6B9",
"M 	c #BAE6BB",
"N 	c #BCE7BD",
"O 	c #EEF9EE",
"P 	c #E3F5E4",
"Q 	c #E0F4E0",
"R 	c #B8E5B9",
"S 	c #B5E5B6",
"T 	c #94D796",
"U 	c #79C87A",
"V 	c #B0E3B1",
"W 	c #B3E4B4",
"X 	c #C1EAC2",
"Y 	c #FAFDFA",
"Z 	c #E4F5E4",
"` 	c #F4FBF5",
" .	c #D1EFD1",
"..	c #BAE7BB",
"+.	c #B7E5B8",
"@.	c #AFE3B0",
"#.	c #78C87A",
"$.	c #52B254",
"%.	c #A4DFA6",
"&.	c #ADE2AE",
"*.	c #B2E4B3",
"=.	c #FDFEFD",
"-.	c #F1FAF1",
";.	c #B4E4B5",
">.	c #B9E6BA",
",.	c #ACE2AD",
"'.	c #A4DEA5",
").	c #51B153",
"!.	c #88D289",
"~.	c #A7DFA8",
"{.	c #A9E1AA",
"].	c #B7E6B8",
"^.	c #BBE6BC",
"/.	c #FBFEFB",
"(.	c #A9E0AA",
"_.	c #A6DFA7",
":.	c #87D189",
"<.	c #52B354",
"[.	c #A0DDA1",
"}.	c #A3DEA4",
"|.	c #AAE1AB",
"1.	c #B4E5B5",
"2.	c #DDF3DD",
"3.	c #DBF2DB",
"4.	c #E7F7E7",
"5.	c #9FDDA0",
"6.	c #51B353",
"7.	c #3BA03D",
"8.	c #79CA7B",
"9.	c #9CDC9D",
"0.	c #A7E0A8",
"a.	c #B1E3B2",
"b.	c #CFEECF",
"c.	c #D5F0D6",
"d.	c #D6F0D6",
"e.	c #B9E6B9",
"f.	c #A8E0A9",
"g.	c #B2E3B3",
"h.	c #9BDB9D",
"i.	c #78CA7A",
"j.	c #44A746",
"k.	c #8ED790",
"l.	c #98DA9A",
"m.	c #9CDC9E",
"n.	c #AEE2AF",
"o.	c #A6DFA8",
"p.	c #F5FCF5",
"q.	c #97DA99",
"r.	c #8DD68F",
"s.	c #43A746",
"t.	c #59B75B",
"u.	c #90D792",
"v.	c #93D995",
"w.	c #AEE2AE",
"x.	c #A4DFA5",
"y.	c #AFE2B0",
"z.	c #AEE3AF",
"A.	c #93D895",
"B.	c #8ED690",
"C.	c #58B75A",
"D.	c #6AC66D",
"E.	c #8BD58D",
"F.	c #94D996",
"G.	c #99DB9B",
"H.	c #9DDC9E",
"I.	c #A5DFA7",
"J.	c #9EDDA0",
"K.	c #F0FAF0",
"L.	c #F5FBF5",
"M.	c #E6F6E7",
"N.	c #9ADB9C",
"O.	c #A2DEA3",
"P.	c #69C56B",
"Q.	c #77CC79",
"R.	c #87D489",
"S.	c #8CD68E",
"T.	c #91D793",
"U.	c #A5DFA6",
"V.	c #F7FCF7",
"W.	c #A2DEA4",
"X.	c #EAF7EA",
"Y.	c #AFE3B1",
"Z.	c #9EDC9F",
"`.	c #A2DDA3",
" +	c #9EDCA0",
".+	c #86D488",
"++	c #76CB78",
"@+	c #3FA741",
"#+	c #77CE79",
"$+	c #81D283",
"%+	c #95D997",
"&+	c #9DDC9F",
"*+	c #A1DDA2",
"=+	c #9ADB9B",
"-+	c #F6FCF6",
";+	c #F4FBF4",
">+	c #96D998",
",+	c #92D793",
"'+	c #DAF2DB",
")+	c #DFF4E0",
"!+	c #92D894",
"~+	c #8FD791",
"{+	c #76CD78",
"]+	c #3FA641",
"^+	c #44A846",
"/+	c #75CD77",
"(+	c #7DD07F",
"_+	c #83D385",
":+	c #88D48A",
"<+	c #91D893",
"[+	c #BFE8C1",
"}+	c #E4F6E5",
"|+	c #AAE1AC",
"1+	c #82D284",
"2+	c #7CD07E",
"3+	c #74CD76",
"4+	c #45A947",
"5+	c #72CC74",
"6+	c #79CF7B",
"7+	c #7ED180",
"8+	c #84D386",
"9+	c #96DA98",
"0+	c #E8F7E8",
"a+	c #D4F0D5",
"b+	c #B5E5B7",
"c+	c #F8FDF8",
"d+	c #70CC72",
"e+	c #3CA13E",
"f+	c #5EC260",
"g+	c #73CD75",
"h+	c #90D892",
"i+	c #ACE1AD",
"j+	c #85D487",
"k+	c #8FD691",
"l+	c #7DD17F",
"m+	c #78CE7A",
"n+	c #71CC73",
"o+	c #5DC15F",
"p+	c #40AB42",
"q+	c #55BE57",
"r+	c #6DCA6F",
"s+	c #78CF7A",
"t+	c #A4DEA6",
"u+	c #F2FBF3",
"v+	c #7ED080",
"w+	c #AAE0AB",
"x+	c #F8FCF8",
"y+	c #EDF9ED",
"z+	c #8AD58C",
"A+	c #6CCA6E",
"B+	c #53BD56",
"C+	c #3FA941",
"D+	c #3B9F3D",
"E+	c #3DA740",
"F+	c #41B044",
"G+	c #45B948",
"H+	c #55C258",
"I+	c #69C96B",
"J+	c #7BD07D",
"K+	c #89D58B",
"L+	c #8CD58E",
"M+	c #7FD181",
"N+	c #C5EAC5",
"O+	c #7AD07C",
"P+	c #68C96A",
"Q+	c #54C157",
"R+	c #45B848",
"S+	c #40AF43",
"T+	c #3DA63F",
"U+	c #3DA53F",
"V+	c #43B646",
"W+	c #48BD4B",
"X+	c #4FBF52",
"Y+	c #57C259",
"Z+	c #63C765",
"`+	c #88D58A",
" @	c #83D285",
".@	c #62C764",
"+@	c #4DBF50",
"@@	c #46BC49",
"#@	c #43B546",
"$@	c #3FAD42",
"%@	c #3CA43E",
"&@	c #43B446",
"*@	c #53C156",
"=@	c #5AC45C",
"-@	c #5FC561",
";@	c #64C766",
">@	c #95D996",
",@	c #FCFEFC",
"'@	c #5EC560",
")@	c #59C35B",
"!@	c #52C155",
"~@	c #4BBE4E",
"{@	c #45BB48",
"]@	c #42B345",
"^@	c #3FAB41",
"/@	c #3EAA41",
"(@	c #42B245",
"_@	c #44BA47",
":@	c #4ABE4D",
"<@	c #51C054",
"[@	c #58C35A",
"}@	c #5DC55F",
"|@	c #62C664",
"1@	c #65C767",
"2@	c #4FC052",
"3@	c #6AC96D",
"4@	c #66C868",
"5@	c #5CC45F",
"6@	c #59C35C",
"7@	c #6BCA6E",
"8@	c #61C663",
"9@	c #5CC45E",
"0@	c #57C359",
"a@	c #50C053",
"b@	c #49BD4C",
"c@	c #44B847",
"d@	c #41B144",
"e@	c #3EA840",
"f@	c #3DA73F",
"g@	c #43B746",
"h@	c #47BD4A",
"i@	c #5FC661",
"j@	c #4EBF51",
"k@	c #5EC460",
"l@	c #E5F6E5",
"m@	c #40AE43",
"n@	c #3FAC42",
"o@	c #DFF3DF",
"p@	c #DDF3DE",
"q@	c #60C662",
"r@	c #44B947",
"s@	c #3FAA41",
"t@	c #54C257",
"u@	c #55C157",
"v@	c #71CB74",
"w@	c #9FDCA0",
"x@	c #50C052",
"y@	c #4CBF4F",
"z@	c #3FAB42",
"A@	c #47BB4A",
"B@	c #94D896",
"C@	c #D8F1D9",
"D@	c #50BF53",
"E@	c #42B445",
"F@	c #56C259",
"G@	c #49BC4C",
"H@	c #69C86C",
"I@	c #C4E9C5",
"J@	c #E9F7EA",
"K@	c #ADE1AF",
"L@	c #50BE53",
"M@	c #51BF53",
"N@	c #49BE4C",
"O@	c #45BA48",
"P@	c #3BA23D",
"Q@	c #3EA940",
"R@	c #54C057",
"S@	c #75CC77",
"T@	c #89D48B",
"U@	c #B0E2B1",
"V@	c #ACE1AE",
"W@	c #9DDB9E",
"X@	c #7BCF7D",
"Y@	c #70CA72",
"Z@	c #4BBC4E",
"`@	c #4ABC4D",
" #	c #5BC45E",
".#	c #57C35A",
"+#	c #5AC45D",
"@#	c #56C158",
"##	c #53C056",
"$#	c #52C054",
"%#	c #55C057",
"&#	c #5BC45D",
"*#	c #3EA941",
"=#	c #47BC4A",
"-#	c #40AD42",
";#	c #4CBE4F",
">#	c #3BA13D",
",#	c #3CA33E",
"'#	c #3EA740",
")#	c #43B846",
"!#	c #40B044",
"~#	c #3DA43F",
"                                                                                                ",
"                                                                                                ",
"                                                                                                ",
"                                    . . + @ # $ $ # @ + . .                                     ",
"                              . % & * = - ; > , , > ' - ) * ! % .                               ",
"                          . ~ { ] ^ / / ( ( ( ( ( _ ( ( / : ^ < [ ~ .                           ",
"                        ~ } | 1 2 3 > > : : : : : : : : > > 4 2 1 5 } ~                         ",
"                    . 6 7 8 ; 9 0 1 2 3 3 3 > : : > 3 3 3 2 1 0 9 ; 8 a b                       ",
"                  . ! c d e ^ f g 0 0 1 2 2 2 2 1 0 g h 0 0 g ; f ^ i d j k .                   ",
"                . l m n 8 o d e ^ f f f e p d q > ( ( r o 8 d e i d q 8 n s t .                 ",
"              . @ u v w x y q d i e e y , z A / B C C B D E 8 F d q y G H v I @                 ",
"              6 J K L M N G y F o d F d C C O P C C C C C C Q N 8 n G N M R S T 6               ",
"            ~ U V W K L M N G n y X y G Y C Z ` C C C C C C  ...n G v M +.S W @.#.~             ",
"          . $.%.&.V *.S +.M N H G n n K E C =.C C C C C C -.;.N H v >.+.S *.@.,.'.).            ",
"          ~ !.~.{.&.V *.S ].>.^.N N H +.F C C C C C C C /.G S N M >.+.S *.@.,.(._.:.~           ",
"        . <.[.}.~.|.&.@.*.1.K +.L M M >.,.2.Q 3.2.4.O B 3 &.>.L +.K ;.*.@.,.{._.}.5.6.          ",
"        7.8.9.[.}.0.|.&.@.a.W 1.S K K &.&.b.c.d.c.: N e.f.g.K S ;.W a.@.,.{._.}.5.h.i.7.        ",
"        j.k.l.m.[.'.0.|.,.n.V a.*.W o.S -.C C C C C C p.x _.*.*.a.V n.,.{._.}.5.h.q.r.s.        ",
"      . t.u.v.l.m.[.}._.{.|.,.w.n.x.g.D C C C C C C C C Y y._.z.&.,.|.f._.}.5.h.q.A.B.C.        ",
"      . D.E.u.F.G.H.[.}._.0.(.|.I.J.K.C C C C L.C C C C C M.N.{.|.(.0._.O.[.m.l.F.u.E.P..       ",
"      7.Q.R.S.T.F.G.m.5.O.'.U._.l.1 C C C V.d.W.X.C C C C C Y.Z.~.U.}.`. +m.l.F.u.E..+++7.      ",
"      @+#+$+R.S.u.%+l.h.&+[.*+H.=+-+C C ;+h.&+>+,+'+C C C C )+!+O.*+5.&+h.q.F.~+E..+$+{+]+      ",
"      ^+/+(+_+:+S.<+F.q.N.m.Z.<+[+C C C 3 >+}+;.8 |+C C C C Y l.G.&+9.G.q.F.u.S.R.1+2+3+^+      ",
"      4+5+6+7+8+:+r.u.v.9+l.N..+0+C C C 1 r.a+b+c+V.C C C C C K u.N.l.>+A.u.r.R.1+(+#+d+4+      ",
"      e+f+g+6+7+_+:+S.~+!+F.h+F.Y C C C V.F.$+i+B C C C C C C 3 j+%+v.!+k+E.:+1+l+m+n+o+7.      ",
"      7.p+q+r+s+7+_+R.E.B.u.R.t+C C C C C u+*+v+w+x+C C C C C y+(+<+u.r.z+R._+l+m+A+B+C+~       ",
"      D+E+F+G+H+I+J+1+.+K+L+M+N+C C C C C C ;.G 7+S C C C C C -.2+S.L+K+.+1+O+P+Q+R+S+T+~       ",
"      ~ U+S+V+W+X+Y+Z+d+2+_+/+1 C C C > d C l.E (..+C C C C C Y `+8+ @J+d+.@H++@@@#@$@%@.       ",
"      . %@$@&@@@+@*@=@-@;@P+H+F C C C N 5+K.u.-+>@~+C C C C C ,@6+I+P+Z+'@)@!@~@{@]@^@+ .       ",
"      . e+/@(@_@:@<@[@}@|@1@2@x C C C -.3@4@5@/+6@a+C C C C C Y 7@Z+1@8@9@0@a@b@c@d@e@7.        ",
"        D+f@S+g@h@X+H+=@i@;@j@G C C C C x+W.k@_.l@C C C C C C O !@1@Z+'@=@Q+j@@@#@m@U+~         ",
"        . %@n@]@{@~@<@[@}@8@2@W C C C C C o@f.C C C C C C C C p@:@;@q@9@0@a@:@r@(@s@+ .         ",
"        . 7.e@F+g@h@j@t@=@'@u@v@Y C C C C C C C C C C C C C C w@x@|@}@)@*@y@@@#@S+f@D+          ",
"          . %@z@(@_@b@2@H+=@9@A@B@V.C C C C C C C C C C C C C@D@6@'@6@t@j@W+c@d@/@+ .           ",
"          . 7.T+m@E@{@~@a@F@=@[@G@H@I@K.B C C C C C C =.J@K@L@M@}@6@t@2@N@O@]@$@U+D+            ",
"            . P@Q@F+V+@@~@a@H+=@=@<@A@R@S@T@~.U@V@W@X@Y@Z@`@H+ #)@t@2@:@{@E@S+E+7..             ",
"              . + /@F+V+@@~@2@*@.#=@9@+#@###<@$#<@$#%#Y+9@9@=@0@*@j@N@{@#@S+Q@P@.               ",
"                ~ %@/@F+#@{@b@+@<@t@.#)@&#&#9@}@}@9@&#&#)@0@Q+a@y@W+O@E@S+Q@+ .                 ",
"                . ~ %@*#F+E@r@=#:@j@a@*@H+F@0@[@[@0@F@t@!@a@j@:@@@c@]@S+Q@+ .                   ",
"                  . . + e@-#(@V+O@h@:@;#j@X+2@a@a@2@X++@~@b@@@r@#@d@$@E+P@.                     ",
"                      . >#T+^@S+(@V+r@{@@@W+N@N@N@N@W+@@{@c@#@(@S+/@U+7..                       ",
"                        . D+,#'#^@S+d@]@#@g@)#r@r@)#V+#@]@d@m@s@f@+ D+.                         ",
"                            . 7.+ T+Q@^@$@S+S+!#!#!#S+$@^@e@U++ D+.                             ",
"                                . D+7.+ ~#T+T+E+E+T+T+%@+ 7.~ .                                 ",
"                                      . . ~ ~ D+~ ~ ~ . .                                       ",
"                                                                                                ",
"                                                                                                ",
"                                                                                                "};
