/* XPM */
static char *liferea[] = {
/* columns rows colors chars-per-pixel */
"16 16 116 2",
"   c #285187",
".  c #295187",
"X  c #2F5688",
"o  c #2F578B",
"O  c #2F568C",
"+  c #335484",
"@  c #30568A",
"#  c #31588A",
"$  c #355B8E",
"%  c #375E90",
"&  c #395E92",
"*  c #1A5AA0",
"=  c #2360A1",
"-  c #2764A8",
";  c #2B67A9",
":  c #336DAE",
">  c #415F8D",
",  c #40618C",
"<  c #4A688F",
"1  c #456693",
"2  c #486999",
"3  c #58769F",
"4  c #647999",
"5  c #5B7CA5",
"6  c #5E7DA7",
"7  c #467DB9",
"8  c #5F8BBA",
"9  c #688DB6",
"0  c #7292B6",
"q  c #7493B7",
"w  c #7C98BB",
"e  c #7EA9D7",
"r  c #888A85",
"t  c #808B96",
"y  c #969595",
"u  c #969695",
"i  c #969596",
"p  c #959696",
"a  c gray59",
"s  c #839DBE",
"d  c #9AA9BF",
"f  c #A0A0A0",
"g  c gray63",
"h  c #A8B2BD",
"j  c #ADB5BF",
"k  c #B7B7B6",
"l  c #BBBCBB",
"z  c #95A5C0",
"x  c #92A9C6",
"c  c #9FAFC4",
"v  c #9AB0CA",
"b  c #A4AEC0",
"n  c #A8B7C7",
"m  c #B7BFC7",
"M  c #9CBDE1",
"N  c #9ABFE6",
"B  c #BFC2C3",
"V  c #BFC3C6",
"C  c #B5C1CC",
"Z  c #BAC8D5",
"A  c #BDCBD9",
"S  c #BDCEE0",
"D  c #BDDBF8",
"F  c #CBCBCB",
"G  c #CCCCCB",
"H  c #CBCBCC",
"J  c #CCCBCC",
"K  c gray80",
"L  c gray81",
"P  c #C6CDD7",
"I  c #CBCED0",
"U  c #CFCFD0",
"Y  c #D0CFD0",
"T  c #D0D0D0",
"R  c #D3D4D3",
"E  c #D1D3D5",
"W  c #D6D5D6",
"Q  c gray84",
"!  c #D7D7D7",
"~  c #D8D7D7",
"^  c #D5D8DB",
"/  c #D8D8D8",
"(  c gray85",
")  c #DBDCDD",
"_  c #D9DCDE",
"`  c #DCDDDD",
"'  c #DDDDDD",
"]  c #C7D3E2",
"[  c #C8D5E2",
"{  c #C8D5E5",
"}  c #D1DBE2",
"|  c #D4D9E0",
" . c #D1DCE8",
".. c #DEE5EB",
"X. c #D4E8FA",
"o. c #D4E9FF",
"O. c #D5EAFF",
"+. c #DBEDFF",
"@. c #E2E2E1",
"#. c #E2E2E2",
"$. c gray89",
"%. c gray90",
"&. c #E9E9E9",
"*. c #EAEAEA",
"=. c #EAEAEB",
"-. c #EAEBEB",
";. c #EDEEEF",
":. c #EEEEEF",
">. c #F3F3F3",
",. c #F6F7F7",
"<. c #F9F9F9",
"1. c gray98",
"2. c gray99",
"3. c #FEFEFE",
"4. c gray100",
"5. c None",
/* pixels */
"r r r r r r r r r r r r r r r r ",
"r 4.4.4.4.4.4.4.4.4.4.4.4.4.4.r ",
"r 4.&.&.d O @ 3 &.&.&.&.&.&.4.r ",
"r 4.&.+ 6  .{ v , P &.f f &.4.r ",
"r 4.1 | V X.n j ..s &.f f &.4.r ",
"r z 5 ) Z +.C I 1.[ c &.&.&.4.r ",
"r $ ] D o.O.2.3._ E # f f &.4.r ",
"r o S m M N ,.;.*.B % &.&.&.4.r ",
"r 2 x 3.^ e 8 9 ( t < f f &.4.r ",
"r 4.& } >.7 : - h q $.$.$.$.4.r ",
"r 4.b w A ; * = 0 X g g g $.<.r ",
"r 4.` ! 4   . > / ~ / / / ' >.r ",
"r 4.Q a u a i a y a a p u W :.r ",
"r -.U L F H G J K Y Y Y T R =.r ",
"r l %.#.#.#.#.#.#.#.#.#.#.@.k r ",
"5.r r r r r r r r r r r r r r 5."
};
