/* XPM */
static char * glc_player_xpm[] = {
"48 48 564 2",
"  	c None",
". 	c #1C1C1B",
"+ 	c #242424",
"@ 	c #1A1A1A",
"# 	c #272726",
"$ 	c #2E2E2E",
"% 	c #505051",
"& 	c #969596",
"* 	c #B6B6B6",
"= 	c #C4C4C5",
"- 	c #C1C2C2",
"; 	c #C0C0C0",
"> 	c #CFCFCF",
", 	c #CECECE",
"' 	c #CCCCCC",
") 	c #D0D0D0",
"! 	c #D4D5D5",
"~ 	c #D8D8D8",
"{ 	c #DEDEDE",
"] 	c #575657",
"^ 	c #3F3F3F",
"/ 	c #484848",
"( 	c #131313",
"_ 	c #252525",
": 	c #717171",
"< 	c #ADADAC",
"[ 	c #B7B7B7",
"} 	c #C8C8C9",
"| 	c #CDCDCD",
"1 	c #D5D5D5",
"2 	c #DCDCDC",
"3 	c #E2E3E3",
"4 	c #E7E7E7",
"5 	c #E8E8E8",
"6 	c #ECECEC",
"7 	c #F3F3F3",
"8 	c #F7F7F7",
"9 	c #F9F9F9",
"0 	c #EAEAEA",
"a 	c #BFBFBF",
"b 	c #7D7C7C",
"c 	c #515051",
"d 	c #616162",
"e 	c #636363",
"f 	c #393939",
"g 	c #414242",
"h 	c #4C4C4C",
"i 	c #969595",
"j 	c #B4B4B4",
"k 	c #BCBBBC",
"l 	c #CCCBCB",
"m 	c #CDCDCE",
"n 	c #CCCDCC",
"o 	c #C7C7C7",
"p 	c #C8C8C8",
"q 	c #C9C9C9",
"r 	c #D5D4D4",
"s 	c #DBDBDB",
"t 	c #E2E2E2",
"u 	c #E4E4E4",
"v 	c #E5E5E5",
"w 	c #E9E9E9",
"x 	c #EFEEEF",
"y 	c #F1F0F1",
"z 	c #EBEBEB",
"A 	c #D6D6D6",
"B 	c #9A9A9A",
"C 	c #5A5A5B",
"D 	c #565656",
"E 	c #8B8B8B",
"F 	c #121213",
"G 	c #282829",
"H 	c #464646",
"I 	c #3E3E3E",
"J 	c #6D6C6C",
"K 	c #A9A9A9",
"L 	c #B2B2B3",
"M 	c #BEBEBE",
"N 	c #C6C6C6",
"O 	c #C5C5C4",
"P 	c #C3C4C3",
"Q 	c #C1C1C1",
"R 	c #C2C2C2",
"S 	c #C4C4C4",
"T 	c #D3D3D3",
"U 	c #DADADA",
"V 	c #DFDFDF",
"W 	c #E4E3E4",
"X 	c #E8E9E9",
"Y 	c #E7E8E8",
"Z 	c #B5B5B4",
"` 	c #6E6E6E",
" .	c #6A6A6A",
"..	c #AAAAA9",
"+.	c #B3B2B2",
"@.	c #1C1C1C",
"#.	c #404041",
"$.	c #454545",
"%.	c #8F8F90",
"&.	c #AFAFAF",
"*.	c #B3B3B3",
"=.	c #BEBDBD",
"-.	c #BDBDBD",
";.	c #BABABA",
">.	c #B8B8B8",
",.	c #BBBBBB",
"'.	c #BCBCBC",
").	c #C4C4C3",
"!.	c #C7C7C8",
"~.	c #D7D7D8",
"{.	c #DDDDDD",
"].	c #C8C8C7",
"^.	c #868686",
"/.	c #848484",
"(.	c #505050",
"_.	c #3C3C3C",
":.	c #676767",
"<.	c #A5A5A4",
"[.	c #B9B9B9",
"}.	c #B7B7B8",
"|.	c #B5B5B5",
"1.	c #BBBCBC",
"2.	c #C0C0BF",
"3.	c #C3C3C2",
"4.	c #C6C5C5",
"5.	c #C9C9CA",
"6.	c #CCCCCD",
"7.	c #D0D0CF",
"8.	c #D2D2D2",
"9.	c #D4D4D4",
"0.	c #D9D9D9",
"a.	c #A0A09F",
"b.	c #9F9F9F",
"c.	c #A8A8A8",
"d.	c #1E1D1E",
"e.	c #4A4A4A",
"f.	c #434343",
"g.	c #898989",
"h.	c #ABABAB",
"i.	c #ADADAD",
"j.	c #B2B2B2",
"k.	c #B1B1B1",
"l.	c #B2B1B2",
"m.	c #B0B1B1",
"n.	c #B8B9B9",
"o.	c #C6C6C7",
"p.	c #C9C9C8",
"q.	c #CBCBCB",
"r.	c #B9B9BA",
"s.	c #A5A5A5",
"t.	c #A8A8A7",
"u.	c #AAAAAA",
"v.	c #141414",
"w.	c #343534",
"x.	c #5A5A5A",
"y.	c #3A3A3A",
"z.	c #616161",
"A.	c #9E9E9E",
"B.	c #ACACAC",
"C.	c #ABACAB",
"D.	c #ACADAD",
"E.	c #AFAFAE",
"F.	c #BDBCBD",
"G.	c #BFBEBF",
"H.	c #C1C0C1",
"I.	c #C3C3C3",
"J.	c #9D9D9E",
"K.	c #A3A3A3",
"L.	c #A1A1A0",
"M.	c #ADACAC",
"N.	c #1F2020",
"O.	c #565555",
"P.	c #4D4D4D",
"Q.	c #828282",
"R.	c #A6A6A6",
"S.	c #A7A7A7",
"T.	c #A7A8A7",
"U.	c #AAAAAB",
"V.	c #BCBBBB",
"W.	c #BDBEBD",
"X.	c #BFBFC0",
"Y.	c #ACABAC",
"Z.	c #979697",
"`.	c #999999",
" +	c #9C9C9C",
".+	c #989898",
"++	c #151515",
"@+	c #3D3D3D",
"#+	c #646464",
"$+	c #353535",
"%+	c #5C5C5C",
"&+	c #A2A2A2",
"*+	c #A1A1A1",
"=+	c #B0B0B0",
"-+	c #B7B4B7",
";+	c #B4B1B4",
">+	c #B1B2B1",
",+	c #B4B4B3",
"'+	c #B7B7B6",
")+	c #B8B8B7",
"!+	c #B8B9B8",
"~+	c #939393",
"{+	c #949394",
"]+	c #929192",
"^+	c #A4A4A4",
"/+	c #212121",
"(+	c #666665",
"_+	c #383838",
":+	c #7C7C7C",
"<+	c #9C9B9C",
"[+	c #9D9D9D",
"}+	c #9E9D9E",
"|+	c #A0A0A0",
"1+	c #A8A7A7",
"2+	c #B4B3B5",
"3+	c #A1A6A0",
"4+	c #BEB1BF",
"5+	c #BEB8BF",
"6+	c #BBB8BB",
"7+	c #B8B7B8",
"8+	c #909090",
"9+	c #888888",
"0+	c #8D8D8D",
"a+	c #9A9A99",
"b+	c #929191",
"c+	c #121312",
"d+	c #494A49",
"e+	c #747372",
"f+	c #313131",
"g+	c #C5BFC5",
"h+	c #899B87",
"i+	c #478A41",
"j+	c #55C249",
"k+	c #8CBD88",
"l+	c #8E8E8F",
"m+	c #8B8C8B",
"n+	c #838383",
"o+	c #878787",
"p+	c #858586",
"q+	c #A1A0A0",
"r+	c #9A9999",
"s+	c #262626",
"t+	c #494A4A",
"u+	c #4A4A4B",
"v+	c #3A3939",
"w+	c #757575",
"x+	c #A1A2A2",
"y+	c #9B9B9B",
"z+	c #959595",
"A+	c #929292",
"B+	c #8F8F8F",
"C+	c #8A8A8A",
"D+	c #30692B",
"E+	c #41A337",
"F+	c #44CB35",
"G+	c #2AD519",
"H+	c #737373",
"I+	c #8E8D8E",
"J+	c #808080",
"K+	c #7F7F7F",
"L+	c #818081",
"M+	c #858484",
"N+	c #919191",
"O+	c #A3A3A4",
"P+	c #727272",
"Q+	c #626262",
"R+	c #707070",
"S+	c #6B6B6B",
"T+	c #6D6D6D",
"U+	c #6C6C6C",
"V+	c #7D7D7D",
"W+	c #7E7E7E",
"X+	c #7C7C7D",
"Y+	c #42A938",
"Z+	c #4CC740",
"`+	c #50C545",
" @	c #3BCE2C",
".@	c #22E00E",
"+@	c #8A8B8A",
"@@	c #858585",
"#@	c #7B7B7B",
"$@	c #7A7A7A",
"%@	c #797979",
"&@	c #797878",
"*@	c #A5A4A4",
"=@	c #787878",
"-@	c #515151",
";@	c #575757",
">@	c #595958",
",@	c #656565",
"'@	c #6F6F6F",
")@	c #787879",
"!@	c #858685",
"~@	c #8D8D8C",
"{@	c #8F8F8E",
"]@	c #818181",
"^@	c #40A236",
"/@	c #53C648",
"(@	c #61C357",
"_@	c #58C34D",
":@	c #49C63D",
"<@	c #32D521",
"[@	c #19EE04",
"}@	c #7A6D7B",
"|@	c #8F898F",
"1@	c #7D7E7D",
"2@	c #7D7C7D",
"3@	c #767676",
"4@	c #747574",
"5@	c #737473",
"6@	c #767776",
"7@	c #595A59",
"8@	c #50504F",
"9@	c #5E5E5F",
"0@	c #8E8E8E",
"a@	c #939292",
"b@	c #949494",
"c@	c #3B9C31",
"d@	c #58C54E",
"e@	c #68C35F",
"f@	c #60C256",
"g@	c #5CC252",
"h@	c #54C248",
"i@	c #40C832",
"j@	c #3EC331",
"k@	c #579A51",
"l@	c #707670",
"m@	c #7F7380",
"n@	c #7C7B7C",
"o@	c #787978",
"p@	c #6F6E6E",
"q@	c #757675",
"r@	c #535353",
"s@	c #5B5C5B",
"t@	c #606161",
"u@	c #969696",
"v@	c #9A9B9A",
"w@	c #909190",
"x@	c #3E9B34",
"y@	c #5EC354",
"z@	c #70C468",
"A@	c #67C25E",
"B@	c #62C259",
"C@	c #5DC154",
"D@	c #59C050",
"E@	c #56C14B",
"F@	c #4AC43D",
"G@	c #40B235",
"H@	c #588654",
"I@	c #746D75",
"J@	c #79737A",
"K@	c #6A6B6B",
"L@	c #555555",
"M@	c #595959",
"N@	c #606060",
"O@	c #666666",
"P@	c #888988",
"Q@	c #9E9F9F",
"R@	c #868586",
"S@	c #4BA043",
"T@	c #63C25A",
"U@	c #79C771",
"V@	c #6EC366",
"W@	c #69C260",
"X@	c #64C05B",
"Y@	c #5FBF55",
"Z@	c #58BE4E",
"`@	c #51BC47",
" #	c #47BF3C",
".#	c #38BE2A",
"+#	c #409E36",
"@#	c #60735E",
"##	c #716C71",
"$#	c #696969",
"%#	c #646364",
"&#	c #5F5F5F",
"*#	c #616060",
"=#	c #787777",
"-#	c #AEAEAE",
";#	c #53A14B",
">#	c #68C260",
",#	c #81C97A",
"'#	c #78C570",
")#	c #72C36A",
"!#	c #6CC164",
"~#	c #66BF5C",
"{#	c #5CBC52",
"]#	c #51BA48",
"^#	c #4BB740",
"/#	c #44B738",
"(#	c #32C025",
"_#	c #3B9D32",
":#	c #646C63",
"<#	c #696469",
"[#	c #9C9C9D",
"}#	c #898689",
"|#	c #509C49",
"1#	c #71C368",
"2#	c #8CCB85",
"3#	c #80C679",
"4#	c #7AC473",
"5#	c #73C16B",
"6#	c #6ABF62",
"7#	c #5FBA56",
"8#	c #54B64B",
"9#	c #4BB440",
"0#	c #48B73E",
"a#	c #4DB442",
"b#	c #5A8B55",
"c#	c #615F62",
"d#	c #979797",
"e#	c #CACACA",
"f#	c #9F9E9F",
"g#	c #529C4B",
"h#	c #76C36F",
"i#	c #97CF91",
"j#	c #89C982",
"k#	c #82C67C",
"l#	c #7AC373",
"m#	c #6EBD66",
"n#	c #62B85A",
"o#	c #58B550",
"p#	c #5AAD51",
"q#	c #668663",
"r#	c #6F6A70",
"s#	c #625F63",
"t#	c #605F60",
"u#	c #777677",
"v#	c #8A8B8B",
"w#	c #C7C6C7",
"x#	c #918D91",
"y#	c #5A7558",
"z#	c #4D9745",
"A#	c #7EC577",
"B#	c #A3D59E",
"C#	c #95CD8F",
"D#	c #8AC984",
"E#	c #7DC276",
"F#	c #71BC6A",
"G#	c #67B960",
"H#	c #61B758",
"I#	c #5DA257",
"J#	c #637662",
"K#	c #706970",
"L#	c #646264",
"M#	c #646564",
"N#	c #777878",
"O#	c #8B8A8B",
"P#	c #9B9A9A",
"Q#	c #C5C5C5",
"R#	c #C4BFC4",
"S#	c #687C67",
"T#	c #4D9446",
"U#	c #85C67E",
"V#	c #AEDBA9",
"W#	c #9ED198",
"X#	c #90CA8B",
"Y#	c #83C37D",
"Z#	c #77BE70",
"`#	c #68B561",
" $	c #599253",
".$	c #636B62",
"+$	c #79727A",
"@$	c #6C6D6C",
"#$	c #585958",
"$$	c #D9DAD9",
"%$	c #D8D5D8",
"&$	c #6F816D",
"*$	c #52944B",
"=$	c #8DC987",
"-$	c #B8DFB4",
";$	c #A6D4A1",
">$	c #98CD93",
",$	c #85C47E",
"'$	c #67AE60",
")$	c #53804E",
"!$	c #696869",
"~$	c #837D83",
"{$	c #777877",
"]$	c #5D5D5D",
"^$	c #686868",
"/$	c #6A7C68",
"($	c #4D8F46",
"_$	c #94CB8E",
":$	c #C5E6C1",
"<$	c #ADD9A9",
"[$	c #8EC789",
"}$	c #5EA058",
"|$	c #51714C",
"1$	c #746F75",
"2$	c #8C8A8E",
"3$	c #808180",
"4$	c #7E7F7F",
"5$	c #8D8E8D",
"6$	c #C2BFC2",
"7$	c #647862",
"8$	c #4A8B43",
"9$	c #97CB92",
"0$	c #C4E6C0",
"a$	c #8AC385",
"b$	c #4F8D49",
"c$	c #51654E",
"d$	c #817882",
"e$	c #959495",
"f$	c #525353",
"g$	c #757474",
"h$	c #A8A4A9",
"i$	c #5C715B",
"j$	c #3F8538",
"k$	c #7FBE79",
"l$	c #7CB775",
"m$	c #457B40",
"n$	c #586157",
"o$	c #7F7780",
"p$	c #8C8C8C",
"q$	c #585757",
"r$	c #747474",
"s$	c #797978",
"t$	c #7E7D7E",
"u$	c #9D9B9E",
"v$	c #6A766A",
"w$	c #3A7734",
"x$	c #45903D",
"y$	c #4B7A47",
"z$	c #605F61",
"A$	c #787279",
"B$	c #7F807F",
"C$	c #737273",
"D$	c #777777",
"E$	c #8C8B8D",
"F$	c #6B7A6A",
"G$	c #687E65",
"H$	c #908C90",
"I$	c #7F7C80",
"J$	c #767576",
"K$	c #919291",
"L$	c #99949A",
"M$	c #A29CA3",
"N$	c #A7A6A7",
"O$	c #979796",
"P$	c #656464",
"Q$	c #575857",
"R$	c #828281",
"S$	c #949594",
"T$	c #69696A",
"U$	c #6F706F",
"V$	c #B1B1B0",
"W$	c #868687",
"X$	c #717272",
"Y$	c #6E6D6E",
"Z$	c #AEAEAF",
"`$	c #4F4F4F",
" %	c #5E5E5E",
".%	c #5B5B5B",
"+%	c #5A595A",
"@%	c #565556",
"#%	c #4B4B4B",
"$%	c #444545",
"%%	c #5D5D5C",
"&%	c #5C5D5D",
"*%	c #474747",
"=%	c #424242",
"-%	c #3A3A39",
";%	c #484847",
"                                                                                                ",
"                                                                                                ",
"                                                                                                ",
"                                                                                                ",
"                                                                                                ",
"                      . +                                                                       ",
"                    @ # $ % & * = - ; > , , ' > , ) ! ~ {               ] ^ /                   ",
"                  ( _ ^ ^ : < [ } ) > ' ' , | , > 1 2 3 4 5 6 7 8 9 0 a b c d e                 ",
"                  @ f g h i j k l m n o o p q q , r s t u v w x y 7 z A B C D E                 ",
"                F G H I J K L M N O P ; M Q R S q | T ~ ~ U V W v X Y 2 Z `  ...+.              ",
"                @.#.$./ %.&.*.M a =.-.;.>.,.'.; ).!.' > ) T ~.s {.V t 2 ].^./.>.,.              ",
"              ( $ (._.:.<.&.j [.>.}.[ |.|.* [.1.2.3.4.o 5.6.7.8.9.A 0.~ p a.b.j '.c.            ",
"              d.e.e.f.g.h.i.j.*.j.k.l.m.j.*.* n.,.-.a Q S o.p.q q.| > > r.s.t.u.[ h.            ",
"            v.w.x.y.z.A.u.u.B.B.B.C.B.D.E.k.*.* [ >.;.F.G.H.R I.S N p ; s.J.K.L.M.k.            ",
"            N.O.P.^ Q.R.R.R.R.R.S.T.K U.i.&.k.*.*.|.* >.;.V.'.W.M X.a Y.Z.`. +.+A.&.J.          ",
"          ++@+#+$+%+.+s.&+*+&+&+K.s.S.K h.B.i.=+-+;+>+,+|.'+)+!+[.'.j.`.%.~+{+]+~+R.^+          ",
"          /+(+(._+:+&+*+<+[+}+b.|+*+K.1+h.&.j.2+3+;+4+5+6+7+[ [ [.k S.8+9+0+0+E 0+a+R.b+        ",
"        c+d+e+f+D ~+&+B `. +b.*+K.k.[ [ [.>.g+h+i+j+k+              l+m+n+o+^.p+o+0+q+r+        ",
"        s+t+u+v+w+[+x+y+.+z+A+B+C+`.          D+E+F+G+            H+I+J+K+L+J+J+J+M+N+O+        ",
"        z.0+P+Q+R+S+T+U+S+` w+V+W+X+            Y+Z+`+ @.@        +@@@V+#@$@$@%@&@:+^.          ",
"          *@=@-@;@>@%+,@'@)@!@~@{@Q.]@          ^@/@(@_@:@<@[@  }@|@1@2@%@3@4@5@: 6@Q.          ",
"            7@8@D x.9@#+'@K+0@a@b@N+Q.          c@d@e@f@g@h@i@j@k@l@m@n@o@H+p@T+U+q@            ",
"            r@r@;@s@t@,@T+n+u@`..+v@w@Q.        x@y@z@A@B@C@D@E@F@G@H@I@J@5@ .:.K@              ",
"              L@M@N@,@O@T+P@Q@^+s.&+&+E R@      S@T@U@V@W@X@Y@Z@`@ #.#+#@###$#%#                ",
"                M@&#N@*#=#w@*+-#j |.*.h.o+      ;#>#,#'#)#!#~#{#]#^#/#(#_#:#<#Q+                ",
"                  M@x.S+9+z+[#&.-.Q I.S i.}#    |#1#2#3#4#5#6#7#8#9#0#a#b#:.c#                  ",
"                  ;@&#:+N+d# +c.M e#| | ' f#    g#h#i#j#k#l#m#n#o#8#p#q#r#s#                    ",
"                    t#u#v#A+`.b.*.' 8.' q w#x#y#z#A#B#C#D#E#F#G#H#I#J#K#L#                      ",
"                      M#N#/.O#b+P#j.Q#q | 1 R#S#T#U#V#W#X#Y#Z#`# $.$+$@$#$                      ",
"                      z. .$@]@p+^.E ^+a ) $$%$&$*$=$-$;$>$,$'$)$!$~${$]$                        ",
"                        ^$P+:+V+V+]@C+*+,.8.%$/$($_$:$<$[$}$|$1$2$3$Q+                          ",
"                          U+: w+%@4$/.5$b.*.6$7$8$9$0$a$b$c$d$e$P@S+f$                          ",
"                            ` '@g$%@W+@@B+A.h$i$j$k$l$m$n$o$p$P@H+q$                            ",
"                            w+'@R+r$s$t$]@B+u$v$w$x$y$z$A$B$:+H+]$                              ",
"                              {$C$H+w+D$%@B$A+E$F$G$H$I$,@3@R+z.                                ",
"                                %@w+w+3@J$D$Q.K$L$M$N$O$$#P$&#Q$                                ",
"                                R$$@w+r$r$H+4@/.S$J.*+b.^.T$H+                                  ",
"                                  ^.#@w+H+: U$w+o+b@`.B u@9+V$                                  ",
"                                    W$#@3@X$Y$U+=@z+h.Z$R.p$:+                                  ",
"                                      ]@#@:+n@%@:+E C+:+` N@`$                                  ",
"                                      W+V+%@` #+ %.%+%@%#%$%_.                                  ",
"                                        ]$%+%%&%-@*%=%                                          ",
"                                        -%h ;%                                                  ",
"                                                                                                ",
"                                                                                                ",
"                                                                                                ",
"                                                                                                ",
"                                                                                                "};
