/* XPM */
static char * qwitik_xpm[] = {
"32 32 364 2",
"  	c None",
". 	c #AEAEAE",
"+ 	c #BDBDBD",
"@ 	c #CACACA",
"# 	c #D4D4D4",
"$ 	c #BABABA",
"% 	c #A1A1A1",
"& 	c #ACACAC",
"* 	c #B5B5B5",
"= 	c #C3C3C3",
"- 	c #C5C5C5",
"; 	c #CBCBCB",
"> 	c #C4C4C4",
", 	c #A7A7A7",
"' 	c #DADADA",
") 	c #E0E0E0",
"! 	c #E6E6E6",
"~ 	c #E9E9E9",
"{ 	c #EBEBEB",
"] 	c #EFEFEF",
"^ 	c #F1F1F1",
"/ 	c #F4F4F4",
"( 	c #F6F6F6",
"_ 	c #F9F9F9",
": 	c #FCFCFC",
"< 	c #E5E5E5",
"[ 	c #E8E8E8",
"} 	c #ECECEC",
"| 	c #D2D2D2",
"1 	c #C0C0C0",
"2 	c #E2E2E2",
"3 	c #F7F7F7",
"4 	c #FCFCFD",
"5 	c #FCFDFD",
"6 	c #F4FAFC",
"7 	c #E1F3F9",
"8 	c #C9E9F4",
"9 	c #B1DEEE",
"0 	c #C5E6F1",
"a 	c #E0F1F7",
"b 	c #CEE9F1",
"c 	c #BEE0EC",
"d 	c #B0DAE9",
"e 	c #A7D7E7",
"f 	c #CFEAF3",
"g 	c #D8EFF7",
"h 	c #EAF7FB",
"i 	c #F9FCFD",
"j 	c #FBFBFB",
"k 	c #949494",
"l 	c #B2B2B2",
"m 	c #F2F2F2",
"n 	c #FAFBFC",
"o 	c #E7F4F9",
"p 	c #BBE0ED",
"q 	c #9BD1E4",
"r 	c #7EC8E2",
"s 	c #6CC8E7",
"t 	c #5FC9EC",
"u 	c #56C9F0",
"v 	c #5CC8EC",
"w 	c #61C4E6",
"x 	c #4FBCE1",
"y 	c #44B8E0",
"z 	c #40B9E2",
"A 	c #41BCE6",
"B 	c #70CEEF",
"C 	c #76CDEA",
"D 	c #89D1E9",
"E 	c #B2E2F2",
"F 	c #DEF3F9",
"G 	c #EAEEEF",
"H 	c #D0D0D0",
"I 	c #BEBEBE",
"J 	c #FAFAFA",
"K 	c #ECF7FB",
"L 	c #B6DEEB",
"M 	c #70C5E1",
"N 	c #38B4DF",
"O 	c #31B8E7",
"P 	c #2FBEEF",
"Q 	c #30C3F5",
"R 	c #31C6F9",
"S 	c #31C7FA",
"T 	c #31C8FB",
"U 	c #32C9FC",
"V 	c #31C6F8",
"W 	c #31C3F5",
"X 	c #36C2F2",
"Y 	c #4AC8F1",
"Z 	c #75D3F3",
"` 	c #C7ECF8",
" .	c #E4E4E4",
"..	c #B3B3B3",
"+.	c #F8FAFB",
"@.	c #D8EEF5",
"#.	c #87CDE4",
"$.	c #42B5DC",
"%.	c #30BBEA",
"&.	c #31C5F8",
"*.	c #32C8FB",
"=.	c #36C6F6",
"-.	c #4FC7EF",
";.	c #A6DDF0",
">.	c #F4F9FA",
",.	c #C9C9C9",
"'.	c #E1E1E1",
").	c #C8E5EF",
"!.	c #69C0DD",
"~.	c #32B5E2",
"{.	c #30C3F6",
"].	c #2FBEEE",
"^.	c #8CD9F3",
"/.	c #ECF7FC",
"(.	c #B9B9B9",
"_.	c #FAFAFB",
":.	c #DDEFF5",
"<.	c #70C2DE",
"[.	c #2EB6E4",
"}.	c #2EBCEC",
"|.	c #90D9F1",
"1.	c #EEF8FB",
"2.	c #EAEAEA",
"3.	c #C1C1C1",
"4.	c #EDEDED",
"5.	c #FBFCFD",
"6.	c #CAE6F0",
"7.	c #53B8DA",
"8.	c #34C0F0",
"9.	c #3BBAE5",
"0.	c #40BEE9",
"a.	c #43C7F3",
"b.	c #3EC5F2",
"c.	c #34C1F0",
"d.	c #31C5F6",
"e.	c #30C4F6",
"f.	c #66CCEF",
"g.	c #D6F1FA",
"h.	c #F5F5F5",
"i.	c #D1D1D1",
"j.	c #888888",
"k.	c #DDDDDD",
"l.	c #DFF1F7",
"m.	c #88CCE3",
"n.	c #31B1DC",
"o.	c #31C1F2",
"p.	c #46C0E9",
"q.	c #79CDE9",
"r.	c #A3DBEE",
"s.	c #8ED2E8",
"t.	c #6CC7E5",
"u.	c #5DC5E8",
"v.	c #3EBCE6",
"w.	c #2FC1F1",
"x.	c #30C1F2",
"y.	c #71CDEC",
"z.	c #E0F4FB",
"A.	c #AFAFAF",
"B.	c #FEFEFE",
"C.	c #DDEDF3",
"D.	c #65B6D1",
"E.	c #33BBE9",
"F.	c #3ABEEB",
"G.	c #8CD5ED",
"H.	c #DBF0F8",
"I.	c #F5FBFC",
"J.	c #EDF7FA",
"K.	c #C3E6F1",
"L.	c #6DC5E3",
"M.	c #2CB3E1",
"N.	c #6BCEEF",
"O.	c #D9F2FA",
"P.	c #F3F3F3",
"Q.	c #858585",
"R.	c #B0D2DE",
"S.	c #3CA8CC",
"T.	c #31C3F4",
"U.	c #30BFF0",
"V.	c #6ACAEA",
"W.	c #D4F0F9",
"X.	c #FBFDFD",
"Y.	c #EFF8FB",
"Z.	c #B2DDEC",
"`.	c #5DBEDF",
" +	c #2DB7E5",
".+	c #2FC0F1",
"++	c #76CFED",
"@+	c #E4F5FB",
"#+	c #B6B6B6",
"$+	c #C8E0E9",
"%+	c #62B9D6",
"&+	c #34BCEA",
"*+	c #31C2F3",
"=+	c #5DC8ED",
"-+	c #BDE8F6",
";+	c #F5FBFD",
">+	c #FDFDFD",
",+	c #F2FAFC",
"'+	c #C5E7F2",
")+	c #2CB6E4",
"!+	c #30C3F4",
"~+	c #71CFF0",
"{+	c #DDF3FA",
"]+	c #C7E4EE",
"^+	c #57B5D4",
"/+	c #2FB9E8",
"(+	c #52C6EC",
"_+	c #B3E4F4",
":+	c #E8F5FA",
"<+	c #E9F5F9",
"[+	c #DEF1F7",
"}+	c #C7E8F3",
"|+	c #8DD0E6",
"1+	c #4EBFE5",
"2+	c #2FBFF0",
"3+	c #7BD0ED",
"4+	c #E6F5FB",
"5+	c #DCDCDC",
"6+	c #E8F4F8",
"7+	c #AAD6E5",
"8+	c #4FBBDF",
"9+	c #3AC8F7",
"0+	c #4FCDF7",
"a+	c #59CFF7",
"b+	c #54CCF5",
"c+	c #4AC1E9",
"d+	c #46BBE2",
"e+	c #41BFE9",
"f+	c #2FC1F3",
"g+	c #76D1F0",
"h+	c #F0F0F0",
"i+	c #C2E2EC",
"j+	c #50B5D7",
"k+	c #2FBDEE",
"l+	c #81D2ED",
"m+	c #DFDFDF",
"n+	c #CFCFCF",
"o+	c #EDF6F9",
"p+	c #9AD0E2",
"q+	c #50BDE1",
"r+	c #39BFEC",
"s+	c #2FC0F2",
"t+	c #7BD3F0",
"u+	c #E3F5FB",
"v+	c #BBBBBB",
"w+	c #D7D7D7",
"x+	c #E7E7E7",
"y+	c #C5E5EF",
"z+	c #66B9D4",
"A+	c #30A8D0",
"B+	c #2EBBEA",
"C+	c #76D3F3",
"D+	c #DCF2FA",
"E+	c #F8F8F8",
"F+	c #C8C8C8",
"G+	c #E4F3F7",
"H+	c #A9D7E6",
"I+	c #74C1DA",
"J+	c #5DC1E2",
"K+	c #52C5EC",
"L+	c #31C7F9",
"M+	c #31C8FA",
"N+	c #2FC0F0",
"O+	c #81D4F1",
"P+	c #E5F5FA",
"Q+	c #F1F9FB",
"R+	c #D5ECF3",
"S+	c #69C0DE",
"T+	c #4FBEE3",
"U+	c #3FB4DC",
"V+	c #31A8D0",
"W+	c #2FB1DD",
"X+	c #37BFEE",
"Y+	c #43C2ED",
"Z+	c #35BCEA",
"`+	c #30C2F4",
" @	c #30C2F3",
".@	c #7BD5F3",
"+@	c #DFF4FA",
"@@	c #D9D9D9",
"#@	c #C1E2ED",
"$@	c #BBE4F1",
"%@	c #B7E3F1",
"&@	c #B9E2F0",
"*@	c #BFE4F0",
"=@	c #9CD2E5",
"-@	c #84C9E1",
";@	c #86CFE8",
">@	c #4CBCE2",
",@	c #2EBDED",
"'@	c #86D6F1",
")@	c #EAF7FC",
"!@	c #ABABAB",
"~@	c #BCBCBC",
"{@	c #CDCDCD",
"]@	c #CCEAF4",
"^@	c #5DB7D5",
"/@	c #2DB6E4",
"(@	c #30C0F2",
"_@	c #81D6F3",
":@	c #B4B4B4",
"<@	c #9F9F9F",
"[@	c #A3A3A3",
"}@	c #C6C6C6",
"|@	c #BFBFBF",
"1@	c #AEDDEC",
"2@	c #49B2D5",
"3@	c #2FBDED",
"4@	c #8CD7F1",
"5@	c #EDF8FC",
"6@	c #A6A6A6",
"7@	c #F9FBFC",
"8@	c #57B4D3",
"9@	c #2DB8E7",
"0@	c #86D8F4",
"a@	c #E6F6FB",
"b@	c #EFF7FA",
"c@	c #A7D9EA",
"d@	c #41AFD4",
"e@	c #90D9F2",
"f@	c #EFF8FC",
"g@	c #A0A0A0",
"h@	c #F6F9FB",
"i@	c #CDE9F3",
"j@	c #74C4DF",
"k@	c #2AACD8",
"l@	c #64CAEC",
"m@	c #D7F0F9",
"n@	c #848484",
"o@	c #BDE0EC",
"p@	c #6EC3DE",
"q@	c #2EAFDA",
"r@	c #30C5F7",
"s@	c #31BDEC",
"t@	c #7BCBE6",
"u@	c #EBF7FC",
"v@	c #EEEEEE",
"w@	c #EDF5F7",
"x@	c #ABD5E3",
"y@	c #6CC0DB",
"z@	c #51C2E8",
"A@	c #34BDEC",
"B@	c #53BCE0",
"C@	c #BBE2F0",
"D@	c #FBFCFC",
"E@	c #B7B7B7",
"F@	c #E3E3E3",
"G@	c #F0F5F7",
"H@	c #D1E9F1",
"I@	c #A7D6E6",
"J@	c #88CDE4",
"K@	c #2DABD6",
"L@	c #30ABD5",
"M@	c #42B1D6",
"N@	c #7CCAE4",
"O@	c #F6FBFD",
"P@	c #ADADAD",
"Q@	c #F4F4F5",
"R@	c #FAFCFD",
"S@	c #C5E4EE",
"T@	c #D4EAF2",
"U@	c #ECF7FA",
"V@	c #FAFCFC",
"W@	c #CECECE",
"                        . + @ # $ % & * + = $ - ; > ,           ",
"                  ; = ' ) ! ~ { ] ^ / ( _ : < [ [ } ) |         ",
"            , 1 2 3 4 5 6 7 8 9 0 a b c d e f g h i j ) . k     ",
"          l | m n o p q r s t u v w x y z A B C D E F G H I     ",
"        > ) J K L M N O P Q R S T T T T U U V W X Y Z ` J  ...  ",
"      - [ +.@.#.$.%.&.T *.U U U U U U U U U U U R =.-.;.>.2 .   ",
"    ,.'.j ).!.~.{.T U U U U U U U U U U U U U U U U ].^./.3 (.  ",
"  (.! _.:.<.[.R T U U U U U U U U U U U U U U U U U }.|.1.2.&   ",
"  3.4.5.6.7.Q U U U U *.T V 8.9.0.a.b.c.d.U U U U U e.f.g.h.i.j.",
"- k.j l.m.n.U U U U U T o.p.q.r.s.t.u.v.w.U U U U U x.y.z.! -   ",
"A.~ B.C.D.E.U U U U U R F.G.H.6 I.J.K.L.M.U U U U U Q N.O.P.@ Q.",
"+ _ B.R.S.T.U U U U U U.V.W.X.B.B.Y.Z.`. +U U U U U .+++@+< +   ",
"#+4.B.$+%+&+U U U U U *+=+-+;+>+5 ,+'+!.)+U U U U U !+~+{+^ >   ",
"3.j B.]+^+/+U U U U U e.(+_+:+<+[+}+|+1+2+U U U U U 2+3+4+< +   ",
"@ 5+3 6+7+8+Q *.U U U S 9+0+a+b+c+d+e+8.V U U U U U f+g+z.h+3.  ",
"..# : >+i+j+k+S U U U U U U *.T T *.*.*.*.U U U U U P l+h m+A.  ",
"  n+5+^ o+p+q+r+.+S U U U U U U U U U U U U U U U U s+t+u+4.v+  ",
"    > w+x++.y+z+A+B+V *.U U U U U U U U U U U U U U !+C+D+E+F+  ",
"      H k.P.G+H+I+J+K+Q L+M+T T *.T S L+S U U U U U N+O+P+{ $   ",
"        3.~ J >+X.Q+R+S+J+T+U+V+W+X+Y+Z+`+U U U U U  @.@+@J (.  ",
"          @@! } 4.P.+.#@$@%@&@*@=@-@;@>@,@U U U U U P '@)@2.!@  ",
"                ~@- {@[ ] E+>+B.B.5.]@^@/@U U U U U (@_@u+_ :@  ",
"                  <@[@i.}@|@= n+[ Q+1@2@3@U U U U U k+4@5@~ 6@  ",
"                                4.7@}+8@9@U U U U U .+0@a@3 .   ",
"                                2 b@c@d@.+U U U U U 3@e@f@x+g@  ",
"                                @ h@i@j@k@T U U U U e.l@m@h.@ n@",
"                                = b@o@p@q@r@U U U T s@t@u@ .I   ",
"                                ' v@w@x@y@z@e.R e.A@B@C@D@] E@  ",
"                                @@F@G@H@I@J@K@L@M@N@'+O@h+{@P@  ",
"                                  {@'.2.Q@R@i+S@T@U@V@v@,.[@    ",
"                                    W@w+ .h.B.B.>+_ 2 $         ",
"                                        v+{@= |@(.#+#+          "};
