/* XPM */
static char *chmsee-16x16[] = {
/* columns rows colors chars-per-pixel */
"16 16 157 2",
"   c black",
".  c #000002",
"X  c #000200",
"o  c #000208",
"O  c #020508",
"+  c #0A0000",
"@  c #091002",
"#  c #151E09",
"$  c #131D23",
"%  c #162008",
"&  c #162708",
"*  c #1B280A",
"=  c #2A3A1E",
"-  c #2B3C1A",
";  c #373216",
":  c #383819",
">  c #262F30",
",  c #333D3F",
"<  c #143248",
"1  c #3D431F",
"2  c #3C4822",
"3  c #374835",
"4  c #384934",
"5  c #3C532C",
"6  c #2C4C68",
"7  c #560300",
"8  c #4D230D",
"9  c #4C2912",
"0  c #4D2E13",
"q  c #4D2F15",
"w  c #660300",
"e  c #690300",
"r  c #425525",
"t  c #497C37",
"y  c #5F6F3A",
"u  c #517F3E",
"i  c #46565D",
"p  c #4B5758",
"a  c #525E61",
"s  c #525D78",
"d  c #536868",
"f  c #576E6F",
"g  c #5A6C73",
"h  c #5C726B",
"j  c #756056",
"k  c #73625D",
"l  c #7A655A",
"z  c #6C776A",
"x  c #747B60",
"c  c #747888",
"v  c #52893D",
"b  c #5B8F3B",
"n  c #629740",
"m  c #6D9C53",
"M  c #708048",
"N  c #7A8C52",
"B  c #7F897C",
"V  c #6EA858",
"C  c #7DBB5D",
"Z  c #76A261",
"A  c #77A365",
"S  c #7EB162",
"D  c #6E9DB1",
"F  c #77BAEA",
"G  c #7BBFE9",
"H  c #7CBFF0",
"J  c #79C0F0",
"K  c #79C1F1",
"L  c #871D19",
"P  c #940500",
"I  c #9D100B",
"U  c #99726E",
"Y  c #BD5D59",
"T  c #AB666F",
"R  c #BD796D",
"E  c #B7727C",
"W  c #C82E24",
"Q  c #C34744",
"!  c #D05340",
"~  c #C05A61",
"^  c #C47F5F",
"/  c #D16E46",
"(  c #CD7878",
")  c #9D7683",
"_  c #859A5E",
"`  c #849A7F",
"'  c #958175",
"]  c #82A364",
"[  c #85A461",
"{  c #93A866",
"}  c #9DA47B",
"|  c #9EB071",
" . c #A18670",
".. c #A5BD7D",
"X. c #90D056",
"o. c #8DC864",
"O. c #90C37C",
"+. c #99D563",
"@. c #9AD56C",
"#. c #A0DB5C",
"$. c #A1DA67",
"%. c #AED160",
"&. c #A9D66E",
"*. c #B1CE71",
"=. c #C49E7C",
"-. c #828C94",
";. c #949E93",
":. c #9CA282",
">. c #95A490",
",. c #84A3AF",
"<. c #89ADBE",
"1. c #A7898B",
"2. c #A594AB",
"3. c #ADB38D",
"4. c #AFB397",
"5. c #AFB59E",
"6. c #B0B688",
"7. c #A0B7A7",
"8. c #A7BEA3",
"9. c #A8B0A2",
"0. c #A6BEB1",
"q. c #B0BED6",
"w. c #AFCC8E",
"e. c #A3D188",
"r. c #B4DE97",
"t. c #BDDA91",
"y. c #BFDE95",
"u. c #A7CAB9",
"i. c #BDC1A0",
"p. c #BAC0AA",
"a. c #BCC6AE",
"s. c #B4C5B2",
"d. c #B7DCA3",
"f. c #B9D9A2",
"g. c #BADCA9",
"h. c #B8E198",
"j. c #BFE29B",
"k. c #BFE59D",
"l. c #97C2C5",
"z. c #92C1D3",
"x. c #82C2EF",
"c. c #84C5EE",
"v. c #80C4F2",
"b. c #94C9E3",
"n. c #9FCBED",
"m. c #92CBF2",
"M. c #91CEF1",
"N. c #ABD0E8",
"B. c #CBDCAB",
"V. c #C1FF9D",
"C. c #C6E6B2",
"Z. c #CAE9B1",
"A. c #C9E8B4",
"S. c #C0FEA2",
"D. c #D7EDA7",
"F. c gray100",
"G. c None",
/* pixels */
"G.G.G.G.G.G.  & % G.G.G.G.G.G.G.",
"G.G.@ r y M N _ ] u G.G.G.G.G.G.",
"G.= [ { | ..w.f.g.A G.G.G.G.G.G.",
"G.; 6.y.j.Z.A.C.d.Z G.G.G.G.G.G.",
"G.8 R =.t.k.h.r.e.m G.G.G.G.G.G.",
"G.0 W ! *.$.+.@.o.b G.G.G.G.G.G.",
"G.5 ^ / %.#.X.C V t G.    G.G.G.",
"G.2 B.D.&.O.` U 1.c 6 o     G.G.",
"G.4 8.u.l.N.q.T Q ( ) s <   G.G.",
"G.d D F G v.m.n.2.~ E -.h       ",
"G.j ' ,.G K K v.c.<.>.} x       ",
"  L Y  .0.b.M.z.7.3.:.z >       ",
"+ e I k 5.a.s.i.4.B ,           ",
"G.7 w   a 9.p.;.p O           G.",
"          i g $         G.G.G.G.",
"G.G.G.G.G.G.G.G.G.G.G.G.G.G.G.G."
};
