/* XPM */
static char *chmsee-32x32[] = {
/* columns rows colors chars-per-pixel */
"32 32 257 2",
"   c #000000",
".  c #010901",
"X  c #04080A",
"o  c #090F13",
"O  c #041302",
"+  c #091903",
"@  c #140300",
"#  c #190200",
"$  c #121A1F",
"%  c #0B1218",
"&  c #0E1B25",
"*  c #0A2205",
"=  c #152B0A",
"-  c #17360C",
";  c #1F2D30",
":  c #1D272C",
">  c #2C0100",
",  c #230000",
"<  c #390200",
"1  c #263816",
"2  c #3C3016",
"3  c #253239",
"4  c #303B3B",
"5  c #0F3451",
"6  c #102A40",
"7  c #1A3F57",
"8  c #2C3B42",
"9  c #0B411E",
"0  c #37421E",
"q  c #2C4C17",
"w  c #3C4723",
"e  c #3C4727",
"r  c #3E5425",
"t  c #3A6226",
"y  c #374649",
"u  c #3B4C54",
"i  c #2D4656",
"p  c #3D6378",
"a  c #285070",
"s  c #4C0200",
"d  c #410200",
"f  c #590300",
"g  c #4C2812",
"h  c #502C13",
"j  c #4C3115",
"k  c #4C3234",
"l  c #435927",
"z  c #467329",
"x  c #4D7C31",
"c  c #5B6F3A",
"v  c #5C7537",
"b  c #49672B",
"n  c #65763F",
"m  c #574240",
"M  c #4C5547",
"N  c #4D5E63",
"B  c #496776",
"V  c #566667",
"C  c #666D5F",
"Z  c #6A794B",
"A  c #7B7053",
"S  c #647678",
"D  c #396284",
"F  c #4A6C8D",
"G  c #487083",
"H  c #6C718D",
"J  c #607898",
"K  c #568A3F",
"L  c #619E38",
"P  c #64A03E",
"I  c #5F9B53",
"U  c #6D8552",
"Y  c #6C9F54",
"T  c #74864B",
"R  c #7F8B54",
"E  c #63934A",
"W  c #669777",
"Q  c #7A8768",
"!  c #798878",
"~  c #649B63",
"^  c #74A859",
"/  c #7DBD57",
"(  c #76BE44",
")  c #7AAD69",
"_  c #7EC152",
"`  c #7FC64A",
"'  c #5185A4",
"]  c #7B8B88",
"[  c #74868E",
"{  c #779EB2",
"}  c #79A896",
"|  c #7BA8B8",
" . c #6D9BC1",
".. c #7DB0C7",
"X. c #76B1DA",
"o. c #69B6EC",
"O. c #67B4EB",
"+. c #74BDED",
"@. c #79BDEA",
"#. c #77BFF0",
"$. c #7DC3F1",
"%. c #880500",
"&. c #9B0A04",
"*. c #971F0B",
"=. c #97301F",
"-. c #892522",
";. c #AE0600",
":. c #AC140E",
">. c #B11C17",
",. c #BB302A",
"<. c #AE3836",
"1. c #8A603F",
"2. c #BD462D",
"3. c #8C5042",
"4. c #8F574D",
"5. c #906058",
"6. c #877657",
"7. c #9D6273",
"8. c #8C6573",
"9. c #A8504F",
"0. c #BB4044",
"q. c #B14A51",
"w. c #B66954",
"e. c #A96774",
"r. c #A7786F",
"t. c #C81913",
"y. c #DF1E17",
"u. c #C7351B",
"i. c #E70A02",
"p. c #E33D36",
"a. c #E24639",
"s. c #D85F5A",
"d. c #C66966",
"f. c #D16160",
"g. c #D47C78",
"h. c #E46B67",
"j. c #867E94",
"k. c #AF7983",
"l. c #8A975C",
"z. c #889D6E",
"x. c #908E6E",
"c. c #81B16E",
"v. c #98A369",
"b. c #94A375",
"n. c #9DA775",
"m. c #97B36A",
"M. c #BF9F7F",
"N. c #A8A975",
"B. c #A5B576",
"V. c #B1B179",
"C. c #A5A46B",
"Z. c #8DCE53",
"A. c #8FCF5F",
"S. c #8DD052",
"D. c #97D558",
"F. c #9CD85A",
"G. c #91D254",
"H. c #8DCB54",
"J. c #94CC68",
"K. c #9BD665",
"L. c #A1DB5E",
"P. c #A5C67A",
"I. c #A6DD62",
"U. c #AADF6D",
"Y. c #A3D877",
"T. c #B0D565",
"R. c #B4D377",
"E. c #ACE164",
"W. c #B4E26C",
"Q. c #C18050",
"!. c #D18F76",
"~. c #85998E",
"^. c #859A95",
"/. c #98818F",
"(. c #969692",
"). c #8B8FAC",
"_. c #839EAF",
"`. c #88A497",
"'. c #93A19B",
"]. c #8CACAE",
"[. c #98ABA4",
"{. c #9EB6A8",
"}. c #86AEB8",
"|. c #A68997",
" X c #BC8489",
".X c #A7AB82",
"XX c #ADB785",
"oX c #B6B685",
"OX c #BDBD8E",
"+X c #B1B48D",
"@X c #BABC97",
"#X c #B5B895",
"$X c #A6B096",
"%X c #A8B5A5",
"&X c #A5BDB4",
"*X c #B8BFAB",
"=X c #A2A0B8",
"-X c #89B7CD",
";X c #81BFEB",
":X c #AAB8D0",
">X c #9ECB80",
",X c #A9D888",
"<X c #B3DB8A",
"1X c #B3DE92",
"2X c #B4DC9B",
"3X c #A6C695",
"4X c #BDC5B4",
"5X c #BCDFAB",
"6X c #BBE29C",
"7X c #B9E294",
"8X c #B9E48B",
"9X c #BDE2A7",
"0X c #8EC1D9",
"qX c #96C1CF",
"wX c #86C4EE",
"eX c #88C3EB",
"rX c #83C5F1",
"tX c #8CCCF4",
"yX c #8AC7F1",
"uX c #9DC4E1",
"iX c #99CCF1",
"pX c #98D3F5",
"aX c #A0C8D3",
"sX c #A5CEED",
"dX c #A1D1F3",
"fX c #ABD6F4",
"gX c #BCD6EE",
"hX c #BADBF5",
"jX c #B6DAF4",
"kX c #D9908E",
"lX c #D3908E",
"zX c #D8A29F",
"xX c #E4928E",
"cX c #EA9D9B",
"vX c #C1C195",
"bX c #C5C49B",
"nX c #CBCBA2",
"mX c #C6C9AA",
"MX c #D4D4B3",
"NX c #C5E89C",
"BX c #C3FF99",
"VX c #C4E6A5",
"CX c #C4E5AC",
"ZX c #C9E9A9",
"AX c #C6E5B5",
"SX c #CDE9BB",
"DX c #CAE8B6",
"FX c #D0E9B5",
"GX c #DCF4BC",
"HX c #D6F3A1",
"JX c #E0DAAE",
"KX c #E4F8BE",
"LX c #D7D9C0",
"PX c #D2EAC5",
"IX c #EAFAC9",
"UX c gray100",
"YX c None",
/* pixels */
"YXYXYXYXYXYXYXYXYXYXYXYXYXYXYXYXYXYXYXYXYXYXYXYXYXYXYXYXYXYXYXYX",
"YXYXYXYXYXYXYXYXYXYXYXYXYXYX      YXYXYXYXYXYXYXYXYXYXYXYXYXYXYX",
"YXYXYXYXYXYXYXYXYXYXYX+ q b c c Z Z q O YXYXYXYXYXYXYXYXYXYXYXYX",
"YXYXYXYXYX  * q r l v T R l.v.n.m.^ K - YXYXYXYXYXYXYXYXYXYXYXYX",
"YXYXYXO l v n T l.C.C.N.B.>X>X,X5X5Xc.- YXYXYXYXYXYXYXYXYXYXYXYX",
"YXYXYX  U P.m.B.P.P.>X<X5X9XPXPXPXPX) * YXYXYXYXYXYXYXYXYXYXYXYX",
"YXYXYX  z.GXNXR.<XVXDXSXDXSXSXAX5X5X^ O YXYXYXYXYXYXYXYXYXYXYXYX",
"YXYXYX  A nXFXNX7XFXFXCXAXCX9X9X9X2X~   YXYXYXYXYXYXYXYXYXYXYXYX",
"YXYXYX@ 3.!.M.V.8XVXVXVX9X6X6X6X2X,XE   YXYXYXYXYXYXYXYXYXYXYXYX",
"YXYXYX@ 9.cXkXw.R.NX6X7X1X1X1X,X,XP.K YXYXYXYXYXYXYXYXYXYXYXYXYX",
"YXYXYX= =.a.h.w.R.8XU.K.K.Y.Y.,X,XJ.K YXYXYXYXYXYXYXYXYXYXYXYXYX",
"YXYXYX- *.i.y.2.R.E.F.D.S.S.Z.A.A._ z YXYXYXYXYXYXYXYXYXYXYXYXYX",
"YXYXYX* 1.a.i.u.T.I.L.F.D.G.S.S.` ( t YXYXYXYXYXYXYXYXYXYXYXYXYX",
"YXYXYX  z.JX!.Q.T.I.I.F.F.Z./ ~ W I t YX        YXYXYXYXYXYXYXYX",
"YXYXYX  b.IXGXNXW.W.E.J.) W [ (.|.[ p 5             YXYXYXYXYXYX",
"YXYXYX  b.IXKXHXW.J.) } _.8.9.d.zXlX/.' a &           YXYXYXYXYX",
"YXYXYX  b.IXFX3X} | uXhXhX|.<.:.,.!.kX Xj.F 7 X       YXYXYXYXYX",
"YXYXYXO Q %X}.-XsXhXhXhXjXjX:Xe.>.t.s.xXkXk.H p 6         YXYXYX",
"YXYXYXi ' o.rXwXeXeXeXiXdXfXfXsX=Xq.t.a.h.s.7. .G :           YX",
"YXYXYXN ^.X.o.o.o.o.O.O.$.rXiXiXdXuX|.0.e.).{ ~.Q M             ",
"YXYXYXC 6.x...#.$.+.+.+.$.o.$.$.yXtXyXX.| ^.b.C.x.M             ",
"YXYXYXm r.r.6.}.$.eX$.$.$.rX$.$.#.#...`.N.N.V.N.! 4             ",
"YXYX, -.kXkX3.v.{.0XtXtXtXtXtXeX-X[..XV.+X+X(.S 8 .             ",
"YX  f &.,.f.5.@XvX+XqXpXpXiX0X%X+XoX#X@X$XS u o                 ",
"YX# d f &.>.k ~.mXmX@X&XaX&X+X3XzXmX#X] u %                   YX",
"YX    s ;.%.  3 ] *XMXnX3XzXnXMX2X^.N $                     YXYX",
"YX    s %.d     $ S &XLXMXMX4X'.B :                     YXYXYXYX",
"YX    #           X N [.4X[.S 3                     YXYXYXYXYXYX",
"YXYX                  u B y                     YXYXYXYXYXYXYXYX",
"YXYXYXYXYX                                YXYXYXYXYXYXYXYXYXYXYX",
"YXYXYXYXYXYXYXYXYXYXYX  YXYXYXYXYXYXYXYXYXYXYXYXYXYXYXYXYXYXYXYX",
"YXYXYXYXYXYXYXYXYXYXYXYXYXYXYXYXYXYXYXYXYXYXYXYXYXYXYXYXYXYXYXYX"
};
