/* XPM */
static char * bleachbit_xpm[] = {
"32 32 170 2",
"  	c None",
". 	c #FFFFFF",
"+ 	c #FEFEFE",
"@ 	c #E7E7E7",
"# 	c #CFCFCF",
"$ 	c #E9E9E9",
"% 	c #FAFAFA",
"& 	c #F1F1F1",
"* 	c #DCDCDC",
"= 	c #ECECEC",
"- 	c #F8F8F8",
"; 	c #EFEFEF",
"> 	c #F6F6F6",
", 	c #B7B7B7",
"' 	c #0C0C0C",
") 	c #0B0B0B",
"! 	c #151515",
"~ 	c #DDDDDD",
"{ 	c #808080",
"] 	c #2D2D2D",
"^ 	c #232323",
"/ 	c #DFDFDF",
"( 	c #D8D8D8",
"_ 	c #414141",
": 	c #4B4B4B",
"< 	c #565656",
"[ 	c #F5F5F5",
"} 	c #A8A8A8",
"| 	c #ACACAC",
"1 	c #BABABA",
"2 	c #E8E8E8",
"3 	c #FDFDFD",
"4 	c #F7F7F7",
"5 	c #292929",
"6 	c #6D6D6D",
"7 	c #636363",
"8 	c #454545",
"9 	c #4D4D4D",
"0 	c #737373",
"a 	c #101010",
"b 	c #FCFCFC",
"c 	c #5F5F5F",
"d 	c #6C6C6C",
"e 	c #AAAAAA",
"f 	c #C3C3C3",
"g 	c #B8B8B8",
"h 	c #E0E0E0",
"i 	c #C8C8C8",
"j 	c #080808",
"k 	c #D0D0D0",
"l 	c #000000",
"m 	c #E4E4E4",
"n 	c #121212",
"o 	c #DEDEDE",
"p 	c #F3F3F3",
"q 	c #373737",
"r 	c #DADADA",
"s 	c #EAEAEA",
"t 	c #606060",
"u 	c #969696",
"v 	c #E1E1E1",
"w 	c #C9C9C9",
"x 	c #050505",
"y 	c #FBFBFB",
"z 	c #D4D4D4",
"A 	c #E3E3E3",
"B 	c #111111",
"C 	c #F2F2F2",
"D 	c #363636",
"E 	c #EBEBEB",
"F 	c #646464",
"G 	c #909090",
"H 	c #E5E5E5",
"I 	c #CCCCCC",
"J 	c #F4F4F4",
"K 	c #E6E6E6",
"L 	c #060606",
"M 	c #D6D6D6",
"N 	c #EEEEEE",
"O 	c #929292",
"P 	c #CACACA",
"Q 	c #1C1C1C",
"R 	c #ADADAD",
"S 	c #979797",
"T 	c #202020",
"U 	c #D9D9D9",
"V 	c #F9F9F9",
"W 	c #D2D2D2",
"X 	c #B2B2B2",
"Y 	c #C7C7C7",
"Z 	c #949494",
"` 	c #2B2B2B",
" .	c #C1C1C1",
"..	c #161616",
"+.	c #171717",
"@.	c #F0F0F0",
"#.	c #BCBCBC",
"$.	c #2A2A2A",
"%.	c #9E9E9E",
"&.	c #B6B6B6",
"*.	c #7D7D7D",
"=.	c #C6C6C6",
"-.	c #D1D1D1",
";.	c #C2C2C2",
">.	c #CECECE",
",.	c #A1A1A1",
"'.	c #EDEDED",
").	c #D3D3D3",
"!.	c #6A6A6A",
"~.	c #1E1E1E",
"{.	c #6F6F6F",
"].	c #1F1F1F",
"^.	c #444444",
"/.	c #3B3B3B",
"(.	c #575757",
"_.	c #A5A5A5",
":.	c #484848",
"<.	c #535353",
"[.	c #555555",
"}.	c #0F0F0F",
"|.	c #6E6E6E",
"1.	c #C5C5C5",
"2.	c #B3B3B3",
"3.	c #E2E2E2",
"4.	c #141414",
"5.	c #393939",
"6.	c #131313",
"7.	c #383838",
"8.	c #626262",
"9.	c #4C4C4C",
"0.	c #959595",
"a.	c #B1B1B1",
"b.	c #323232",
"c.	c #333333",
"d.	c #B4B4B4",
"e.	c #2F2F2F",
"f.	c #545454",
"g.	c #9C9C9C",
"h.	c #999999",
"i.	c #B0B0B0",
"j.	c #989898",
"k.	c #8A8A8A",
"l.	c #C0C0C0",
"m.	c #0E0E0E",
"n.	c #888888",
"o.	c #282828",
"p.	c #666666",
"q.	c #515151",
"r.	c #ABABAB",
"s.	c #2E2E2E",
"t.	c #656565",
"u.	c #4A4A4A",
"v.	c #858585",
"w.	c #C4C4C4",
"x.	c #4F4F4F",
"y.	c #505050",
"z.	c #939393",
"A.	c #1A1A1A",
"B.	c #9B9B9B",
"C.	c #DBDBDB",
"D.	c #AFAFAF",
"E.	c #040404",
"F.	c #585858",
"G.	c #474747",
"H.	c #3E3E3E",
"I.	c #5D5D5D",
"J.	c #9D9D9D",
"K.	c #BEBEBE",
"L.	c #CBCBCB",
"M.	c #D5D5D5",
". . + . . + . . . . . . . + . . . . + . . + . + . + . . . . . . ",
"+ + + . + . . . . . . . + . + . . . . + + . + . . + . . . . . . ",
". . + . @ # $ . + + . . $ % . + + . & * = . . + . - ; > . + . . ",
". . . , ' ) ! ~ + . { ] ^ / . . . ( _ : < * . + [ } | 1 2 . + 3 ",
"+ . 4 5 6 [ 7 8 . . 9 0 a / + . b c d > e 6 . . f g % h i b . 4 ",
"+ . 2 j [ . k l . + . m n o + . p q r . s t p . u v . b w - + [ ",
". . m x y . z l . . . A B o . . C D $ . E F E . G H . 3 I 4 3 J ",
". . K L . . M l . . . A B o . . C q m . $ 7 N . O H . 3 P 4 + J ",
". + J Q R . S T . . y * B U V + - 9 u . W t . . X w . C Y y + > ",
". . . Z l ` x  .. . B ..l +.D @.. #.$.7 < f . . = %.&., v . . b ",
". . + .  .*.=.. . . -.;.f ;.>.3 + . r ,.>.. + + . '.).$ . + + . ",
". . + + . . . . . + . . . . . . . + . . . . . . . . . . + + . + ",
"+ . . . V m % . . + . % H % . . + . '.r = . + . . 4 N > . + . + ",
"+ + - !.$.~.H . + . {.] ].h . + . ).^./.(./ . + [ } _.g $ . . 3 ",
"+ . C :.<.a H . . . D [.}./ + . b F F . _.|.. . 1.2.. ~ P 3 . V ",
". . . . 3.4.H . . + . $ n o . + p 5.U . s c [ . u v . 3 w - + > ",
". + . . o 6.H . . . . A B o . . C D 2 . E F E . G H . 3 I 4 + [ ",
"+ + . . o 6.m . . . . A a o . . C 7.H . s 8.N . O m . 3 P 4 + [ ",
". + . [ ).6.~ V . . V * n z > . - 9.0.. -.t . . a.i . @.i y + 4 ",
". . '.b.! l 4.6.. . B 4.l ! c.N . d.e.7 f.f . . E g., g o . . b ",
". + b | S h.S i.. . i.S j.j.| b + . f k.g . . . . A w / . + + . ",
". . . . . . . . + + . . . . . . . + . . . . + + . . . . + + . . ",
". . + . '.U N . . + . 3 ; y + . . . 3 p y . . . . % C - . . + . ",
". . . l.m.j ~.h + . n.D o./ . + y } p.q./ . . + > r.| #.E . . + ",
". + - s.t.% c u.. . /.p.}./ + . - 6 v.: / . + . w.&.b / w 3 . - ",
". . $ j > . k l . + . K B o . + . . p x./ . + . h.v . b P 4 + > ",
"+ . m x y . z l . . . 3.n o . + . . @.x./ . . . G H . 3 I 4 + > ",
"+ . H L + . M l . . . A B o . + . . @.y./ . . . z.H . b I 4 + [ ",
". + p A.X . B.Q . . 4 r n M > + + - $ x.C.% + . D.P . & Y y + 4 ",
"+ . . k.l /.E.1 . . ..4.l ! c.@.> F.G.H.I.6 y . E J.#.1 o . . y ",
". . + . &.F K.. + . L.X 2.a.w.3 + M.;.=.L.M.. + . = L.H . + + . ",
". . . + . . . + + + . . . . . . . . . . . . + . . . . . + + . . "};
